<svg width="16" height="16" viewBox="0 0 16 16" fill="none" xmlns="http://www.w3.org/2000/svg">
<g clip-path="url(#clip0_2090_1359)">
<path d="M5.12 5.59961L4 6.71961L8 10.7196L16 2.71961L14.88 1.59961L8 8.47961L5.12 5.59961Z" fill="#03AFE5"/>
<path d="M7.2 13.5998C4.08 13.5998 1.6 11.1198 1.6 7.9998C1.6 4.8798 4.08 2.3998 7.2 2.3998C8.16 2.3998 9.12 2.6398 10 3.1198L10.8 1.7598C9.68 1.1198 8.48 0.799805 7.2 0.799805C3.2 0.799805 0 3.9998 0 7.9998C0 11.9998 3.2 15.1998 7.2 15.1998C11.2 15.1998 14.4 11.9998 14.4 7.9998H12.8C12.8 11.1198 10.32 13.5998 7.2 13.5998Z" fill="#03AFE5"/>
</g>
<defs>
<clipPath id="clip0_2090_1359">
<rect width="16" height="16" fill="white"/>
</clipPath>
</defs>
</svg>
