<svg width="191" height="36" viewBox="0 0 191 36" fill="none" xmlns="http://www.w3.org/2000/svg">
<path d="M49.405 30.2072V6.5552H57.7642L62.6242 19.0292H63.2722L68.0998 6.5552H76.621V30.2072H70.6594V10.022L71.599 10.0868L65.5078 25.4444H60.0322L53.9086 10.0868L54.913 10.022V30.2072H49.405Z" fill="#101010"/>
<path d="M89.5577 30.8552C88.0457 30.8552 86.7065 30.596 85.5401 30.0776C84.3737 29.5592 83.3909 28.8572 82.5917 27.9716C81.7925 27.086 81.1769 26.0924 80.7449 24.9908C80.3345 23.8892 80.1293 22.7552 80.1293 21.5888V20.9408C80.1293 19.7312 80.3345 18.5756 80.7449 17.474C81.1769 16.3508 81.7817 15.3572 82.5593 14.4932C83.3585 13.6292 84.3305 12.9488 85.4753 12.452C86.6201 11.9336 87.9161 11.6744 89.3633 11.6744C91.2857 11.6744 92.9165 12.1064 94.2557 12.9704C95.5949 13.8344 96.6209 14.9792 97.3337 16.4048C98.0465 17.8088 98.4029 19.3424 98.4029 21.0056V22.8848H82.5917V19.7096H95.0009L92.9597 21.1352C92.9597 20.12 92.8193 19.2668 92.5385 18.5756C92.2793 17.8628 91.8797 17.3228 91.3397 16.9556C90.8213 16.5884 90.1625 16.4048 89.3633 16.4048C88.5857 16.4048 87.9053 16.5884 87.3221 16.9556C86.7605 17.3012 86.3285 17.8412 86.0261 18.5756C85.7237 19.2884 85.5725 20.1956 85.5725 21.2972C85.5725 22.2908 85.7129 23.1548 85.9937 23.8892C86.2745 24.602 86.7065 25.1528 87.2897 25.5416C87.8729 25.9304 88.6289 26.1248 89.5577 26.1248C90.3785 26.1248 91.0481 25.9844 91.5665 25.7036C92.1065 25.4228 92.4845 25.0448 92.7005 24.5696H98.0789C97.8197 25.7792 97.3013 26.8592 96.5237 27.8096C95.7677 28.76 94.7957 29.5052 93.6077 30.0452C92.4413 30.5852 91.0913 30.8552 89.5577 30.8552Z" fill="#101010"/>
<path d="M108.866 30.7904C107.613 30.7904 106.468 30.5636 105.431 30.11C104.416 29.6564 103.531 29.03 102.775 28.2308C102.04 27.41 101.468 26.4488 101.057 25.3472C100.669 24.2456 100.474 23.0468 100.474 21.7508V20.9732C100.474 19.6772 100.658 18.4784 101.025 17.3768C101.414 16.2536 101.965 15.2816 102.677 14.4608C103.39 13.6184 104.254 12.9704 105.269 12.5168C106.285 12.0416 107.419 11.804 108.671 11.804C110.119 11.804 111.35 12.128 112.365 12.776C113.402 13.4024 114.19 14.3204 114.73 15.53C115.292 16.7396 115.594 18.2084 115.637 19.9364L114.277 18.932V6.5552H120.173V30.2072H115.508V22.9496H116.156C116.113 24.548 115.789 25.9412 115.184 27.1292C114.579 28.2956 113.737 29.2028 112.657 29.8508C111.598 30.4772 110.335 30.7904 108.866 30.7904ZM110.453 25.9304C111.166 25.9304 111.814 25.7684 112.397 25.4444C113.002 25.1204 113.488 24.6452 113.855 24.0188C114.223 23.3924 114.406 22.6364 114.406 21.7508V20.6492C114.406 19.7852 114.212 19.0616 113.823 18.4784C113.456 17.8952 112.97 17.4524 112.365 17.15C111.782 16.826 111.145 16.664 110.453 16.664C109.676 16.664 108.974 16.8692 108.347 17.2796C107.743 17.6684 107.257 18.2192 106.889 18.932C106.544 19.6232 106.371 20.4332 106.371 21.362C106.371 22.2908 106.544 23.1008 106.889 23.792C107.257 24.4616 107.743 24.9908 108.347 25.3796C108.974 25.7468 109.676 25.9304 110.453 25.9304Z" fill="#101010"/>
<path d="M125.293 30.2072V12.3224H131.19V30.2072H125.293ZM123.025 16.5992V12.3224H131.19V16.5992H123.025ZM127.723 10.8968C126.643 10.8968 125.844 10.6268 125.325 10.0868C124.829 9.5252 124.58 8.8124 124.58 7.9484C124.58 7.0844 124.829 6.3824 125.325 5.8424C125.844 5.2808 126.632 5 127.691 5C128.771 5 129.559 5.2808 130.056 5.8424C130.553 6.3824 130.801 7.0844 130.801 7.9484C130.801 8.8124 130.553 9.5252 130.056 10.0868C129.559 10.6268 128.781 10.8968 127.723 10.8968Z" fill="#101010"/>
<path d="M133.937 30.2072L139.672 20.8112L139.575 21.5564L134.164 12.614H139.056L142.588 18.8024H143.074L146.411 12.614H151.012L145.893 21.524L145.99 20.876L152.049 30.2072H147.156L142.977 23.5652H142.491L138.538 30.2072H133.937Z" fill="#101010"/>
<path d="M162.424 30.8228C160.912 30.8228 159.583 30.5636 158.439 30.0452C157.315 29.5268 156.376 28.8356 155.62 27.9716C154.885 27.086 154.324 26.1032 153.935 25.0232C153.568 23.9432 153.384 22.8416 153.384 21.7184V21.1028C153.384 19.9364 153.568 18.8132 153.935 17.7332C154.324 16.6316 154.885 15.6596 155.62 14.8172C156.376 13.9532 157.305 13.2728 158.406 12.776C159.508 12.2576 160.782 11.9984 162.229 11.9984C164.13 11.9984 165.718 12.4196 166.992 13.262C168.288 14.0828 169.26 15.1736 169.908 16.5344C170.556 17.8736 170.88 19.3208 170.88 20.876V22.496H155.296V19.742H168.061L166.668 21.1028C166.668 19.9796 166.506 19.0184 166.182 18.2192C165.858 17.42 165.361 16.8044 164.692 16.3724C164.044 15.9404 163.223 15.7244 162.229 15.7244C161.236 15.7244 160.393 15.9512 159.702 16.4048C159.011 16.8584 158.482 17.5172 158.115 18.3812C157.769 19.2236 157.596 20.2388 157.596 21.4268C157.596 22.5284 157.769 23.5112 158.115 24.3752C158.46 25.2176 158.989 25.8872 159.702 26.384C160.415 26.8592 161.322 27.0968 162.424 27.0968C163.525 27.0968 164.422 26.8808 165.113 26.4488C165.804 25.9952 166.247 25.4444 166.441 24.7964H170.589C170.329 26.006 169.833 27.0644 169.098 27.9716C168.364 28.8788 167.424 29.5808 166.279 30.0776C165.156 30.5744 163.871 30.8228 162.424 30.8228Z" fill="#101010"/>
<path d="M174.642 30.2072V12.614H178.206V20.1632H177.882C177.882 18.3704 178.12 16.88 178.595 15.692C179.07 14.4824 179.772 13.5752 180.701 12.9704C181.652 12.3656 182.829 12.0632 184.233 12.0632H184.427C186.522 12.0632 188.11 12.7436 189.19 14.1044C190.27 15.4436 190.81 17.4524 190.81 20.1308V30.2072H186.306V19.742C186.306 18.662 185.993 17.7872 185.367 17.1176C184.762 16.448 183.92 16.1132 182.84 16.1132C181.738 16.1132 180.842 16.4588 180.15 17.15C179.481 17.8196 179.146 18.7268 179.146 19.8716V30.2072H174.642Z" fill="#101010"/>
<path fill-rule="evenodd" clip-rule="evenodd" d="M16.2004 28.6107C18.8184 29.8443 21.7389 30.2961 24.6119 29.9056C24.6881 29.8953 24.7336 29.9892 24.6798 30.0433C13.374 41.5136 -2.83401 16.6991 9.49257 5.87512C9.54984 5.82517 9.51429 5.7348 9.44106 5.73498C8.90607 5.7364 8.34386 5.82001 7.75673 6.0028C7.55396 6.06593 7.61142 6.03165 7.46237 6.19841C5.71705 8.15135 4.59254 10.5143 4.12494 13.1216C3.50723 16.5788 4.06917 20.1806 5.37951 23.4188C6.74022 26.7792 9.04801 30.0331 12.0437 32.1007C13.8008 33.3149 15.7292 34.0895 17.7153 34.1918C22.2358 34.4247 26.3515 32.7591 29.2313 29.5436C29.263 29.5082 29.2575 29.4537 29.2195 29.4254C26.4817 27.3829 25.7341 24.0719 27.3651 20.945C27.3869 20.9032 27.4391 20.8891 27.4788 20.9144C29.939 22.4796 31.0481 24.974 30.5861 27.5714C30.5709 27.6566 30.6832 27.7022 30.7312 27.6304C32.5191 24.9606 33.4511 21.8464 33.4765 18.7056C33.4769 18.6646 33.4469 18.6304 33.4065 18.6253C30.0604 18.2027 27.7981 15.7213 27.6547 12.221C27.6528 12.1738 27.691 12.1354 27.738 12.1373C29.9228 12.2275 31.7087 13.154 32.8411 14.6602C32.8935 14.7299 33.0038 14.6766 32.9825 14.592C32.4937 12.6593 31.645 10.8108 30.4526 9.14375C30.4369 9.12176 30.4136 9.11001 30.3867 9.11036C25.5901 9.16138 22.5536 8.0128 21.2771 5.66464C21.2763 5.66313 21.2756 5.66179 21.2748 5.66028C20.113 3.17553 17.9798 1.94335 14.8755 1.96383C14.7974 1.96436 14.7656 1.8641 14.8273 1.81852C20.732 -2.54313 32.9549 1.45961 31.3781 8.32675C31.3727 8.35008 31.3769 8.3726 31.3909 8.39201C32.7201 10.2341 33.6875 12.3352 34.2152 14.5908C34.2333 14.668 34.3403 14.6749 34.368 14.6006C35.048 12.7791 36.5589 11.3609 38.7052 10.6873C38.7501 10.6732 38.7969 10.7004 38.8072 10.7464C39.585 14.2282 37.9669 17.2603 34.7266 18.4968C34.6949 18.5089 34.6749 18.5379 34.675 18.5719C34.6797 21.6455 33.8843 24.5451 32.4905 27.0552C32.4524 27.1238 32.5262 27.2013 32.5962 27.166C34.4041 26.2564 36.5567 26.2889 38.6282 27.3785C38.6698 27.4004 38.6837 27.4528 38.6587 27.4927C36.7749 30.4787 33.5395 31.4827 30.4051 30.1146C30.3729 30.1005 30.3368 30.1084 30.3135 30.1349C27.1373 33.7321 22.5014 36 17.3376 36C7.7625 36 0 28.2048 0 18.5892C0 14.041 1.75188 9.76514 4.80507 6.55937C5.75278 5.54943 6.04182 5.27849 7.40527 4.85405C9.30407 4.26293 11.1404 4.50164 12.7837 5.45478C13.9029 6.10386 14.9422 6.94125 15.8059 7.93232C16.6328 8.88127 18.309 11.3602 19.0628 11.8717C19.3698 12.08 19.6891 12.2279 20.0917 12.3626L20.092 12.3619C20.5006 12.495 20.9631 12.5904 21.4795 12.6479C22.0469 12.7109 22.2248 13.4617 21.6972 13.7755C21.6963 13.7761 21.6955 13.7766 21.6946 13.7771L18.9833 15.5375C18.9136 15.5827 18.9637 15.666 18.9971 15.7744L20.3383 20.1277C21.0376 22.3922 18.3382 22.749 16.7594 22.9727C16.5888 22.9968 15.9812 23.0724 15.9346 23.1131C15.5887 23.4154 15.4379 24.0828 15.4497 24.9584C15.4635 25.9867 15.7162 27.2515 16.1588 28.5633C16.1659 28.5851 16.1799 28.601 16.2004 28.6107ZM14.565 27.3279C14.1615 25.5587 13.9182 22.9626 15.3815 22.0295L15.3824 22.0309C15.9343 21.6793 19.6014 21.7992 19.1944 20.4811L17.8532 16.1278C17.744 15.7733 17.5908 15.5845 17.6491 15.2601C17.7486 14.706 19.545 13.7456 19.8511 13.5468C19.8075 13.5335 19.7642 13.52 19.7215 13.506L19.7217 13.5053C19.2174 13.3409 18.7743 13.1289 18.3923 12.8698C17.4149 12.2067 15.8514 9.8085 14.9058 8.72332C14.1401 7.8447 13.1792 7.06599 12.1775 6.4917C12.142 6.47131 12.0972 6.48075 12.0731 6.51396C7.31927 13.0407 8.36717 22.1369 14.4345 27.4068C14.4927 27.4574 14.5821 27.4035 14.565 27.3279Z" fill="#03AFE5"/>
</svg>
