<svg width="150" height="150" viewBox="0 0 150 150" fill="none" xmlns="http://www.w3.org/2000/svg">
<rect width="150" height="150" rx="75" fill="#00A8BC"/>
<circle cx="75.0005" cy="75" r="28.8462" fill="#00A8BC"/>
<path d="M62.8054 72.7477C63.2631 73.2053 64.0049 73.2053 64.4625 72.7477C64.9202 72.29 64.9202 71.5482 64.4625 71.0906L63.7171 70.3451C62.8316 69.4596 62.3442 68.2826 62.3442 67.0308C62.3442 64.4462 64.4467 62.3436 67.0313 62.3436C68.2831 62.3436 69.4606 62.8311 70.3455 63.7165L71.0915 64.4626C71.5492 64.9203 72.291 64.9203 72.7486 64.4626C73.2063 64.005 73.2063 63.2631 72.7486 62.8055L72.0026 62.0594C70.6747 60.7315 68.9093 60 67.0313 60C63.1541 60 60 63.1542 60 67.0314C60 68.9094 60.7315 70.6749 62.0593 72.0034L62.8054 72.7477Z" fill="white"/>
<path d="M75.8279 84.1151L87.9394 72.0034C89.2673 70.6755 89.9988 68.9094 89.9988 67.0314C89.9988 63.1542 86.8446 60 82.9681 60C81.0901 60 79.3247 60.7315 77.9962 62.0594L62.0594 77.9966C60.7315 79.3245 60 81.0899 60 82.9686C60 86.8458 63.1541 90 67.0313 90C68.9093 90 70.6747 89.2685 72.0032 87.9406L75.8279 84.1151ZM74.9997 68.3709L81.6287 75L74.9997 81.6291L68.3707 75L74.9997 68.3709ZM79.6533 63.7171C80.5388 62.8317 81.7157 62.3442 82.9681 62.3442C85.5527 62.3442 87.6552 64.4468 87.6552 67.0314C87.6552 68.2832 87.1678 69.4608 86.2823 70.3457L83.2858 73.3423L76.6568 66.7131L79.6533 63.7171ZM70.3455 86.2835C69.46 87.1689 68.2831 87.6564 67.0313 87.6564C64.4467 87.6564 62.3442 85.5538 62.3442 82.9692C62.3442 81.7174 62.8316 80.5398 63.7171 79.6543L66.7136 76.6577L73.3426 83.2869L70.3455 86.2835Z" fill="white"/>
<path d="M87.1937 77.252C86.736 76.7944 85.9942 76.7944 85.5366 77.252C85.0789 77.7097 85.0789 78.4515 85.5366 78.9092L86.282 79.6547C87.1675 80.5402 87.6549 81.7171 87.6549 82.9696C87.6549 85.5541 85.5524 87.6567 82.9678 87.6567C81.716 87.6567 80.5385 87.1693 79.6536 86.2838L78.9076 85.5377C78.4499 85.0801 77.7081 85.0801 77.2505 85.5377C76.7928 85.9954 76.7928 86.7372 77.2505 87.1948L77.9965 87.941C79.3244 89.2688 81.0905 90.0003 82.9685 90.0003C86.8456 90.0003 89.9991 86.8461 89.9991 82.9689C89.9991 81.0909 89.2676 79.3254 87.9397 77.9969L87.1937 77.252Z" fill="white"/>
<path d="M75.0002 73.8286C75.6475 73.8286 76.1723 73.3038 76.1723 72.6565C76.1723 72.0091 75.6475 71.4844 75.0002 71.4844C74.3529 71.4844 73.8281 72.0091 73.8281 72.6565C73.8281 73.3038 74.3529 73.8286 75.0002 73.8286Z" fill="white"/>
<path d="M75.0002 78.5158C75.6475 78.5158 76.1723 77.991 76.1723 77.3437C76.1723 76.6964 75.6475 76.1716 75.0002 76.1716C74.3529 76.1716 73.8281 76.6964 73.8281 77.3437C73.8281 77.991 74.3529 78.5158 75.0002 78.5158Z" fill="white"/>
<path d="M72.6565 76.1721C73.3038 76.1721 73.8285 75.6473 73.8285 75C73.8285 74.3526 73.3038 73.8279 72.6565 73.8279C72.0091 73.8279 71.4844 74.3526 71.4844 75C71.4844 75.6473 72.0091 76.1721 72.6565 76.1721Z" fill="white"/>
<path d="M77.344 76.1721C77.9913 76.1721 78.516 75.6473 78.516 75C78.516 74.3526 77.9913 73.8279 77.344 73.8279C76.6966 73.8279 76.1719 74.3526 76.1719 75C76.1719 75.6473 76.6966 76.1721 77.344 76.1721Z" fill="white"/>
<path d="M85.1507 23.2136L84.92 25.3758L76.6896 24.4977L76.8366 23.1201L80.802 19.8397C82.3109 18.5898 82.9645 17.9189 83.0743 16.8901C83.1766 15.931 82.6003 15.217 81.5714 15.1072C80.438 14.9863 79.6642 15.6268 79.5414 16.7777L77.1874 16.5265C77.4386 14.1725 79.3958 12.6882 81.9242 12.958C84.2783 13.2092 85.8464 14.8756 85.6343 16.8634C85.4817 18.2933 84.8619 19.1442 82.5829 20.9997L80.5996 22.728L85.1507 23.2136Z" fill="white"/>
<path d="M91.1638 27.3369C88.7674 26.5408 87.451 24.4404 88.0811 22.3214L90.3943 23.0899C90.2012 24.116 90.7843 24.9195 91.8328 25.2678C93.1974 25.7212 94.0008 25.0272 94.3049 24.1119C94.5979 23.2299 94.314 22.1377 92.9494 21.6843C92.0507 21.3858 91.2634 21.5308 90.6596 22.1802L88.967 20.9341L92.0443 14.9531L98.5513 17.1149L97.8657 19.1785L93.0396 17.5751L91.9271 19.7555C92.6146 19.5774 93.3189 19.6266 93.9846 19.8478C96.6639 20.7379 97.3316 23.0109 96.7013 24.9081C96.06 26.8385 93.9929 28.2769 91.1638 27.3369Z" fill="white"/>
<path d="M103.46 31.151L101.516 29.9597L103.211 27.1937L100.445 25.4984L101.545 23.7042L104.311 25.3995L106.006 22.6335L107.95 23.8248L106.255 26.5908L109.021 28.2861L107.921 30.0803L105.155 28.385L103.46 31.151Z" fill="white"/>
<path d="M118.138 40.258L114.561 43.3605L112.815 41.347L116.391 38.2444L119.407 29.7318L121.292 31.9043L119.163 37.7202L125.256 36.4745L127.014 38.5012L118.138 40.258Z" fill="white"/>
<path d="M119.323 50.8838C117.986 48.4169 118.803 45.8398 121.378 44.4445C123.83 43.1161 126.546 43.8584 127.832 46.2327C129.244 48.8384 128.068 51.7098 125.176 52.7781L122.009 46.9346C120.743 47.8003 120.354 48.8489 120.947 49.9436C121.457 50.8841 122.262 51.2656 123.213 51.0694L124.366 53.1971C122.25 53.7455 120.409 52.8881 119.323 50.8838ZM126.234 47.0387C125.691 46.0365 124.701 45.7553 123.383 46.2303L125.305 49.7764C126.412 49.0965 126.786 48.0563 126.234 47.0387Z" fill="white"/>
<path d="M123.965 62.2269L125.076 61.9021C124.062 61.5591 123.364 60.795 123.005 59.5663C122.458 57.698 123.188 56.1325 124.871 55.6404C126.622 55.1286 127.978 56.2668 128.746 58.8925C128.893 59.3975 128.988 59.8449 129.083 60.4201L129.621 60.2626C130.631 59.9673 131.053 59.2228 130.768 58.2465C130.472 57.2366 129.706 56.803 128.671 57.0141L128.056 54.9102C130.166 54.4395 131.95 55.5438 132.585 57.715C133.274 60.0714 132.382 61.8306 130.177 62.4753L124.522 64.1289L123.965 62.2269ZM125.583 57.8256C124.826 58.0471 124.512 58.7235 124.768 59.5988C125.118 60.7938 125.986 61.3256 127.029 61.0205L127.669 60.8335C127.591 60.2534 127.511 59.8564 127.393 59.4525C127.004 58.1228 126.391 57.5894 125.583 57.8256Z" fill="white"/>
<path d="M129.703 68.7076L125.185 69.1684L124.938 66.7434L134.254 65.7934L134.481 68.0265L132.685 68.2097C133.94 68.7692 134.803 70.1442 134.956 71.6446L132.444 71.9007C132.391 69.8261 131.762 68.4977 129.703 68.7076Z" fill="white"/>
<path d="M127.972 82.956C126.014 82.798 124.928 81.215 125.142 78.5581C125.357 75.9012 126.753 74.5184 128.848 74.494L128.661 76.8187C127.698 76.7586 127.02 77.5308 126.922 78.7369C126.846 79.6808 127.086 80.4214 127.75 80.475C128.344 80.523 128.62 80.1582 128.867 79.2808L129.317 77.6282C129.749 75.9741 130.757 75.0351 132.208 75.1521C133.939 75.2917 135.025 76.8748 134.837 79.1996C134.648 81.5418 133.278 83.0498 131.253 83.0624L131.441 80.7376C132.357 80.7236 132.971 80.087 133.054 79.0557C133.126 78.1643 132.842 77.5432 132.248 77.4952C131.689 77.4501 131.43 77.8163 131.205 78.6426L130.728 80.4162C130.232 82.2059 129.318 83.0646 127.972 82.956Z" fill="white"/>
<path d="M121.177 94.212C122.614 90.8781 126.3 89.4113 129.763 90.903C133.226 92.3947 134.66 96.0677 133.224 99.4015C131.781 102.751 128.119 104.248 124.657 102.757C121.194 101.265 119.734 97.5619 121.177 94.212ZM123.368 95.1555C122.452 97.2814 123.62 99.3122 125.746 100.228C127.872 101.144 130.118 100.584 131.034 98.458C131.943 96.3482 130.807 94.3313 128.681 93.4154C126.555 92.4996 124.277 93.0457 123.368 95.1555Z" fill="white"/>
<path d="M115.489 104.543L116.915 102.588L122.794 106.878L123.91 105.348L125.596 106.579L124.48 108.108L124.89 108.408C126.392 109.504 126.653 110.932 125.505 112.504C125.154 112.986 124.769 113.334 124.39 113.557L122.831 112.42C123.071 112.269 123.321 112.017 123.507 111.762C123.9 111.224 123.946 110.715 123.421 110.332L123.053 110.063L121.616 112.032L119.931 110.802L121.367 108.833L115.489 104.543Z" fill="white"/>
<path d="M105.366 114.639L112.883 119.572L108.059 112.738L110.036 111.342L117.297 121.629L114.689 123.47L106.33 117.951L108.715 127.686L106.107 129.527L98.8468 119.24L100.824 117.845L105.688 124.736L103.546 115.923L105.366 114.639Z" fill="white"/>
<path d="M91.8214 121.613C94.4721 120.693 96.8829 121.917 97.843 124.684C98.757 127.318 97.5849 129.878 95.0335 130.763C92.2336 131.735 89.5905 130.109 89.0044 127.082L95.2834 124.904C94.6342 123.514 93.6624 122.96 92.4862 123.368C91.4756 123.719 90.9688 124.452 91.0084 125.422L88.7221 126.215C88.5235 124.038 89.6676 122.36 91.8214 121.613ZM94.4968 129.056C95.5737 128.682 96.0115 127.751 95.7562 126.373L91.9457 127.695C92.4374 128.898 93.4034 129.435 94.4968 129.056Z" fill="white"/>
<path d="M86.6951 128.275C87 131.029 85.6087 133.283 83.0988 133.56C81.9833 133.684 80.988 133.3 80.1924 132.488L80.6806 136.898L78.2753 137.164L76.8897 124.65L79.1033 124.405L79.2519 125.747C79.8758 124.69 80.827 124.037 82.0296 123.904C84.5395 123.626 86.394 125.556 86.6951 128.275ZM84.2026 128.551C84.0096 126.808 82.9138 125.994 81.7286 126.125C80.5259 126.259 79.6366 127.31 79.8316 129.07C80.0265 130.831 81.1358 131.608 82.3211 131.476C83.5063 131.345 84.3994 130.329 84.2026 128.551Z" fill="white"/>
<path d="M70.5474 135.842C70.5949 135.019 71.2956 134.444 72.2585 134.5C73.2039 134.555 73.8338 135.206 73.7862 136.029C73.7366 136.887 73.0359 137.461 72.0905 137.406C71.1276 137.351 70.4978 136.699 70.5474 135.842ZM71.5985 124.344L74.032 124.485L73.4915 133.834L71.058 133.693L71.5985 124.344Z" fill="white"/>
<path d="M64.9383 123.175C67.5756 123.756 68.9609 126.108 68.3459 128.899C67.7422 131.639 65.417 133.228 62.8481 132.662C60.4676 132.138 59.0583 130.139 59.3105 127.609L61.8109 128.16C61.6629 129.402 62.2333 130.318 63.3122 130.556C64.5452 130.827 65.5556 129.991 65.914 128.364C66.2762 126.72 65.7244 125.557 64.4742 125.281C63.3782 125.04 62.5176 125.604 62.1051 126.824L59.6048 126.273C60.4334 123.816 62.4893 122.635 64.9383 123.175Z" fill="white"/>
<path d="M53.2333 119.26L52.7519 120.312C53.6747 119.77 54.7096 119.742 55.8738 120.275C57.6439 121.084 58.3499 122.661 57.6205 124.255C56.862 125.914 55.1139 126.194 52.6261 125.056C52.1477 124.838 51.7477 124.616 51.2506 124.312L51.0172 124.822C50.5795 125.779 50.8664 126.585 51.7914 127.008C52.7482 127.446 53.5776 127.15 54.095 126.23L56.0885 127.141C55.0637 129.045 53.0609 129.671 51.0037 128.73C48.771 127.709 48.0249 125.883 48.9805 123.794L51.4312 118.436L53.2333 119.26ZM55.5023 123.364C55.8305 122.646 55.5244 121.966 54.6951 121.587C53.5628 121.069 52.5926 121.377 52.1404 122.366L51.8633 122.972C52.353 123.293 52.7053 123.492 53.088 123.667C54.3478 124.243 55.1521 124.129 55.5023 123.364Z" fill="white"/>
<path d="M47.2013 115.666L49.2492 117.02L42.3047 127.523L40.2568 126.168L47.2013 115.666Z" fill="white"/>
<path d="M34.2331 106.801L35.9333 105.23L41.681 111.451L32.4326 119.995L26.7682 113.864L28.4685 112.293L32.3241 116.467L34.2691 114.67L30.7705 110.883L32.4579 109.324L35.9565 113.111L38.1719 111.064L34.2331 106.801Z" fill="white"/>
<path d="M33.4752 101.523L34.8307 103.879L29.1222 103.522L26.6089 108.367L25.2097 105.935L27.0533 102.669L23.2945 102.606L22.0177 100.387L27.5278 100.575L30.0208 95.5195L31.4026 97.9211L29.5336 101.424L33.4752 101.523Z" fill="white"/>
<path d="M21.8845 85.7085C24.5372 84.9082 27.0061 85.8669 27.7355 88.2845C28.0546 89.3422 27.8748 90.3855 27.2043 91.3204L31.603 89.9934L32.3071 92.3271L20.1015 96.0093L19.4532 93.8603L20.7627 93.4652C19.5981 93.0656 18.7788 92.2321 18.4344 91.0904C17.705 88.6728 19.2487 86.5037 21.8845 85.7085ZM22.6088 88.1093C20.9299 88.6158 20.312 89.8462 20.6564 90.9879C21.0008 92.1295 22.1794 92.8181 23.8751 92.3065C25.5707 91.795 26.1551 90.5746 25.8106 89.433C25.4662 88.2913 24.3213 87.5927 22.6088 88.1093Z" fill="white"/>
<path d="M25.927 78.025C26.1173 80.8244 24.3026 82.8284 21.3807 83.0271C18.5989 83.2162 16.4373 81.4121 16.2542 78.7177C16.0532 75.7609 18.3169 73.6384 21.3909 73.8689L21.8417 80.4998C23.3531 80.2389 24.143 79.447 24.0585 78.2048C23.986 77.1375 23.4124 76.4559 22.466 76.239L22.3019 73.8245C24.4546 74.2055 25.7724 75.7506 25.927 78.025ZM18.0423 78.6489C18.1196 79.7861 18.9032 80.4535 20.2997 80.5695L20.0261 76.5454C18.7362 76.7034 17.9638 77.4942 18.0423 78.6489Z" fill="white"/>
<path d="M21.4699 68.2944L25.9792 68.8374L25.6879 71.2574L16.3906 70.138L16.6589 67.9095L18.4522 68.1254C17.3501 67.3038 16.8102 65.7728 16.9905 64.2755L19.4976 64.5774C19.0936 66.6129 19.4154 68.0471 21.4699 68.2944Z" fill="white"/>
<path d="M16.4012 57.8623C17.1995 58.0675 17.6281 58.8657 17.388 59.7998C17.1523 60.7169 16.3919 61.2096 15.5937 61.0044C14.7614 60.7905 14.3329 59.9924 14.5686 59.0752C14.8087 58.1411 15.569 57.6484 16.4012 57.8623ZM27.4809 61.1082L26.8742 63.469L17.8045 61.1381L18.4113 58.7772L27.4809 61.1082Z" fill="white"/>
<path d="M29.9557 54.6669C28.8304 57.2372 26.2947 58.1754 23.612 57.0009C21.0578 55.8827 19.975 53.2837 21.0581 50.8098C22.2467 48.095 25.2352 47.2593 27.8545 48.8847L25.189 54.973C26.6499 55.4403 27.7164 55.1032 28.2157 53.9626C28.6447 52.9827 28.4511 52.1131 27.7123 51.4833L28.6828 49.2664C30.4156 50.5994 30.87 52.5786 29.9557 54.6669ZM22.6755 51.5754C22.2184 52.6196 22.6047 53.5736 23.7894 54.3219L25.407 50.6272C24.1901 50.171 23.1397 50.5151 22.6755 51.5754Z" fill="white"/>
<path d="M30.1055 43.5328L34.222 46.5487L32.7815 48.515L25.2274 42.9807L26.554 41.17L27.6291 41.9577C27.2835 40.8567 27.3867 39.7367 28.1122 38.7464C29.2211 37.2328 30.9782 36.9114 32.8031 38.2484L37.6835 41.8238L36.2533 43.776L32.0378 40.6876C30.9202 39.8689 29.9765 39.8514 29.3236 40.7426C28.7536 41.5207 28.8889 42.6415 30.1055 43.5328Z" fill="white"/>
<path d="M42.6525 37.2874C40.6239 39.0701 37.9079 38.7955 36.021 36.6484C34.1689 34.5408 34.2634 31.7262 36.2393 29.9898C38.0703 28.3807 40.5153 28.4266 42.4061 30.1267L40.4829 31.8168C39.5688 30.9626 38.4931 30.8807 37.6632 31.61C36.7148 32.4435 36.7918 33.7532 37.8915 35.0046C39.0028 36.2691 40.267 36.5122 41.2286 35.6672C42.0717 34.9263 42.1256 33.8984 41.3859 32.8442L43.3091 31.1541C44.8 33.2757 44.5362 35.632 42.6525 37.2874Z" fill="white"/>
<path d="M51.483 31.0274C49.028 32.3861 46.4437 31.5916 45.0256 29.0293C43.6755 26.5897 44.3935 23.8674 46.7564 22.5597C49.3494 21.1246 52.2312 22.2755 53.3252 25.1575L47.5101 28.3759C48.3869 29.6343 49.439 30.0141 50.5283 29.4112C51.4643 28.8932 51.8386 28.0848 51.634 27.1357L53.7514 25.9639C54.3186 28.0751 53.4776 29.9235 51.483 31.0274ZM47.5765 24.1501C46.5792 24.7021 46.3068 25.6947 46.7935 27.0087L50.3224 25.0556C49.6327 23.9542 48.5892 23.5897 47.5765 24.1501Z" fill="white"/>
<path d="M62.5754 18.5312L61.4729 20.9274L59.8521 20.2218L60.9783 17.928L58.4467 17.7207L58.5753 16.0172L61.191 16.2771L60.5322 13.8916L62.3776 13.4655L62.8313 15.8984L65.0683 14.518L65.9307 15.9927L63.7463 17.2889L65.7641 18.8567L64.6168 20.2015L62.5754 18.5312Z" fill="white"/>
</svg>
