<svg width="29" height="29" viewBox="0 0 29 29" fill="none" xmlns="http://www.w3.org/2000/svg">
<path d="M14.3994 6.45947V9.54519" stroke="white" stroke-width="1.5" stroke-linecap="round" stroke-linejoin="round"/>
<path d="M17.5058 14.7079C18.4761 14.0022 19.2615 13.0726 19.7952 11.9981C20.3288 10.9235 20.595 9.73599 20.571 8.53649C20.6964 6.7637 20.1194 5.01273 18.9647 3.66174C17.81 2.31074 16.1702 1.46814 14.3996 1.31592C12.6306 1.46303 10.9909 2.30126 9.83573 3.64897C8.68055 4.99667 8.10296 6.7453 8.22812 8.51592C8.20411 9.71542 8.47027 10.903 9.00395 11.9775C9.53762 13.052 10.323 13.9817 11.2933 14.6873L4.68984 22.2576C4.53431 22.4457 4.44922 22.6821 4.44922 22.9262C4.44922 23.1703 4.53431 23.4067 4.68984 23.5948L7.50812 27.0919C7.59858 27.2139 7.71649 27.3128 7.85229 27.3807C7.9881 27.4486 8.138 27.4836 8.28984 27.4828C8.44066 27.4843 8.59011 27.454 8.72838 27.3937C8.86665 27.3334 8.99061 27.2446 9.09212 27.1331C11.09 24.8735 12.8672 22.4281 14.3996 19.8302C15.9449 22.4298 17.736 24.8753 19.7481 27.1331C19.8496 27.2446 19.9736 27.3334 20.1119 27.3937C20.2501 27.454 20.3996 27.4843 20.5504 27.4828C20.7022 27.4836 20.8521 27.4486 20.9879 27.3807C21.1238 27.3128 21.2417 27.2139 21.3321 27.0919L24.1504 23.5948C24.3044 23.41 24.3886 23.177 24.3886 22.9365C24.3886 22.696 24.3044 22.463 24.1504 22.2782L17.5058 14.7079Z" stroke="white" stroke-width="1.5" stroke-linecap="round" stroke-linejoin="round"/>
</svg>
