<svg width="40" height="40" viewBox="0 0 40 40" fill="none" xmlns="http://www.w3.org/2000/svg">
<g clip-path="url(#clip0_283_10851)">
<path d="M4.28585 17.1426H7.143C7.52188 17.1426 7.88524 17.2931 8.15315 17.561C8.42106 17.8289 8.57157 18.1923 8.57157 18.5711V25.714C8.57157 26.0929 8.42106 26.4563 8.15315 26.7242C7.88524 26.9921 7.52188 27.1426 7.143 27.1426H4.28585C3.52809 27.1426 2.80137 26.8416 2.26555 26.3057C1.72973 25.7699 1.42871 25.0432 1.42871 24.2854V19.9997C1.42871 19.242 1.72973 18.5152 2.26555 17.9794C2.80137 17.4436 3.52809 17.1426 4.28585 17.1426V17.1426Z" stroke="#00A8BC" stroke-width="1.5" stroke-linecap="round" stroke-linejoin="round"/>
<path d="M35.7141 27.1426H32.857C32.4781 27.1426 32.1148 26.9921 31.8468 26.7242C31.5789 26.4562 31.4284 26.0929 31.4284 25.714V18.5711C31.4284 18.1923 31.5789 17.8289 31.8468 17.561C32.1148 17.2931 32.4781 17.1426 32.857 17.1426H35.7141C36.4719 17.1426 37.1986 17.4436 37.7345 17.9794C38.2703 18.5152 38.5713 19.242 38.5713 19.9997V24.2854C38.5713 25.0432 38.2703 25.7699 37.7345 26.3057C37.1986 26.8416 36.4719 27.1426 35.7141 27.1426V27.1426Z" stroke="#00A8BC" stroke-width="1.5" stroke-linecap="round" stroke-linejoin="round"/>
<path d="M27.1426 34.9997C28.6581 34.9997 30.1116 34.3977 31.1832 33.326C32.2548 32.2544 32.8569 30.801 32.8569 29.2854V27.1426" stroke="#00A8BC" stroke-width="1.5" stroke-linecap="round" stroke-linejoin="round"/>
<path d="M23.572 31.4277C24.5192 31.4277 25.4276 31.804 26.0974 32.4738C26.7671 33.1436 27.1434 34.052 27.1434 34.9992C27.1434 35.9464 26.7671 36.8548 26.0974 37.5245C25.4276 38.1943 24.5192 38.5706 23.572 38.5706H19.2863C18.3391 38.5706 17.4307 38.1943 16.7609 37.5245C16.0911 36.8548 15.7148 35.9464 15.7148 34.9992C15.7148 34.052 16.0911 33.1436 16.7609 32.4738C17.4307 31.804 18.3391 31.4277 19.2863 31.4277H23.572Z" stroke="#00A8BC" stroke-width="1.5" stroke-linecap="round" stroke-linejoin="round"/>
<path d="M7.14258 17.142V14.2849C7.14258 10.875 8.49717 7.60469 10.9083 5.1935C13.3195 2.78232 16.5898 1.42773 19.9997 1.42773C23.4096 1.42773 26.6799 2.78232 29.0911 5.1935C31.5023 7.60469 32.8569 10.875 32.8569 14.2849V17.142" stroke="#00A8BC" stroke-width="1.5" stroke-linecap="round" stroke-linejoin="round"/>
<path d="M15.7148 11.4277V15.7134" stroke="#00A8BC" stroke-width="1.5" stroke-linecap="round" stroke-linejoin="round"/>
<path d="M24.2861 11.4277V15.7134" stroke="#00A8BC" stroke-width="1.5" stroke-linecap="round" stroke-linejoin="round"/>
<path d="M15.7148 21.4277C15.7148 25.2277 24.2863 25.2277 24.2863 21.4277" stroke="#00A8BC" stroke-width="1.5" stroke-linecap="round" stroke-linejoin="round"/>
</g>
<defs>
<clipPath id="clip0_283_10851">
<rect width="40" height="40" fill="white"/>
</clipPath>
</defs>
</svg>
