<svg width="24" height="24" viewBox="0 0 24 24" fill="none" xmlns="http://www.w3.org/2000/svg">
<g clip-path="url(#clip0_98_46400)">
<path d="M15.1032 20.6917C14.3288 21.4661 13.4094 22.0804 12.3975 22.4996C11.3857 22.9187 10.3012 23.1344 9.20603 23.1344C6.99417 23.1344 4.87291 22.2557 3.30889 20.6917C1.74487 19.1277 0.866211 17.0064 0.866211 14.7946C0.866211 12.5827 1.74487 10.4614 3.30889 8.89742L11.3489 0.857422L15.1032 4.61171L7.73174 12.0003C7.25791 12.5829 7.01694 13.3205 7.05544 14.0704C7.09394 14.8204 7.40917 15.5294 7.94017 16.0604C8.47117 16.5914 9.18021 16.9067 9.93018 16.9452C10.6801 16.9837 11.4177 16.7427 12.0003 16.2689L19.3717 8.89742L23.1432 12.6517L15.1032 20.6917Z" stroke="white" stroke-width="1.5" stroke-linecap="round" stroke-linejoin="round"/>
<path d="M15.7549 12.5312L19.5092 16.2855" stroke="white" stroke-width="1.5" stroke-linecap="round" stroke-linejoin="round"/>
<path d="M7.71484 4.49219L11.4691 8.24647" stroke="white" stroke-width="1.5" stroke-linecap="round" stroke-linejoin="round"/>
</g>
<defs>
<clipPath id="clip0_98_46400">
<rect width="24" height="24" fill="white"/>
</clipPath>
</defs>
</svg>
