<svg width="24" height="24" viewBox="0 0 24 24" fill="none" xmlns="http://www.w3.org/2000/svg">
<path d="M15.4286 0.857422V11.1431L21.5829 18.9774C21.8827 19.3568 22.0694 19.813 22.1217 20.2937C22.174 20.7743 22.0897 21.26 21.8785 21.695C21.6673 22.1299 21.3377 22.4965 20.9276 22.7526C20.5175 23.0088 20.0435 23.1441 19.56 23.1431H4.44003C3.95651 23.1441 3.48252 23.0088 3.07243 22.7526C2.66235 22.4965 2.33279 22.1299 2.12158 21.695C1.91038 21.26 1.82608 20.7743 1.87836 20.2937C1.93064 19.813 2.11739 19.3568 2.41717 18.9774L8.57145 11.1431V0.857422" stroke="white" stroke-width="1.5" stroke-linecap="round" stroke-linejoin="round"/>
<path d="M6 0.857422H18" stroke="white" stroke-width="1.5" stroke-linecap="round" stroke-linejoin="round"/>
</svg>
