<svg width="24" height="24" viewBox="0 0 24 24" fill="none" xmlns="http://www.w3.org/2000/svg">
<g clip-path="url(#clip0_283_5493)">
<path d="M21.4287 2.57129L15.583 8.417" stroke="white" stroke-width="1.5" stroke-linecap="round" stroke-linejoin="round"/>
<path d="M2.57129 2.57129L8.417 8.417" stroke="white" stroke-width="1.5" stroke-linecap="round" stroke-linejoin="round"/>
<path d="M2.57129 21.4287L8.417 15.583" stroke="white" stroke-width="1.5" stroke-linecap="round" stroke-linejoin="round"/>
<path d="M21.4287 21.4288L15.583 15.5831" stroke="white" stroke-width="1.5" stroke-linecap="round" stroke-linejoin="round"/>
<path d="M12.0003 23.1431C18.1543 23.1431 23.1431 18.1543 23.1431 12.0003C23.1431 5.84625 18.1543 0.857422 12.0003 0.857422C5.84625 0.857422 0.857422 5.84625 0.857422 12.0003C0.857422 18.1543 5.84625 23.1431 12.0003 23.1431Z" stroke="white" stroke-width="1.5" stroke-linecap="round" stroke-linejoin="round"/>
<path d="M12.0005 17.0574C14.7935 17.0574 17.0576 14.7933 17.0576 12.0003C17.0576 9.20731 14.7935 6.94315 12.0005 6.94315C9.20752 6.94315 6.94336 9.20731 6.94336 12.0003C6.94336 14.7933 9.20752 17.0574 12.0005 17.0574Z" stroke="white" stroke-width="1.5" stroke-linecap="round" stroke-linejoin="round"/>
</g>
<defs>
<clipPath id="clip0_283_5493">
<rect width="24" height="24" fill="white"/>
</clipPath>
</defs>
</svg>
