<svg width="24" height="24" viewBox="0 0 24 24" fill="none" xmlns="http://www.w3.org/2000/svg">
<g clip-path="url(#clip0_98_40454)">
<path d="M14.5717 8.57213C15.5185 8.57213 16.286 7.80461 16.286 6.85784C16.286 5.91107 15.5185 5.14355 14.5717 5.14355C13.6249 5.14355 12.8574 5.91107 12.8574 6.85784C12.8574 7.80461 13.6249 8.57213 14.5717 8.57213Z" stroke="white" stroke-width="1.5" stroke-linecap="round" stroke-linejoin="round"/>
<path d="M7.71456 17.143C8.18795 17.143 8.57171 16.7592 8.57171 16.2859C8.57171 15.8125 8.18795 15.4287 7.71456 15.4287C7.24118 15.4287 6.85742 15.8125 6.85742 16.2859C6.85742 16.7592 7.24118 17.143 7.71456 17.143Z" stroke="white" stroke-width="1.5" stroke-linecap="round" stroke-linejoin="round"/>
<path d="M7.71429 11.1434C8.66106 11.1434 9.42857 10.3759 9.42857 9.42913C9.42857 8.48236 8.66106 7.71484 7.71429 7.71484C6.76751 7.71484 6 8.48236 6 9.42913C6 10.3759 6.76751 11.1434 7.71429 11.1434Z" stroke="white" stroke-width="1.5" stroke-linecap="round" stroke-linejoin="round"/>
<path d="M16.32 21.0517C16.3009 20.7192 16.1853 20.3994 15.9874 20.1315C15.7895 19.8636 15.5179 19.6592 15.2057 19.5431C14.4303 19.2883 13.7713 18.7652 13.3471 18.0679C12.9229 17.3707 12.7614 16.5449 12.8915 15.7392C13.0217 14.9335 13.435 14.2006 14.0571 13.6724C14.6793 13.1441 15.4695 12.8552 16.2857 12.8574H19.4914C20.0412 12.859 20.5833 12.7282 21.072 12.4763C21.5607 12.2243 21.9817 11.8585 22.2993 11.4098C22.617 10.961 22.8221 10.4424 22.8973 9.89775C22.9725 9.35309 22.9156 8.79834 22.7314 8.28028C22.0495 6.35509 20.8517 4.65432 19.2687 3.36379C17.6857 2.07326 15.7785 1.24263 13.7554 0.962635C11.7323 0.682641 9.67121 0.964059 7.79722 1.77614C5.92324 2.58823 4.3085 3.89974 3.12941 5.56738C1.95033 7.23503 1.25226 9.19466 1.11147 11.2322C0.970684 13.2697 1.3926 15.3067 2.33111 17.1207C3.26963 18.9346 4.68864 20.4558 6.43312 21.5179C8.1776 22.58 10.1804 23.1422 12.2228 23.1431C13.2314 23.146 14.2355 23.0075 15.2057 22.7317C15.562 22.6319 15.8706 22.4073 16.0751 22.0989C16.2797 21.7905 16.3666 21.4188 16.32 21.0517V21.0517Z" stroke="white" stroke-width="1.5" stroke-linecap="round" stroke-linejoin="round"/>
</g>
<defs>
<clipPath id="clip0_98_40454">
<rect width="24" height="24" fill="white"/>
</clipPath>
</defs>
</svg>
