<svg width="24" height="24" viewBox="0 0 24 24" fill="none" xmlns="http://www.w3.org/2000/svg">
<g clip-path="url(#clip0_98_46330)">
<path d="M5.57171 10.286C8.17534 10.286 10.286 8.17534 10.286 5.57171C10.286 2.96808 8.17534 0.857422 5.57171 0.857422C2.96808 0.857422 0.857422 2.96808 0.857422 5.57171C0.857422 8.17534 2.96808 10.286 5.57171 10.286Z" stroke="white" stroke-width="1.5" stroke-linecap="round" stroke-linejoin="round"/>
<path d="M18.4291 10.286C21.0328 10.286 23.1434 8.17534 23.1434 5.57171C23.1434 2.96808 21.0328 0.857422 18.4291 0.857422C15.8255 0.857422 13.7148 2.96808 13.7148 5.57171C13.7148 8.17534 15.8255 10.286 18.4291 10.286Z" stroke="white" stroke-width="1.5" stroke-linecap="round" stroke-linejoin="round"/>
<path d="M5.57171 23.1434C8.17534 23.1434 10.286 21.0328 10.286 18.4291C10.286 15.8255 8.17534 13.7148 5.57171 13.7148C2.96808 13.7148 0.857422 15.8255 0.857422 18.4291C0.857422 21.0328 2.96808 23.1434 5.57171 23.1434Z" stroke="white" stroke-width="1.5" stroke-linecap="round" stroke-linejoin="round"/>
<path d="M18.4291 23.1434C21.0328 23.1434 23.1434 21.0328 23.1434 18.4291C23.1434 15.8255 21.0328 13.7148 18.4291 13.7148C15.8255 13.7148 13.7148 15.8255 13.7148 18.4291C13.7148 21.0328 15.8255 23.1434 18.4291 23.1434Z" stroke="white" stroke-width="1.5" stroke-linecap="round" stroke-linejoin="round"/>
</g>
<defs>
<clipPath id="clip0_98_46330">
<rect width="24" height="24" fill="white"/>
</clipPath>
</defs>
</svg>
