<svg width="24" height="24" viewBox="0 0 24 24" fill="none" xmlns="http://www.w3.org/2000/svg">
<path d="M12 22.9539C13.1256 22.9539 14.2402 22.7322 15.2801 22.3015C16.3201 21.8707 17.265 21.2393 18.0609 20.4434C18.8568 19.6475 19.4882 18.7026 19.919 17.6626C20.3497 16.6227 20.5714 15.5081 20.5714 14.3825V9.61677C20.5715 7.51109 19.7966 5.47904 18.3943 3.9082" stroke="white" stroke-width="1.5" stroke-linecap="round" stroke-linejoin="round"/>
<path d="M3.42871 11.5195V14.3824C3.42814 16.0697 3.9256 17.7197 4.85876 19.1256C5.79192 20.5314 7.11926 21.6306 8.67443 22.2852" stroke="white" stroke-width="1.5" stroke-linecap="round" stroke-linejoin="round"/>
<path d="M16.2863 2.19423C14.3176 1.05764 11.9781 0.749632 9.78231 1.33796C7.58654 1.92628 5.71441 3.36275 4.57773 5.33138C4.10969 6.13971 3.77946 7.02032 3.60059 7.93709" stroke="white" stroke-width="1.5" stroke-linecap="round" stroke-linejoin="round"/>
<path d="M11.1084 6.01757C11.7389 5.88667 12.3908 5.89896 13.0159 6.05353C13.641 6.20811 14.2235 6.50102 14.7203 6.91067C15.2172 7.32033 15.6157 7.83628 15.8866 8.42048C16.1575 9.00468 16.2939 9.64224 16.2855 10.2861V13.0461" stroke="white" stroke-width="1.5" stroke-linecap="round" stroke-linejoin="round"/>
<path d="M15.1887 16.6456C14.6054 17.2953 13.8376 17.7514 12.988 17.9527C12.1384 18.1541 11.2476 18.0912 10.4348 17.7724C9.62192 17.4536 8.92584 16.8941 8.43968 16.1689C7.95352 15.4436 7.70048 14.5872 7.71441 13.7141V10.2856C7.71115 9.6968 7.82781 9.11352 8.05727 8.57129" stroke="white" stroke-width="1.5" stroke-linecap="round" stroke-linejoin="round"/>
<path d="M12 10.4746V13.3375" stroke="white" stroke-width="1.5" stroke-linecap="round" stroke-linejoin="round"/>
</svg>
