<svg width="54" height="54" viewBox="0 0 54 54" fill="none" xmlns="http://www.w3.org/2000/svg">
<g clip-path="url(#clip0_604_53)">
<path d="M11.9675 32.632L10.0879 39.649L3.21775 39.7943C1.16459 35.9862 0 31.6292 0 26.9991C0 22.5218 1.08886 18.2997 3.01894 14.582H3.02041L9.13676 15.7034L11.8161 21.783C11.2553 23.4179 10.9497 25.1729 10.9497 26.9991C10.9499 28.981 11.3089 30.88 11.9675 32.632Z" fill="#FBBB00"/>
<path d="M53.5284 21.957C53.8385 23.5903 54.0002 25.2771 54.0002 27.001C54.0002 28.934 53.7969 30.8196 53.4098 32.6384C52.0954 38.8276 48.661 44.232 43.9034 48.0565L43.902 48.0551L36.1981 47.662L35.1078 40.8556C38.2647 39.0042 40.7318 36.1068 42.0314 32.6384H27.5938V21.957H42.242H53.5284Z" fill="#518EF8"/>
<path d="M43.9017 48.0539L43.9032 48.0554C39.2762 51.7745 33.3984 53.9998 27 53.9998C16.7178 53.9998 7.77814 48.2527 3.21777 39.7952L11.9676 32.6328C14.2477 38.7181 20.118 43.0501 27 43.0501C29.9581 43.0501 32.7294 42.2504 35.1074 40.8544L43.9017 48.0539Z" fill="#28B446"/>
<path d="M44.2336 6.21591L35.4868 13.3768C33.0257 11.8384 30.1164 10.9498 26.9996 10.9498C19.9618 10.9498 13.9817 15.4804 11.8158 21.7839L3.02003 14.583H3.01855C7.51216 5.91922 16.5645 0 26.9996 0C33.5508 0 39.5576 2.3336 44.2336 6.21591Z" fill="#F14336"/>
</g>
<defs>
<clipPath id="clip0_604_53">
<rect width="54" height="54" fill="white"/>
</clipPath>
</defs>
</svg>
