<svg width="28" height="28" viewBox="0 0 28 28" fill="none" xmlns="http://www.w3.org/2000/svg">
<path d="M18 1V13L25.18 22.14C25.5298 22.5826 25.7476 23.1148 25.8086 23.6756C25.8696 24.2364 25.7713 24.803 25.5249 25.3105C25.2785 25.8179 24.894 26.2456 24.4156 26.5444C23.9371 26.8433 23.3841 27.0012 22.82 27H5.18003C4.61593 27.0012 4.06294 26.8433 3.5845 26.5444C3.10607 26.2456 2.72159 25.8179 2.47518 25.3105C2.22877 24.803 2.13042 24.2364 2.19142 23.6756C2.25242 23.1148 2.47029 22.5826 2.82003 22.14L10 13V1" stroke="white" stroke-width="1.5" stroke-linecap="round" stroke-linejoin="round"/>
<path d="M7 1H21" stroke="white" stroke-width="1.5" stroke-linecap="round" stroke-linejoin="round"/>
</svg>
