<svg width="28" height="28" viewBox="0 0 28 28" fill="none" xmlns="http://www.w3.org/2000/svg">
<g clip-path="url(#clip0_497_120)">
<path d="M13.7402 19C18.7108 19 22.7402 14.9706 22.7402 10C22.7402 5.02944 18.7108 1 13.7402 1C8.76967 1 4.74023 5.02944 4.74023 10C4.74023 14.9706 8.76967 19 13.7402 19Z" stroke="white" stroke-width="1.5" stroke-linecap="round" stroke-linejoin="round"/>
<path d="M13.7402 14C15.9494 14 17.7402 12.2091 17.7402 10C17.7402 7.79086 15.9494 6 13.7402 6C11.5311 6 9.74023 7.79086 9.74023 10C9.74023 12.2091 11.5311 14 13.7402 14Z" stroke="white" stroke-width="1.5" stroke-linecap="round" stroke-linejoin="round"/>
<path d="M12.0008 18.84L10.2408 26.24C10.2059 26.3806 10.1415 26.5122 10.0519 26.626C9.96222 26.7398 9.84934 26.8332 9.72077 26.9C9.58506 26.9589 9.4387 26.9893 9.29077 26.9893C9.14283 26.9893 8.99647 26.9589 8.86077 26.9L2.22077 24C2.08149 23.9342 1.95894 23.8376 1.86231 23.7176C1.76568 23.5976 1.69748 23.4573 1.66284 23.3072C1.6282 23.1571 1.62801 23.0011 1.66229 22.8509C1.69657 22.7007 1.76443 22.5602 1.86077 22.44L7.00077 16" stroke="white" stroke-width="1.5" stroke-linecap="round" stroke-linejoin="round"/>
<path d="M16 18.74L17.8 26.24C17.8358 26.383 17.9028 26.5163 17.9961 26.6304C18.0895 26.7445 18.2069 26.8366 18.34 26.9C18.472 26.9596 18.6152 26.9905 18.76 26.9905C18.9048 26.9905 19.048 26.9596 19.18 26.9L25.78 24C25.9214 23.9349 26.0456 23.8378 26.1428 23.7163C26.24 23.5947 26.3076 23.4522 26.34 23.3C26.3779 23.1511 26.3795 22.9953 26.3447 22.8456C26.3099 22.696 26.2397 22.5569 26.14 22.44L20.78 15.62" stroke="white" stroke-width="1.5" stroke-linecap="round" stroke-linejoin="round"/>
</g>
<defs>
<clipPath id="clip0_497_120">
<rect width="28" height="28" fill="white"/>
</clipPath>
</defs>
</svg>
