<svg width="40" height="40" viewBox="0 0 40 40" fill="none" xmlns="http://www.w3.org/2000/svg">
<path d="M25.7143 1.42773V18.5706L35.9715 31.6277C36.4711 32.26 36.7823 33.0203 36.8695 33.8215C36.9566 34.6226 36.8161 35.4321 36.4641 36.157C36.1121 36.8819 35.5628 37.4928 34.8794 37.9198C34.1959 38.3467 33.4059 38.5723 32.6 38.5706H7.40004C6.59419 38.5723 5.8042 38.3467 5.12072 37.9198C4.43724 37.4928 3.88798 36.8819 3.53597 36.157C3.18396 35.4321 3.04346 34.6226 3.1306 33.8215C3.21774 33.0203 3.52898 32.26 4.02861 31.6277L14.2858 18.5706V1.42773" stroke="#00A8BC" stroke-width="1.5" stroke-linecap="round" stroke-linejoin="round"/>
<path d="M10 1.42773H30" stroke="#00A8BC" stroke-width="1.5" stroke-linecap="round" stroke-linejoin="round"/>
</svg>
