<svg width="28" height="28" viewBox="0 0 28 28" fill="none" xmlns="http://www.w3.org/2000/svg">
<path d="M21.2799 3.08081H6.71994C6.38427 3.09003 6.05547 3.17811 5.76015 3.33793C5.46482 3.49776 5.21125 3.72484 5.01994 4.00081L1.37994 9.04081C1.10965 9.42276 0.97467 9.88404 0.99641 10.3514C1.01815 10.8188 1.19537 11.2656 1.49994 11.6208L12.4199 24.2008C12.6069 24.4417 12.8464 24.6367 13.1203 24.7708C13.3941 24.9049 13.695 24.9746 13.9999 24.9746C14.3049 24.9746 14.6057 24.9049 14.8796 24.7708C15.1534 24.6367 15.393 24.4417 15.5799 24.2008L26.4999 11.6208C26.8045 11.2656 26.9817 10.8188 27.0035 10.3514C27.0252 9.88404 26.8902 9.42276 26.6199 9.04081L22.9799 4.00081C22.7886 3.72484 22.5351 3.49776 22.2397 3.33793C21.9444 3.17811 21.6156 3.09003 21.2799 3.08081V3.08081Z" stroke="white" stroke-width="1.5" stroke-linecap="round" stroke-linejoin="round"/>
<path d="M12.9601 3.0603L8.08008 10.6203L14.0001 24.9203" stroke="white" stroke-width="1.5" stroke-linecap="round" stroke-linejoin="round"/>
<path d="M15.1 3.0603L19.96 10.6203L14 24.9203" stroke="white" stroke-width="1.5" stroke-linecap="round" stroke-linejoin="round"/>
<path d="M1.03906 10.6208H26.9591" stroke="white" stroke-width="1.5" stroke-linecap="round" stroke-linejoin="round"/>
</svg>
