<svg width="30" height="30" viewBox="0 0 30 30" fill="none" xmlns="http://www.w3.org/2000/svg">
<g clip-path="url(#clip0_222_407)">
<path d="M22.4999 17.1433C22.505 15.806 22.1523 14.4917 21.4785 13.3365C20.8048 12.1813 19.8344 11.2273 18.6679 10.5733C17.5014 9.91931 16.1813 9.58908 14.8443 9.61685C13.5072 9.64462 12.202 10.0294 11.0636 10.7313C9.92533 11.4332 8.99539 12.4266 8.37016 13.6088C7.74493 14.7909 7.44716 16.1188 7.50769 17.4547C7.56822 18.7906 7.98485 20.0861 8.71442 21.2069C9.444 22.3276 10.46 23.233 11.6571 23.829V27.5147C11.6627 27.7326 11.7532 27.9397 11.9093 28.0919C12.0654 28.244 12.2748 28.3291 12.4928 28.329H17.5071C17.7251 28.3291 17.9345 28.244 18.0906 28.0919C18.2467 27.9397 18.3372 27.7326 18.3428 27.5147V23.7647C19.5776 23.1501 20.619 22.2067 21.3524 21.0386C22.0858 19.8704 22.4829 18.5225 22.4999 17.1433V17.1433Z" stroke="white" stroke-width="1.5" stroke-linecap="round" stroke-linejoin="round"/>
<path d="M15 1.73633V4.95061" stroke="white" stroke-width="1.5" stroke-linecap="round" stroke-linejoin="round"/>
<path d="M23.5712 4.80078L21.2998 7.09364" stroke="white" stroke-width="1.5" stroke-linecap="round" stroke-linejoin="round"/>
<path d="M28.4574 11.4434H25.2432" stroke="white" stroke-width="1.5" stroke-linecap="round" stroke-linejoin="round"/>
<path d="M6.42871 4.80078L8.70014 7.09364" stroke="white" stroke-width="1.5" stroke-linecap="round" stroke-linejoin="round"/>
<path d="M1.54297 11.4434H4.75725" stroke="white" stroke-width="1.5" stroke-linecap="round" stroke-linejoin="round"/>
</g>
<defs>
<clipPath id="clip0_222_407">
<rect width="30" height="30" fill="white"/>
</clipPath>
</defs>
</svg>
