<svg width="24" height="24" viewBox="0 0 24 24" fill="none" xmlns="http://www.w3.org/2000/svg">
<path d="M12 22.9559C13.1256 22.9559 14.2402 22.7342 15.2801 22.3034C16.3201 21.8727 17.265 21.2413 18.0609 20.4454C18.8568 19.6494 19.4882 18.7045 19.919 17.6646C20.3497 16.6247 20.5714 15.5101 20.5714 14.3844V9.61873C20.5715 7.51305 19.7966 5.481 18.3943 3.91016" stroke="white" stroke-width="1.5" stroke-linecap="round" stroke-linejoin="round"/>
<path d="M3.42871 11.5215V14.3843C3.42814 16.0717 3.9256 17.7217 4.85876 19.1275C5.79192 20.5334 7.11926 21.6325 8.67443 22.2872" stroke="white" stroke-width="1.5" stroke-linecap="round" stroke-linejoin="round"/>
<path d="M16.2863 2.19521C14.3176 1.05862 11.9781 0.750609 9.78231 1.33893C7.58654 1.92726 5.71441 3.36373 4.57773 5.33235C4.10969 6.14069 3.77946 7.0213 3.60059 7.93807" stroke="white" stroke-width="1.5" stroke-linecap="round" stroke-linejoin="round"/>
<path d="M11.1084 6.01757C11.7389 5.88667 12.3908 5.89896 13.0159 6.05353C13.641 6.20811 14.2235 6.50102 14.7203 6.91067C15.2172 7.32033 15.6157 7.83628 15.8866 8.42048C16.1575 9.00468 16.2939 9.64224 16.2855 10.2861V13.0461" stroke="white" stroke-width="1.5" stroke-linecap="round" stroke-linejoin="round"/>
<path d="M15.1887 16.6466C14.6054 17.2963 13.8376 17.7523 12.988 17.9537C12.1384 18.1551 11.2476 18.0922 10.4348 17.7734C9.62192 17.4546 8.92584 16.8951 8.43968 16.1698C7.95352 15.4446 7.70048 14.5881 7.71441 13.7151V10.2866C7.71115 9.69777 7.82781 9.1145 8.05727 8.57227" stroke="white" stroke-width="1.5" stroke-linecap="round" stroke-linejoin="round"/>
<path d="M12 10.4746V13.3375" stroke="white" stroke-width="1.5" stroke-linecap="round" stroke-linejoin="round"/>
</svg>
