<svg width="28" height="28" viewBox="0 0 28 28" fill="none" xmlns="http://www.w3.org/2000/svg">
<g clip-path="url(#clip0_283_148)">
<path d="M20.2002 7.80005C22.3603 8.72311 24.7896 8.79456 27.0002 8.00005" stroke="white" stroke-width="1.5" stroke-linecap="round" stroke-linejoin="round"/>
<path d="M8.00001 27C8.79379 24.7825 8.72238 22.3472 7.80001 20.18C7.07804 18.4544 6.88271 16.5538 7.2386 14.7174C7.59448 12.881 8.48568 11.191 9.80001 9.86001C11.1473 8.5266 12.8593 7.62192 14.72 7.26001" stroke="white" stroke-width="1.5" stroke-linecap="round" stroke-linejoin="round"/>
<path d="M13.2002 20.74C15.07 20.3751 16.7893 19.4632 18.1402 18.12C19.4568 16.7905 20.3496 15.1003 20.7056 13.2634C21.0616 11.4264 20.8648 9.52513 20.1402 7.8C19.2366 5.63231 19.1866 3.20304 20.0002 1" stroke="white" stroke-width="1.5" stroke-linecap="round" stroke-linejoin="round"/>
<path d="M1 19.9996C3.21151 19.2013 5.64472 19.2801 7.8 20.2196" stroke="white" stroke-width="1.5" stroke-linecap="round" stroke-linejoin="round"/>
<path d="M9.87988 9.86035L18.1399 18.1204" stroke="white" stroke-width="1.5" stroke-linecap="round" stroke-linejoin="round"/>
</g>
<defs>
<clipPath id="clip0_283_148">
<rect width="28" height="28" fill="white"/>
</clipPath>
</defs>
</svg>
