<svg width="24" height="24" viewBox="0 0 24 24" fill="none" xmlns="http://www.w3.org/2000/svg">
<path d="M12 5.38281V7.95424" stroke="white" stroke-width="1.5" stroke-linecap="round" stroke-linejoin="round"/>
<path d="M14.5885 12.2567C15.3971 11.6686 16.0516 10.8939 16.4963 9.99846C16.941 9.10303 17.1628 8.11341 17.1428 7.11382C17.2473 5.6365 16.7665 4.17736 15.8042 3.05153C14.842 1.9257 13.4755 1.22354 12 1.09668C10.5258 1.21927 9.15941 1.9178 8.19676 3.04089C7.23411 4.16398 6.75279 5.62116 6.85709 7.09668C6.83709 8.09627 7.05889 9.08589 7.50362 9.98132C7.94834 10.8767 8.60283 11.6515 9.41138 12.2395L3.90852 18.5481C3.77892 18.7048 3.70801 18.9019 3.70801 19.1053C3.70801 19.3086 3.77892 19.5057 3.90852 19.6624L6.25709 22.5767C6.33247 22.6783 6.43073 22.7608 6.5439 22.8173C6.65708 22.8739 6.78199 22.9031 6.90852 22.9024C7.03421 22.9037 7.15875 22.8784 7.27398 22.8282C7.3892 22.778 7.4925 22.7039 7.57709 22.611C9.24198 20.728 10.723 18.6902 12 16.5253C13.2878 18.6916 14.7803 20.7295 16.4571 22.611C16.5417 22.7039 16.645 22.778 16.7602 22.8282C16.8754 22.8784 17 22.9037 17.1257 22.9024C17.2522 22.9031 17.3771 22.8739 17.4903 22.8173C17.6035 22.7608 17.7017 22.6783 17.7771 22.5767L20.1257 19.6624C20.254 19.5084 20.3242 19.3143 20.3242 19.1138C20.3242 18.9134 20.254 18.7193 20.1257 18.5652L14.5885 12.2567Z" stroke="white" stroke-width="1.5" stroke-linecap="round" stroke-linejoin="round"/>
</svg>
