<svg width="24" height="24" viewBox="0 0 24 24" fill="none" xmlns="http://www.w3.org/2000/svg">
<g clip-path="url(#clip0_98_51621)">
<path d="M18.9677 14.8676C18.4763 14.356 17.8837 14.0825 17.2556 14.0825C16.6326 14.0825 16.0348 14.3509 15.5232 14.8625L13.9226 16.4581C13.7909 16.3872 13.6592 16.3214 13.5326 16.2555C13.3502 16.1643 13.178 16.0782 13.0311 15.9871C11.5317 15.0348 10.1691 13.7937 8.86229 12.188C8.22911 11.3877 7.80362 10.714 7.49464 10.0302C7.91 9.65028 8.29496 9.25518 8.6698 8.87528C8.81163 8.73345 8.95346 8.58655 9.09529 8.44472C10.159 7.381 10.159 6.00322 9.09529 4.93949L7.71245 3.55665C7.55542 3.39962 7.39333 3.23753 7.24137 3.07544C6.93745 2.76139 6.61833 2.4372 6.28908 2.13328C5.79774 1.64701 5.21016 1.38867 4.59218 1.38867C3.97421 1.38867 3.3765 1.64701 2.86996 2.13328C2.86489 2.13835 2.86489 2.13835 2.85983 2.14341L1.13761 3.88083C0.489239 4.5292 0.119467 5.31939 0.0384213 6.23623C-0.0831474 7.71531 0.352474 9.09309 0.686788 9.99473C1.50738 12.2083 2.7332 14.2598 4.56179 16.4581C6.78042 19.1073 9.44987 21.1993 12.4992 22.6733C13.6643 23.2255 15.2193 23.8789 16.9567 23.9903C17.0631 23.9954 17.1745 24.0005 17.2759 24.0005C18.446 24.0005 19.4286 23.58 20.1986 22.7442C20.2036 22.7341 20.2138 22.7291 20.2188 22.7189C20.4822 22.3998 20.7862 22.1111 21.1053 21.8021C21.3231 21.5944 21.546 21.3766 21.7638 21.1487C22.2652 20.6269 22.5286 20.0191 22.5286 19.396C22.5286 18.7679 22.2602 18.1652 21.7486 17.6586L18.9677 14.8676ZM20.7811 20.2014C20.776 20.2014 20.776 20.2065 20.7811 20.2014C20.5835 20.4142 20.3809 20.6067 20.1631 20.8194C19.8339 21.1335 19.4995 21.4627 19.1855 21.8325C18.6739 22.3795 18.0711 22.6379 17.2809 22.6379C17.2049 22.6379 17.1239 22.6379 17.0479 22.6328C15.5435 22.5366 14.1455 21.949 13.0969 21.4475C10.2299 20.0596 7.71245 18.0892 5.62045 15.592C3.89316 13.5101 2.73826 11.5852 1.97339 9.51858C1.50231 8.25731 1.33009 7.27463 1.40607 6.34766C1.45672 5.75502 1.68466 5.26368 2.10509 4.84325L3.83238 3.11596C4.08058 2.88295 4.34398 2.75632 4.60231 2.75632C4.92143 2.75632 5.17977 2.9488 5.34186 3.1109C5.34692 3.11596 5.35199 3.12103 5.35705 3.12609C5.66604 3.41482 5.95983 3.71367 6.26882 4.03279C6.42585 4.19488 6.58794 4.35698 6.75003 4.52413L8.13287 5.90698C8.6698 6.44391 8.6698 6.94031 8.13287 7.47724C7.98598 7.62414 7.84415 7.77103 7.69725 7.91286C7.27176 8.34848 6.86653 8.75371 6.42585 9.14881C6.41571 9.15894 6.40558 9.16401 6.40052 9.17414C5.9649 9.60976 6.04594 10.0352 6.13712 10.324C6.14219 10.3392 6.14725 10.3544 6.15232 10.3696C6.51196 11.2408 7.01849 12.0614 7.78843 13.039L7.79349 13.0441C9.19153 14.7663 10.6656 16.1086 12.2915 17.1369C12.4992 17.2686 12.712 17.375 12.9146 17.4763C13.0969 17.5674 13.2692 17.6536 13.416 17.7447C13.4363 17.7549 13.4566 17.7701 13.4768 17.7802C13.6491 17.8663 13.8111 17.9068 13.9783 17.9068C14.3987 17.9068 14.6621 17.6434 14.7482 17.5573L16.4806 15.825C16.6528 15.6527 16.9263 15.4451 17.2455 15.4451C17.5595 15.4451 17.8178 15.6426 17.9749 15.8148C17.9799 15.8199 17.9799 15.8199 17.985 15.825L20.776 18.616C21.2978 19.1326 21.2978 19.6645 20.7811 20.2014Z" fill="white"/>
<path d="M12.9701 5.7081C14.2972 5.93098 15.5028 6.55909 16.4652 7.5215C17.4276 8.48392 18.0507 9.68948 18.2786 11.0166C18.3343 11.3509 18.623 11.5839 18.9523 11.5839C18.9928 11.5839 19.0283 11.5789 19.0688 11.5738C19.4436 11.513 19.6918 11.1584 19.6311 10.7836C19.3575 9.17788 18.5977 7.71399 17.4378 6.55402C16.2778 5.39405 14.8139 4.63425 13.2082 4.36072C12.8333 4.29993 12.4838 4.54814 12.418 4.91791C12.3521 5.28768 12.5953 5.64732 12.9701 5.7081Z" fill="white"/>
<path d="M23.9723 10.5869C23.5215 7.94279 22.2754 5.53674 20.3607 3.62203C18.446 1.70732 16.04 0.461243 13.3958 0.0104253C13.0261 -0.0554245 12.6766 0.197844 12.6107 0.567615C12.5499 0.942452 12.7981 1.29196 13.173 1.35781C15.5334 1.75798 17.6862 2.87742 19.3983 4.58445C21.1104 6.29654 22.2248 8.44932 22.6249 10.8098C22.6807 11.1441 22.9694 11.3771 23.2986 11.3771C23.3392 11.3771 23.3746 11.372 23.4151 11.367C23.7849 11.3113 24.0382 10.9567 23.9723 10.5869Z" fill="white"/>
</g>
<defs>
<clipPath id="clip0_98_51621">
<rect width="24" height="24" fill="white"/>
</clipPath>
</defs>
</svg>
