<svg width="30" height="30" viewBox="0 0 30 30" fill="none" xmlns="http://www.w3.org/2000/svg">
<g clip-path="url(#clip0_222_359)">
<path d="M16.0073 14.7854C15.6895 14.9234 15.3467 14.9946 15.0002 14.9946C14.6537 14.9946 14.3109 14.9234 13.993 14.7854L1.77873 9.12826C1.58039 9.02822 1.41371 8.87509 1.29726 8.68592C1.1808 8.49675 1.11914 8.27897 1.11914 8.05683C1.11914 7.83469 1.1808 7.61691 1.29726 7.42774C1.41371 7.23857 1.58039 7.08544 1.77873 6.9854L13.993 1.2854C14.3109 1.14739 14.6537 1.07617 15.0002 1.07617C15.3467 1.07617 15.6895 1.14739 16.0073 1.2854L28.2216 6.94255C28.4199 7.04258 28.5866 7.19572 28.7031 7.38488C28.8195 7.57405 28.8812 7.79183 28.8812 8.01397C28.8812 8.23612 28.8195 8.4539 28.7031 8.64307C28.5866 8.83223 28.4199 8.98536 28.2216 9.0854L16.0073 14.7854Z" stroke="white" stroke-width="1.5" stroke-linecap="round" stroke-linejoin="round"/>
<path d="M28.9284 15.75L15.857 21.7714C15.5778 21.8988 15.2746 21.9647 14.9677 21.9647C14.6609 21.9647 14.3576 21.8988 14.0784 21.7714L1.07129 15.75" stroke="white" stroke-width="1.5" stroke-linecap="round" stroke-linejoin="round"/>
<path d="M28.9284 22.7148L15.857 28.7363C15.5778 28.8636 15.2746 28.9295 14.9677 28.9295C14.6609 28.9295 14.3576 28.8636 14.0784 28.7363L1.07129 22.7148" stroke="white" stroke-width="1.5" stroke-linecap="round" stroke-linejoin="round"/>
</g>
<defs>
<clipPath id="clip0_222_359">
<rect width="30" height="30" fill="white"/>
</clipPath>
</defs>
</svg>
