<svg width="28" height="28" viewBox="0 0 28 28" fill="none" xmlns="http://www.w3.org/2000/svg">
<path d="M21.2799 3.08008H6.71994C6.38427 3.0893 6.05547 3.17738 5.76015 3.3372C5.46482 3.49702 5.21125 3.7241 5.01994 4.00008L1.37994 9.04008C1.10965 9.42203 0.97467 9.8833 0.99641 10.3507C1.01815 10.8181 1.19537 11.2649 1.49994 11.6201L12.4199 24.2001C12.6069 24.441 12.8464 24.6359 13.1203 24.77C13.3941 24.9041 13.695 24.9739 13.9999 24.9739C14.3049 24.9739 14.6057 24.9041 14.8796 24.77C15.1534 24.6359 15.393 24.441 15.5799 24.2001L26.4999 11.6201C26.8045 11.2649 26.9817 10.8181 27.0035 10.3507C27.0252 9.8833 26.8902 9.42203 26.6199 9.04008L22.9799 4.00008C22.7886 3.7241 22.5351 3.49702 22.2397 3.3372C21.9444 3.17738 21.6156 3.0893 21.2799 3.08008V3.08008Z" stroke="white" stroke-width="1.5" stroke-linecap="round" stroke-linejoin="round"/>
<path d="M12.9601 3.06006L8.08008 10.6201L14.0001 24.9201" stroke="white" stroke-width="1.5" stroke-linecap="round" stroke-linejoin="round"/>
<path d="M15.1 3.06006L19.96 10.6201L14 24.9201" stroke="white" stroke-width="1.5" stroke-linecap="round" stroke-linejoin="round"/>
<path d="M1.04004 10.6201H26.96" stroke="white" stroke-width="1.5" stroke-linecap="round" stroke-linejoin="round"/>
</svg>
