<svg width="28" height="28" viewBox="0 0 28 28" fill="none" xmlns="http://www.w3.org/2000/svg">
<path d="M14 6.28003V9.28003" stroke="white" stroke-width="1.5" stroke-linecap="round" stroke-linejoin="round"/>
<path d="M17.0201 14.3C17.9634 13.6139 18.727 12.7101 19.2458 11.6654C19.7647 10.6208 20.0234 9.46621 20.0001 8.30003C20.122 6.57648 19.5611 4.87415 18.4384 3.56069C17.3158 2.24722 15.7216 1.42803 14.0001 1.28003C12.2803 1.42305 10.6861 2.238 9.56305 3.54827C8.43996 4.85854 7.87842 6.55859 8.00011 8.28003C7.97676 9.44621 8.23553 10.6008 8.75438 11.6454C9.27323 12.6901 10.0368 13.5939 10.9801 14.28L4.56011 21.64C4.4089 21.8229 4.32617 22.0527 4.32617 22.29C4.32617 22.5273 4.4089 22.7572 4.56011 22.94L7.30011 26.34C7.38805 26.4586 7.50268 26.5548 7.63472 26.6208C7.76676 26.6868 7.91249 26.7208 8.06011 26.72C8.20674 26.7215 8.35204 26.692 8.48647 26.6334C8.6209 26.5749 8.74141 26.4885 8.84011 26.38C10.7825 24.1832 12.5103 21.8058 14.0001 19.28C15.5025 21.8074 17.2438 24.185 19.2001 26.38C19.2988 26.4885 19.4193 26.5749 19.5537 26.6334C19.6882 26.692 19.8335 26.7215 19.9801 26.72C20.1277 26.7208 20.2735 26.6868 20.4055 26.6208C20.5375 26.5548 20.6522 26.4586 20.7401 26.34L23.4801 22.94C23.6298 22.7603 23.7117 22.5339 23.7117 22.3C23.7117 22.0662 23.6298 21.8397 23.4801 21.66L17.0201 14.3Z" stroke="white" stroke-width="1.5" stroke-linecap="round" stroke-linejoin="round"/>
</svg>
