<svg width="24" height="24" viewBox="0 0 24 24" fill="none" xmlns="http://www.w3.org/2000/svg">
<g clip-path="url(#clip0_283_5444)">
<path d="M17.3135 6.68535C19.165 7.47654 21.2473 7.53778 23.142 6.85678" stroke="white" stroke-width="1.5" stroke-linecap="round" stroke-linejoin="round"/>
<path d="M6.85673 23.1417C7.53712 21.2409 7.47591 19.1536 6.6853 17.296C6.06647 15.8169 5.89905 14.1878 6.20409 12.6137C6.50914 11.0397 7.27302 9.59108 8.39959 8.45025C9.55445 7.30733 11.0218 6.53189 12.6167 6.22168" stroke="white" stroke-width="1.5" stroke-linecap="round" stroke-linejoin="round"/>
<path d="M11.3135 17.7764C12.9161 17.4636 14.3898 16.682 15.5478 15.5307C16.6763 14.3911 17.4415 12.9424 17.7467 11.3679C18.0518 9.79337 17.8832 8.1637 17.262 6.68502C16.4876 4.827 16.4447 2.74476 17.142 0.856445" stroke="white" stroke-width="1.5" stroke-linecap="round" stroke-linejoin="round"/>
<path d="M0.856445 17.1422C2.75202 16.4579 4.83763 16.5254 6.68502 17.3307" stroke="white" stroke-width="1.5" stroke-linecap="round" stroke-linejoin="round"/>
<path d="M8.46875 8.45117L15.5487 15.5312" stroke="white" stroke-width="1.5" stroke-linecap="round" stroke-linejoin="round"/>
</g>
<defs>
<clipPath id="clip0_283_5444">
<rect width="24" height="24" fill="white"/>
</clipPath>
</defs>
</svg>
