<svg width="29" height="29" viewBox="0 0 29 29" fill="none" xmlns="http://www.w3.org/2000/svg">
<g clip-path="url(#clip0_1578_943)">
<path d="M21.8888 3.16846H6.91283C6.56757 3.17794 6.22938 3.26854 5.92562 3.43293C5.62185 3.59732 5.36104 3.83088 5.16426 4.11474L1.42026 9.29874C1.14225 9.6916 1.00341 10.1661 1.02577 10.6468C1.04813 11.1276 1.23041 11.5871 1.54369 11.9525L12.7757 24.8919C12.968 25.1397 13.2144 25.3402 13.496 25.4781C13.7777 25.6161 14.0872 25.6878 14.4008 25.6878C14.7145 25.6878 15.0239 25.6161 15.3056 25.4781C15.5873 25.3402 15.8337 25.1397 16.026 24.8919L27.258 11.9525C27.5713 11.5871 27.7535 11.1276 27.7759 10.6468C27.7983 10.1661 27.6594 9.6916 27.3814 9.29874L23.6374 4.11474C23.4406 3.83088 23.1798 3.59732 22.876 3.43293C22.5723 3.26854 22.2341 3.17794 21.8888 3.16846V3.16846Z" stroke="white" stroke-width="1.5" stroke-linecap="round" stroke-linejoin="round"/>
<path d="M13.331 3.14746L8.31152 10.9235L14.4007 25.632" stroke="white" stroke-width="1.5" stroke-linecap="round" stroke-linejoin="round"/>
<path d="M15.5318 3.14746L20.5307 10.9235L14.4004 25.632" stroke="white" stroke-width="1.5" stroke-linecap="round" stroke-linejoin="round"/>
<path d="M1.07031 10.9238H27.7309" stroke="white" stroke-width="1.5" stroke-linecap="round" stroke-linejoin="round"/>
</g>
<defs>
<clipPath id="clip0_1578_943">
<rect width="28.8" height="28.8" fill="white"/>
</clipPath>
</defs>
</svg>
