<svg width="24" height="24" viewBox="0 0 24 24" fill="none" xmlns="http://www.w3.org/2000/svg">
<g clip-path="url(#clip0_397_10727)">
<path d="M2.57171 10.2852H4.28599C4.51332 10.2852 4.73134 10.3755 4.89208 10.5362C5.05283 10.697 5.14314 10.915 5.14314 11.1423V15.428C5.14314 15.6553 5.05283 15.8734 4.89208 16.0341C4.73134 16.1949 4.51332 16.2852 4.28599 16.2852H2.57171C2.11705 16.2852 1.68102 16.1045 1.35952 15.7831C1.03803 15.4616 0.857422 15.0255 0.857422 14.5709V11.9994C0.857422 11.5448 1.03803 11.1088 1.35952 10.7873C1.68102 10.4658 2.11705 10.2852 2.57171 10.2852V10.2852Z" stroke="white" stroke-width="1.5" stroke-linecap="round" stroke-linejoin="round"/>
<path d="M21.4293 16.2852H19.715C19.4877 16.2852 19.2696 16.1949 19.1089 16.0341C18.9481 15.8734 18.8578 15.6553 18.8578 15.428V11.1423C18.8578 10.915 18.9481 10.697 19.1089 10.5362C19.2696 10.3755 19.4877 10.2852 19.715 10.2852H21.4293C21.8839 10.2852 22.32 10.4658 22.6415 10.7873C22.9629 11.1088 23.1436 11.5448 23.1436 11.9994V14.5709C23.1436 15.0255 22.9629 15.4616 22.6415 15.7831C22.32 16.1045 21.8839 16.2852 21.4293 16.2852V16.2852Z" stroke="white" stroke-width="1.5" stroke-linecap="round" stroke-linejoin="round"/>
<path d="M16.2861 20.9994C17.1954 20.9994 18.0675 20.6382 18.7105 19.9952C19.3535 19.3523 19.7147 18.4802 19.7147 17.5709V16.2852" stroke="white" stroke-width="1.5" stroke-linecap="round" stroke-linejoin="round"/>
<path d="M14.143 18.8574C14.7113 18.8574 15.2564 19.0832 15.6582 19.4851C16.0601 19.8869 16.2859 20.432 16.2859 21.0003C16.2859 21.5686 16.0601 22.1136 15.6582 22.5155C15.2564 22.9174 14.7113 23.1431 14.143 23.1431H11.5716C11.0032 23.1431 10.4582 22.9174 10.0563 22.5155C9.65448 22.1136 9.42871 21.5686 9.42871 21.0003C9.42871 20.432 9.65448 19.8869 10.0563 19.4851C10.4582 19.0832 11.0032 18.8574 11.5716 18.8574H14.143Z" stroke="white" stroke-width="1.5" stroke-linecap="round" stroke-linejoin="round"/>
<path d="M4.28613 10.286V8.57171C4.28613 6.52575 5.09889 4.56359 6.54559 3.11688C7.9923 1.67017 9.95446 0.857422 12.0004 0.857422C14.0464 0.857422 16.0085 1.67017 17.4552 3.11688C18.902 4.56359 19.7147 6.52575 19.7147 8.57171V10.286" stroke="white" stroke-width="1.5" stroke-linecap="round" stroke-linejoin="round"/>
<path d="M9.42871 6.85742V9.42885" stroke="white" stroke-width="1.5" stroke-linecap="round" stroke-linejoin="round"/>
<path d="M14.5713 6.85742V9.42885" stroke="white" stroke-width="1.5" stroke-linecap="round" stroke-linejoin="round"/>
<path d="M9.42871 12.8574C9.42871 15.1374 14.5716 15.1374 14.5716 12.8574" stroke="white" stroke-width="1.5" stroke-linecap="round" stroke-linejoin="round"/>
</g>
<defs>
<clipPath id="clip0_397_10727">
<rect width="24" height="24" fill="white"/>
</clipPath>
</defs>
</svg>
