<svg width="24" height="24" viewBox="0 0 24 24" fill="none" xmlns="http://www.w3.org/2000/svg">
<g clip-path="url(#clip0_497_10672)">
<path d="M11.7768 16.2857C16.0373 16.2857 19.4911 12.8319 19.4911 8.57146C19.4911 4.31098 16.0373 0.857178 11.7768 0.857178C7.5163 0.857178 4.0625 4.31098 4.0625 8.57146C4.0625 12.8319 7.5163 16.2857 11.7768 16.2857Z" stroke="white" stroke-width="1.5" stroke-linecap="round" stroke-linejoin="round"/>
<path d="M11.7801 12C13.6737 12 15.2087 10.4649 15.2087 8.57139C15.2087 6.67785 13.6737 5.14282 11.7801 5.14282C9.88659 5.14282 8.35156 6.67785 8.35156 8.57139C8.35156 10.4649 9.88659 12 11.7801 12Z" stroke="white" stroke-width="1.5" stroke-linecap="round" stroke-linejoin="round"/>
<path d="M10.2858 16.1486L8.77724 22.4915C8.74739 22.612 8.6922 22.7248 8.61534 22.8224C8.53849 22.9199 8.44174 23 8.33153 23.0572C8.21521 23.1077 8.08976 23.1337 7.96296 23.1337C7.83615 23.1337 7.7107 23.1077 7.59439 23.0572L1.90296 20.5715C1.78358 20.5151 1.67853 20.4323 1.5957 20.3295C1.51288 20.2266 1.45443 20.1064 1.42473 19.9777C1.39504 19.849 1.39488 19.7153 1.42426 19.5866C1.45365 19.4578 1.51181 19.3374 1.59439 19.2344L6.0001 13.7144" stroke="white" stroke-width="1.5" stroke-linecap="round" stroke-linejoin="round"/>
<path d="M13.7148 16.063L15.2577 22.4915C15.2884 22.6141 15.3458 22.7284 15.4258 22.8262C15.5058 22.924 15.6065 23.0029 15.7206 23.0572C15.8337 23.1084 15.9564 23.1348 16.0806 23.1348C16.2047 23.1348 16.3274 23.1084 16.4406 23.0572L22.0977 20.5715C22.2189 20.5158 22.3254 20.4325 22.4087 20.3283C22.492 20.2242 22.5499 20.102 22.5777 19.9715C22.6102 19.8439 22.6116 19.7104 22.5818 19.5821C22.5519 19.4538 22.4917 19.3346 22.4063 19.2344L17.812 13.3887" stroke="white" stroke-width="1.5" stroke-linecap="round" stroke-linejoin="round"/>
</g>
<defs>
<clipPath id="clip0_497_10672">
<rect width="24" height="24" fill="white"/>
</clipPath>
</defs>
</svg>
