<svg width="24" height="24" viewBox="0 0 24 24" fill="none" xmlns="http://www.w3.org/2000/svg">
<g clip-path="url(#clip0_215_248)">
<path d="M12.0006 16.2863C14.3675 16.2863 16.2863 14.3675 16.2863 12.0006C16.2863 9.63362 14.3675 7.71484 12.0006 7.71484C9.63362 7.71484 7.71484 9.63362 7.71484 12.0006C7.71484 14.3675 9.63362 16.2863 12.0006 16.2863Z" stroke="white" stroke-width="1.5" stroke-linecap="round" stroke-linejoin="round"/>
<path d="M23.1431 12.0003L19.1317 14.9489L19.886 19.886L14.9489 19.1317L12.0003 23.1431L9.05171 19.1317L4.11456 19.886L4.86885 14.9489L0.857422 12.0003L4.86885 9.05171L4.11456 4.11456L9.05171 4.86885L12.0003 0.857422L14.9489 4.86885L19.886 4.11456L19.1317 9.05171L23.1431 12.0003Z" stroke="white" stroke-width="1.5" stroke-linecap="round" stroke-linejoin="round"/>
</g>
<defs>
<clipPath id="clip0_215_248">
<rect width="24" height="24" fill="white"/>
</clipPath>
</defs>
</svg>
