<svg width="24" height="24" viewBox="0 0 24 24" fill="none" xmlns="http://www.w3.org/2000/svg">
<g clip-path="url(#clip0_397_16142)">
<path d="M4.71456 15.8569C6.84481 15.8569 8.57171 14.13 8.57171 11.9997C8.57171 9.86948 6.84481 8.14258 4.71456 8.14258C2.58432 8.14258 0.857422 9.86948 0.857422 11.9997C0.857422 14.13 2.58432 15.8569 4.71456 15.8569Z" stroke="white" stroke-width="1.5" stroke-linecap="round" stroke-linejoin="round"/>
<path d="M19.2859 23.144C21.4161 23.144 23.143 21.4171 23.143 19.2868C23.143 17.1566 21.4161 15.4297 19.2859 15.4297C17.1556 15.4297 15.4287 17.1566 15.4287 19.2868C15.4287 21.4171 17.1556 23.144 19.2859 23.144Z" stroke="white" stroke-width="1.5" stroke-linecap="round" stroke-linejoin="round"/>
<path d="M19.2859 8.57171C21.4161 8.57171 23.143 6.84481 23.143 4.71456C23.143 2.58432 21.4161 0.857422 19.2859 0.857422C17.1556 0.857422 15.4287 2.58432 15.4287 4.71456C15.4287 6.84481 17.1556 8.57171 19.2859 8.57171Z" stroke="white" stroke-width="1.5" stroke-linecap="round" stroke-linejoin="round"/>
<path d="M8.16016 10.2868L15.8402 6.42969" stroke="white" stroke-width="1.5" stroke-linecap="round" stroke-linejoin="round"/>
<path d="M8.16016 13.7148L15.8402 17.572" stroke="white" stroke-width="1.5" stroke-linecap="round" stroke-linejoin="round"/>
</g>
<defs>
<clipPath id="clip0_397_16142">
<rect width="24" height="24" fill="white"/>
</clipPath>
</defs>
</svg>
