<svg width="24" height="24" viewBox="0 0 24 24" fill="none" xmlns="http://www.w3.org/2000/svg">
<g clip-path="url(#clip0_98_46385)">
<path d="M7.71456 22.2856C11.5017 22.2856 14.5717 19.2155 14.5717 15.4284C14.5717 11.6413 11.5017 8.57129 7.71456 8.57129C3.92747 8.57129 0.857422 11.6413 0.857422 15.4284C0.857422 19.2155 3.92747 22.2856 7.71456 22.2856Z" stroke="white" stroke-width="1.5" stroke-linecap="round" stroke-linejoin="round"/>
<path d="M16.2859 22.2856C20.0729 22.2856 23.143 19.2155 23.143 15.4284C23.143 11.6413 20.0729 8.57129 16.2859 8.57129C12.4988 8.57129 9.42871 11.6413 9.42871 15.4284C9.42871 19.2155 12.4988 22.2856 16.2859 22.2856Z" stroke="white" stroke-width="1.5" stroke-linecap="round" stroke-linejoin="round"/>
<path d="M12.0007 15.4282C15.7878 15.4282 18.8578 12.3581 18.8578 8.57101C18.8578 4.78391 15.7878 1.71387 12.0007 1.71387C8.2136 1.71387 5.14355 4.78391 5.14355 8.57101C5.14355 12.3581 8.2136 15.4282 12.0007 15.4282Z" stroke="white" stroke-width="1.5" stroke-linecap="round" stroke-linejoin="round"/>
</g>
<defs>
<clipPath id="clip0_98_46385">
<rect width="24" height="24" fill="white"/>
</clipPath>
</defs>
</svg>
