<svg width="45" height="45" viewBox="0 0 45 45" fill="none" xmlns="http://www.w3.org/2000/svg">
<path d="M4.04494 37.0882C1.51685 34.1765 0 31 0 25.7059C0 16.4412 6.32023 8.23529 15.1685 4L17.4438 7.44118C9.10112 12.2059 7.33146 18.2941 6.82584 22.2647C8.08989 21.4706 9.85955 21.2059 11.6292 21.4706C16.1798 22 19.7191 25.7059 19.7191 30.7353C19.7191 33.1176 18.7079 35.5 17.191 37.3529C15.4213 39.2059 13.3989 40 10.8708 40C8.08989 40 5.5618 38.6765 4.04494 37.0882ZM29.3258 37.0882C26.7978 34.1765 25.2809 31 25.2809 25.7059C25.2809 16.4412 31.6011 8.23529 40.4494 4L42.7247 7.44118C34.382 12.2059 32.6124 18.2941 32.1067 22.2647C33.3708 21.4706 35.1405 21.2059 36.9101 21.4706C41.4607 22 45 25.7059 45 30.7353C45 33.1176 43.9888 35.5 42.4719 37.3529C40.9551 39.2059 38.6798 40 36.1517 40C33.3708 40 30.8427 38.6765 29.3258 37.0882Z" fill="#00A8BC"/>
</svg>
