<svg width="30" height="30" viewBox="0 0 30 30" fill="none" xmlns="http://www.w3.org/2000/svg">
<path d="M15 28.6919C16.407 28.6919 17.8003 28.4148 19.1002 27.8763C20.4001 27.3379 21.5812 26.5487 22.5761 25.5538C23.5711 24.5589 24.3603 23.3777 24.8987 22.0778C25.4372 20.7779 25.7143 19.3846 25.7143 17.9776V12.0205C25.7144 9.38838 24.7457 6.84831 22.9929 4.88477" stroke="white" stroke-width="1.5" stroke-linecap="round" stroke-linejoin="round"/>
<path d="M4.28613 14.3984V17.977C4.28542 20.0862 4.90725 22.1487 6.0737 23.906C7.24014 25.6633 8.89932 27.0372 10.8433 27.8556" stroke="white" stroke-width="1.5" stroke-linecap="round" stroke-linejoin="round"/>
<path d="M20.3571 2.74206C17.8963 1.32132 14.9719 0.936307 12.2272 1.67171C9.48245 2.40712 7.14228 4.20271 5.72143 6.66349C5.13638 7.67391 4.7236 8.77467 4.5 9.92063" stroke="white" stroke-width="1.5" stroke-linecap="round" stroke-linejoin="round"/>
<path d="M13.8857 7.52049C14.6739 7.35687 15.4887 7.37224 16.2701 7.56545C17.0515 7.75867 17.7796 8.12481 18.4007 8.63688C19.0217 9.14895 19.5199 9.79388 19.8585 10.5241C20.1972 11.2544 20.3676 12.0513 20.3572 12.8562V16.3062" stroke="white" stroke-width="1.5" stroke-linecap="round" stroke-linejoin="round"/>
<path d="M18.9861 20.8057C18.257 21.6179 17.2973 22.188 16.2353 22.4397C15.1733 22.6914 14.0598 22.6128 13.0437 22.2143C12.0276 21.8158 11.1575 21.1164 10.5498 20.2099C9.94214 19.3033 9.62584 18.2327 9.64326 17.1415V12.8557C9.63919 12.1198 9.785 11.3907 10.0718 10.7129" stroke="white" stroke-width="1.5" stroke-linecap="round" stroke-linejoin="round"/>
<path d="M15 13.0918V16.6704" stroke="white" stroke-width="1.5" stroke-linecap="round" stroke-linejoin="round"/>
</svg>
