<svg width="50" height="50" viewBox="0 0 50 50" fill="none" xmlns="http://www.w3.org/2000/svg">
<circle cx="25" cy="25" r="25" fill="#00A8BC"/>
<path d="M14.4314 23.048C14.828 23.4446 15.4709 23.4446 15.8675 23.048C16.2642 22.6514 16.2642 22.0084 15.8675 21.6118L15.2214 20.9657C14.4541 20.1983 14.0316 19.1783 14.0316 18.0934C14.0316 15.8534 15.8538 14.0311 18.0938 14.0311C19.1787 14.0311 20.1992 14.4536 20.9661 15.221L21.6127 15.8676C22.0093 16.2642 22.6522 16.2642 23.0488 15.8676C23.4454 15.471 23.4454 14.8281 23.0488 14.4314L22.4022 13.7848C21.2514 12.634 19.7214 12 18.0938 12C14.7336 12 12 14.7336 12 18.0939C12 19.7215 12.6339 21.2516 13.7848 22.403L14.4314 23.048Z" fill="white"/>
<path d="M25.7176 32.8998L36.2142 22.403C37.365 21.2521 37.999 19.7215 37.999 18.0939C37.999 14.7337 35.2654 12 31.9057 12C30.2781 12 28.7481 12.634 27.5967 13.7848L13.7848 27.597C12.634 28.7479 12 30.278 12 31.9061C12 35.2664 14.7336 38 18.0938 38C19.7214 38 21.2514 37.366 22.4027 36.2152L25.7176 32.8998ZM24.9997 19.2547L30.7449 25L24.9997 30.7453L19.2546 25L24.9997 19.2547ZM29.0329 15.2215C29.8003 14.4541 30.8203 14.0316 31.9057 14.0316C34.1457 14.0316 35.9679 15.8539 35.9679 18.0939C35.9679 19.1788 35.5454 20.1994 34.778 20.9662L32.181 23.5633L26.4359 17.818L29.0329 15.2215ZM20.9661 34.779C20.1987 35.5464 19.1787 35.9689 18.0938 35.9689C15.8538 35.9689 14.0316 34.1466 14.0316 31.9067C14.0316 30.8217 14.4541 29.8012 15.2215 29.0338L17.8184 26.4367L23.5636 32.182L20.9661 34.779Z" fill="white"/>
<path d="M35.5682 26.9518C35.1716 26.5551 34.5287 26.5551 34.1321 26.9518C33.7355 27.3484 33.7355 27.9913 34.1321 28.388L34.7782 29.0341C35.5455 29.8015 35.968 30.8215 35.968 31.9069C35.968 34.1469 34.1458 35.9692 31.9059 35.9692C30.821 35.9692 29.8004 35.5467 29.0335 34.7793L28.3869 34.1327C27.9903 33.736 27.3474 33.736 26.9508 34.1327C26.5542 34.5293 26.5542 35.1722 26.9508 35.5689L27.5974 36.2155C28.7482 37.3663 30.2788 38.0003 31.9064 38.0003C35.2666 38.0003 37.9996 35.2666 37.9996 31.9064C37.9996 30.2788 37.3657 28.7487 36.2148 27.5973L35.5682 26.9518Z" fill="white"/>
<path d="M25.0002 23.9848C25.5612 23.9848 26.016 23.53 26.016 22.969C26.016 22.4079 25.5612 21.9531 25.0002 21.9531C24.4392 21.9531 23.9844 22.4079 23.9844 22.969C23.9844 23.53 24.4392 23.9848 25.0002 23.9848Z" fill="white"/>
<path d="M25.0002 28.0473C25.5612 28.0473 26.016 27.5925 26.016 27.0314C26.016 26.4704 25.5612 26.0156 25.0002 26.0156C24.4392 26.0156 23.9844 26.4704 23.9844 27.0314C23.9844 27.5925 24.4392 28.0473 25.0002 28.0473Z" fill="white"/>
<path d="M22.9689 26.016C23.5299 26.016 23.9847 25.5612 23.9847 25.0002C23.9847 24.4392 23.5299 23.9844 22.9689 23.9844C22.4079 23.9844 21.9531 24.4392 21.9531 25.0002C21.9531 25.5612 22.4079 26.016 22.9689 26.016Z" fill="white"/>
<path d="M27.0314 26.016C27.5924 26.016 28.0472 25.5612 28.0472 25.0002C28.0472 24.4392 27.5924 23.9844 27.0314 23.9844C26.4704 23.9844 26.0156 24.4392 26.0156 25.0002C26.0156 25.5612 26.4704 26.016 27.0314 26.016Z" fill="white"/>
</svg>
