<svg width="144" height="50" viewBox="0 0 144 50" fill="none" xmlns="http://www.w3.org/2000/svg">
<circle cx="25" cy="25" r="25" fill="#00A8BC"/>
<path d="M14.4314 23.048C14.828 23.4446 15.4709 23.4446 15.8675 23.048C16.2642 22.6514 16.2642 22.0084 15.8675 21.6118L15.2214 20.9657C14.4541 20.1983 14.0316 19.1783 14.0316 18.0934C14.0316 15.8534 15.8538 14.0311 18.0938 14.0311C19.1787 14.0311 20.1992 14.4536 20.9661 15.221L21.6127 15.8676C22.0093 16.2642 22.6522 16.2642 23.0488 15.8676C23.4454 15.471 23.4454 14.8281 23.0488 14.4314L22.4022 13.7848C21.2514 12.634 19.7214 12 18.0938 12C14.7336 12 12 14.7336 12 18.0939C12 19.7215 12.6339 21.2516 13.7848 22.403L14.4314 23.048Z" fill="white"/>
<path d="M25.7176 32.8998L36.2142 22.403C37.365 21.2521 37.999 19.7215 37.999 18.0939C37.999 14.7337 35.2654 12 31.9057 12C30.2781 12 28.7481 12.634 27.5967 13.7848L13.7848 27.597C12.634 28.7479 12 30.278 12 31.9061C12 35.2664 14.7336 38 18.0938 38C19.7214 38 21.2514 37.366 22.4027 36.2152L25.7176 32.8998ZM24.9997 19.2547L30.7449 25L24.9997 30.7453L19.2546 25L24.9997 19.2547ZM29.0329 15.2215C29.8003 14.4541 30.8203 14.0316 31.9057 14.0316C34.1457 14.0316 35.9679 15.8539 35.9679 18.0939C35.9679 19.1788 35.5454 20.1994 34.778 20.9662L32.181 23.5633L26.4359 17.818L29.0329 15.2215ZM20.9661 34.779C20.1987 35.5464 19.1787 35.9689 18.0938 35.9689C15.8538 35.9689 14.0316 34.1466 14.0316 31.9067C14.0316 30.8217 14.4541 29.8012 15.2215 29.0338L17.8184 26.4367L23.5636 32.182L20.9661 34.779Z" fill="white"/>
<path d="M35.5682 26.9518C35.1716 26.5551 34.5287 26.5551 34.1321 26.9518C33.7355 27.3484 33.7355 27.9913 34.1321 28.388L34.7782 29.0341C35.5455 29.8015 35.968 30.8215 35.968 31.9069C35.968 34.1469 34.1458 35.9692 31.9059 35.9692C30.821 35.9692 29.8004 35.5467 29.0335 34.7793L28.3869 34.1327C27.9903 33.736 27.3474 33.736 26.9508 34.1327C26.5542 34.5293 26.5542 35.1722 26.9508 35.5689L27.5974 36.2155C28.7482 37.3663 30.2788 38.0003 31.9064 38.0003C35.2666 38.0003 37.9996 35.2666 37.9996 31.9064C37.9996 30.2788 37.3657 28.7487 36.2148 27.5973L35.5682 26.9518Z" fill="white"/>
<path d="M25.0002 23.9848C25.5612 23.9848 26.016 23.53 26.016 22.969C26.016 22.4079 25.5612 21.9531 25.0002 21.9531C24.4392 21.9531 23.9844 22.4079 23.9844 22.969C23.9844 23.53 24.4392 23.9848 25.0002 23.9848Z" fill="white"/>
<path d="M25.0002 28.0473C25.5612 28.0473 26.016 27.5925 26.016 27.0314C26.016 26.4704 25.5612 26.0156 25.0002 26.0156C24.4392 26.0156 23.9844 26.4704 23.9844 27.0314C23.9844 27.5925 24.4392 28.0473 25.0002 28.0473Z" fill="white"/>
<path d="M22.9689 26.016C23.5299 26.016 23.9847 25.5612 23.9847 25.0002C23.9847 24.4392 23.5299 23.9844 22.9689 23.9844C22.4079 23.9844 21.9531 24.4392 21.9531 25.0002C21.9531 25.5612 22.4079 26.016 22.9689 26.016Z" fill="white"/>
<path d="M27.0314 26.016C27.5924 26.016 28.0472 25.5612 28.0472 25.0002C28.0472 24.4392 27.5924 23.9844 27.0314 23.9844C26.4704 23.9844 26.0156 24.4392 26.0156 25.0002C26.0156 25.5612 26.4704 26.016 27.0314 26.016Z" fill="white"/>
<path d="M65.664 34V15.8H72.398C73.6633 15.8 74.7727 16.0167 75.726 16.45C76.6967 16.866 77.4593 17.4813 78.014 18.296C78.5687 19.1107 78.846 20.0987 78.846 21.26C78.846 22.4213 78.5687 23.418 78.014 24.25C77.4593 25.0647 76.6967 25.6887 75.726 26.122C74.7727 26.538 73.6633 26.746 72.398 26.746H68.992V34H65.664ZM68.992 23.912H72.32C73.4813 23.912 74.296 23.6693 74.764 23.184C75.232 22.6813 75.466 22.04 75.466 21.26C75.466 20.4973 75.232 19.8733 74.764 19.388C74.296 18.8853 73.4813 18.634 72.32 18.634H68.992V23.912ZM80.7345 34V15.8H84.0625V34H80.7345ZM91.466 34.312C90.3566 34.312 89.412 34.078 88.632 33.61C87.852 33.1247 87.254 32.466 86.838 31.634C86.422 30.7847 86.214 29.8227 86.214 28.748V21.104H89.516V28.254C89.516 29.2073 89.7586 29.9873 90.244 30.594C90.7466 31.2007 91.4746 31.504 92.428 31.504C93.416 31.504 94.1526 31.2093 94.638 30.62C95.1233 30.0307 95.366 29.242 95.366 28.254V21.104H98.694V34H95.366V32.492C94.9326 33.0813 94.3606 33.532 93.65 33.844C92.9566 34.156 92.2286 34.312 91.466 34.312ZM99.8516 34L104.116 27.526L99.7996 21.104H103.544L106.196 25.082L108.614 21.104H112.15L107.86 27.526L112.202 34H108.484L105.78 29.996L103.388 34H99.8516ZM118.762 34.312C117.41 34.312 116.24 34.0173 115.252 33.428C114.281 32.8387 113.527 32.0327 112.99 31.01C112.452 29.9873 112.184 28.8347 112.184 27.552C112.184 26.1827 112.461 24.9953 113.016 23.99C113.57 22.9847 114.342 22.2047 115.33 21.65C116.318 21.078 117.462 20.792 118.762 20.792C120.044 20.792 121.162 21.0693 122.116 21.624C123.086 22.1787 123.84 22.9413 124.378 23.912C124.932 24.8827 125.21 26.0007 125.21 27.266C125.21 27.4913 125.201 27.7167 125.184 27.942C125.166 28.15 125.14 28.3493 125.106 28.54H115.538C115.59 29.1467 115.746 29.684 116.006 30.152C116.283 30.6027 116.647 30.958 117.098 31.218C117.566 31.4607 118.094 31.582 118.684 31.582C119.29 31.582 119.81 31.452 120.244 31.192C120.694 30.932 121.05 30.5333 121.31 29.996H124.872C124.629 30.7587 124.239 31.4693 123.702 32.128C123.164 32.7867 122.48 33.3153 121.648 33.714C120.833 34.1127 119.871 34.312 118.762 34.312ZM115.564 26.33H121.778C121.76 25.4633 121.44 24.7787 120.816 24.276C120.209 23.7733 119.49 23.522 118.658 23.522C117.947 23.522 117.288 23.7473 116.682 24.198C116.075 24.6313 115.702 25.342 115.564 26.33ZM132.249 34.312C131.278 34.312 130.368 34.1387 129.519 33.792C128.669 33.428 127.967 32.9167 127.413 32.258C126.875 31.5993 126.581 30.828 126.529 29.944H129.857C129.943 30.4987 130.212 30.932 130.663 31.244C131.131 31.556 131.651 31.712 132.223 31.712C132.708 31.712 133.159 31.608 133.575 31.4C134.008 31.1747 134.225 30.828 134.225 30.36C134.225 29.996 134.069 29.71 133.757 29.502C133.445 29.294 133.081 29.1293 132.665 29.008C132.249 28.8867 131.867 28.7827 131.521 28.696C130.654 28.488 129.865 28.2453 129.155 27.968C128.444 27.6733 127.881 27.2747 127.465 26.772C127.049 26.252 126.841 25.5673 126.841 24.718C126.841 23.886 127.075 23.1753 127.543 22.586C128.028 21.9967 128.661 21.5547 129.441 21.26C130.238 20.948 131.096 20.792 132.015 20.792C133.453 20.792 134.667 21.156 135.655 21.884C136.643 22.612 137.18 23.6867 137.267 25.108H134.121C134.069 24.5533 133.835 24.1373 133.419 23.86C133.02 23.5653 132.517 23.418 131.911 23.418C131.425 23.418 130.992 23.5047 130.611 23.678C130.229 23.8513 130.039 24.1807 130.039 24.666C130.039 25.0127 130.195 25.2987 130.507 25.524C130.819 25.732 131.191 25.9053 131.625 26.044C132.058 26.1653 132.439 26.2693 132.769 26.356C133.67 26.5813 134.459 26.8413 135.135 27.136C135.828 27.4307 136.374 27.8293 136.773 28.332C137.171 28.8347 137.379 29.5107 137.397 30.36C137.397 31.2093 137.154 31.9287 136.669 32.518C136.201 33.1073 135.577 33.558 134.797 33.87C134.017 34.1647 133.167 34.312 132.249 34.312Z" fill="white"/>
<path d="M141.053 34.312C140.447 34.312 139.935 34.104 139.519 33.688C139.103 33.2547 138.895 32.7433 138.895 32.154C138.895 31.5473 139.103 31.036 139.519 30.62C139.935 30.204 140.447 29.996 141.053 29.996C141.66 29.996 142.171 30.204 142.587 30.62C143.003 31.036 143.211 31.5473 143.211 32.154C143.211 32.7433 143.003 33.2547 142.587 33.688C142.171 34.104 141.66 34.312 141.053 34.312Z" fill="#00A8BC"/>
</svg>
