<svg width="200" height="50" viewBox="0 0 200 50" fill="none" xmlns="http://www.w3.org/2000/svg">
<rect x="0.5" y="0.5" width="199" height="49" stroke="white" stroke-opacity="0.1"/>
<path d="M64.7529 31.8133H76.9356V28.1244H69.0829V14.2297H64.7529V31.8133Z" fill="#08363B"/>
<path d="M84.1521 29.3538C82.4152 29.3538 81.5101 27.8291 81.5101 25.542C81.5101 23.2549 82.4152 21.7056 84.1521 21.7056C85.889 21.7056 86.8186 23.2549 86.8186 25.542C86.8186 27.8291 85.889 29.3538 84.1521 29.3538ZM84.1765 32.2065C88.213 32.2065 90.855 29.3292 90.855 25.542C90.855 21.7547 88.213 18.8774 84.1765 18.8774C80.1646 18.8774 77.4736 21.7547 77.4736 25.542C77.4736 29.3292 80.1646 32.2065 84.1765 32.2065Z" fill="#08363B"/>
<path d="M97.8429 36.1663C99.7021 36.1663 101.341 35.7482 102.442 34.7645C103.445 33.8546 104.105 32.4774 104.105 30.5838V19.2222H100.289V20.5747H100.24C99.5064 19.5173 98.3811 18.8533 96.7176 18.8533C93.6108 18.8533 91.458 21.4601 91.458 25.1489C91.458 29.0099 94.0756 31.1248 96.8888 31.1248C98.4056 31.1248 99.3596 30.51 100.094 29.6739H100.191V30.9281C100.191 32.4528 99.4819 33.3382 97.794 33.3382C96.473 33.3382 95.8125 32.7725 95.5923 32.1085H91.7271C92.1185 34.7399 94.3936 36.1663 97.8429 36.1663ZM97.8184 28.1492C96.3262 28.1492 95.3477 26.9196 95.3477 25.0259C95.3477 23.1077 96.3262 21.8781 97.8184 21.8781C99.4819 21.8781 100.363 23.3045 100.363 25.0014C100.363 26.772 99.5553 28.1492 97.8184 28.1492Z" fill="#08363B"/>
<path d="M111.952 29.3538C110.215 29.3538 109.31 27.8291 109.31 25.542C109.31 23.2549 110.215 21.7056 111.952 21.7056C113.689 21.7056 114.618 23.2549 114.618 25.542C114.618 27.8291 113.689 29.3538 111.952 29.3538ZM111.976 32.2065C116.013 32.2065 118.654 29.3292 118.654 25.542C118.654 21.7547 116.013 18.8774 111.976 18.8774C107.964 18.8774 105.273 21.7547 105.273 25.542C105.273 29.3292 107.964 32.2065 111.976 32.2065Z" fill="#08363B"/>
<path d="M119.819 31.8133H123.807V19.222H119.819V31.8133ZM119.819 17.4759H123.807V14.2297H119.819V17.4759Z" fill="#08363B"/>
<path d="M125.537 35.9695H129.525V30.51H129.574C130.356 31.5675 131.506 32.2069 133.121 32.2069C136.399 32.2069 138.576 29.6001 138.576 25.5178C138.576 21.7306 136.546 18.8533 133.219 18.8533C131.506 18.8533 130.283 19.6156 129.427 20.7469H129.353V19.2222H125.537V35.9695ZM132.093 29.1083C130.381 29.1083 129.402 27.7065 129.402 25.6653C129.402 23.6242 130.283 22.0749 132.02 22.0749C133.732 22.0749 134.54 23.5012 134.54 25.6653C134.54 27.8049 133.61 29.1083 132.093 29.1083Z" fill="#08363B"/>
<path d="M145.067 32.2069C148.345 32.2069 150.767 30.7806 150.767 28.0262C150.767 24.8046 148.174 24.239 145.972 23.8701C144.382 23.575 142.963 23.452 142.963 22.5667C142.963 21.7798 143.721 21.4109 144.7 21.4109C145.801 21.4109 146.559 21.7552 146.706 22.8864H150.375C150.18 20.4026 148.272 18.8533 144.724 18.8533C141.764 18.8533 139.318 20.2304 139.318 22.8864C139.318 25.8375 141.642 26.4277 143.819 26.7966C145.483 27.0917 147 27.2147 147 28.3459C147 29.1575 146.241 29.6001 145.042 29.6001C143.721 29.6001 142.89 28.9853 142.743 27.7311H138.976C139.098 30.51 141.397 32.2069 145.067 32.2069Z" fill="#08363B"/>
<path d="M156.185 32.1826C157.922 32.1826 159.022 31.494 159.927 30.2644H160.001V31.8137H163.817V19.2224H159.83V26.2558C159.83 27.756 158.998 28.7888 157.628 28.7888C156.356 28.7888 155.744 28.0265 155.744 26.6493V19.2224H151.781V27.4854C151.781 30.289 153.298 32.1826 156.185 32.1826Z" fill="#08363B"/>
<path d="M165.552 31.8134H169.539V24.7554C169.539 23.2553 170.273 22.1978 171.521 22.1978C172.719 22.1978 173.282 22.9848 173.282 24.3374V31.8134H177.27V24.7554C177.27 23.2553 177.979 22.1978 179.251 22.1978C180.45 22.1978 181.012 22.9848 181.012 24.3374V31.8134H185V23.6242C185 20.7961 183.581 18.8533 180.743 18.8533C179.129 18.8533 177.783 19.5419 176.805 21.0666H176.756C176.12 19.714 174.872 18.8533 173.233 18.8533C171.423 18.8533 170.224 19.714 169.441 21.0174H169.368V19.2222H165.552V31.8134Z" fill="#08363B"/>
<path fill-rule="evenodd" clip-rule="evenodd" d="M40.7426 16.8329C39.0861 15.7202 37.1385 15.1263 35.1463 15.1263V5C39.1308 5 43.0259 6.18779 46.3389 8.41318C49.652 10.6386 52.2341 13.8016 53.759 17.5022C55.2837 21.2029 55.6827 25.2751 54.9054 29.2037C54.128 33.1323 52.2093 36.741 49.3918 39.5733C46.5743 42.4057 42.9846 44.3346 39.0766 45.116C35.1686 45.8975 31.1178 45.4964 27.4366 43.9636C23.7554 42.4306 20.6089 39.8349 18.3953 36.5043C16.1816 33.1738 15 29.2582 15 25.2526H25.0731C25.0731 27.2554 25.6639 29.2132 26.7707 30.8785C27.8776 32.5437 29.4508 33.8416 31.2915 34.6081C33.132 35.3745 35.1574 35.575 37.1114 35.1843C39.0654 34.7936 40.8602 33.8292 42.2691 32.413C43.6778 30.9967 44.6371 29.1924 45.0258 27.2281C45.4145 25.2638 45.215 23.2277 44.4526 21.3775C43.6902 19.5271 42.3991 17.9456 40.7426 16.8329Z" fill="#00A8BC"/>
<path fill-rule="evenodd" clip-rule="evenodd" d="M25.0731 5.00001C25.0731 6.32981 24.8126 7.64659 24.3064 8.87518C23.8001 10.1038 23.0582 11.2201 22.1228 12.1604C21.1874 13.1007 20.077 13.8466 18.8548 14.3555C17.6327 14.8644 16.3228 15.1263 15 15.1263L15 25.2526C17.6456 25.2526 20.2654 24.7288 22.7096 23.711C25.1539 22.6932 27.3748 21.2014 29.2455 19.3207C31.1163 17.4402 32.6003 15.2075 33.6127 12.7503C34.6252 10.2932 35.1462 7.65961 35.1462 5L25.0731 5.00001Z" fill="#00A8BC"/>
</svg>
