<svg width="200" height="50" viewBox="0 0 200 50" fill="none" xmlns="http://www.w3.org/2000/svg">
<rect x="0.5" y="0.5" width="199" height="49" stroke="white" stroke-opacity="0.1"/>
<path d="M64.8604 32.086H77.0321V28.4004H69.1865V14.5181H64.8604V32.086Z" fill="#08363B"/>
<path d="M84.2438 29.6286C82.5084 29.6286 81.6041 28.1053 81.6041 25.8202C81.6041 23.5352 82.5084 21.9872 84.2438 21.9872C85.9791 21.9872 86.9079 23.5352 86.9079 25.8202C86.9079 28.1053 85.9791 29.6286 84.2438 29.6286ZM84.2682 32.4788C88.301 32.4788 90.9407 29.6041 90.9407 25.8202C90.9407 22.0364 88.301 19.1616 84.2682 19.1616C80.2598 19.1616 77.5713 22.0364 77.5713 25.8202C77.5713 29.6041 80.2598 32.4788 84.2682 32.4788Z" fill="#08363B"/>
<path d="M97.9221 36.4348C99.7797 36.4348 101.417 36.0171 102.517 35.0343C103.519 34.1252 104.179 32.7492 104.179 30.8573V19.5058H100.366V20.8571H100.317C99.5842 19.8006 98.4599 19.1372 96.7978 19.1372C93.6938 19.1372 91.543 21.7417 91.543 25.4272C91.543 29.2848 94.1582 31.3979 96.9689 31.3979C98.4843 31.3979 99.4375 30.7836 100.171 29.9482H100.269V31.2013C100.269 32.7247 99.5597 33.6092 97.8733 33.6092C96.5534 33.6092 95.8935 33.0441 95.6735 32.3807H91.8118C92.2029 35.0097 94.4759 36.4348 97.9221 36.4348ZM97.8977 28.4248C96.4068 28.4248 95.4291 27.1963 95.4291 25.3044C95.4291 23.3879 96.4068 22.1594 97.8977 22.1594C99.5597 22.1594 100.44 23.5845 100.44 25.2798C100.44 27.0489 99.633 28.4248 97.8977 28.4248Z" fill="#08363B"/>
<path d="M112.018 29.6286C110.283 29.6286 109.379 28.1053 109.379 25.8202C109.379 23.5352 110.283 21.9872 112.018 21.9872C113.754 21.9872 114.682 23.5352 114.682 25.8202C114.682 28.1053 113.754 29.6286 112.018 29.6286ZM112.043 32.4788C116.075 32.4788 118.715 29.6041 118.715 25.8202C118.715 22.0364 116.075 19.1616 112.043 19.1616C108.034 19.1616 105.346 22.0364 105.346 25.8202C105.346 29.6041 108.034 32.4788 112.043 32.4788Z" fill="#08363B"/>
<path d="M119.878 32.086H123.862V19.5059H119.878V32.086ZM119.878 17.7614H123.862V14.5181H119.878V17.7614Z" fill="#08363B"/>
<path d="M125.591 36.2383H129.575V30.7836H129.624C130.406 31.8401 131.554 32.479 133.168 32.479C136.443 32.479 138.618 29.8745 138.618 25.7958C138.618 22.012 136.589 19.1372 133.265 19.1372C131.554 19.1372 130.332 19.8989 129.477 21.0291H129.404V19.5058H125.591V36.2383ZM132.141 29.3831C130.43 29.3831 129.453 27.9826 129.453 25.9432C129.453 23.9039 130.332 22.3559 132.068 22.3559C133.779 22.3559 134.585 23.781 134.585 25.9432C134.585 28.0809 133.656 29.3831 132.141 29.3831Z" fill="#08363B"/>
<path d="M145.104 32.479C148.38 32.479 150.799 31.0539 150.799 28.302C150.799 25.0833 148.208 24.5181 146.009 24.1496C144.42 23.8547 143.002 23.7319 143.002 22.8473C143.002 22.0611 143.76 21.6925 144.738 21.6925C145.838 21.6925 146.595 22.0365 146.742 23.1668H150.408C150.213 20.6851 148.306 19.1372 144.762 19.1372C141.805 19.1372 139.361 20.5132 139.361 23.1668C139.361 26.1152 141.683 26.7049 143.858 27.0735C145.52 27.3683 147.035 27.4912 147.035 28.6214C147.035 29.4322 146.278 29.8745 145.08 29.8745C143.76 29.8745 142.929 29.2602 142.783 28.0071H139.019C139.141 30.7836 141.438 32.479 145.104 32.479Z" fill="#08363B"/>
<path d="M156.21 32.4545C157.945 32.4545 159.045 31.7665 159.949 30.538H160.023V32.0859H163.836V19.5059H159.852V26.533C159.852 28.0318 159.021 29.0638 157.652 29.0638C156.381 29.0638 155.77 28.3021 155.77 26.9261V19.5059H151.811V27.7615C151.811 30.5626 153.326 32.4545 156.21 32.4545Z" fill="#08363B"/>
<path d="M165.569 32.0858H169.553V25.0341C169.553 23.5353 170.287 22.4788 171.533 22.4788C172.731 22.4788 173.293 23.265 173.293 24.6164V32.0858H177.277V25.0341C177.277 23.5353 177.986 22.4788 179.256 22.4788C180.454 22.4788 181.016 23.265 181.016 24.6164V32.0858H185V23.9039C185 21.0783 183.583 19.1372 180.747 19.1372C179.134 19.1372 177.79 19.8252 176.812 21.3485H176.763C176.128 19.9972 174.881 19.1372 173.244 19.1372C171.435 19.1372 170.238 19.9972 169.455 21.2994H169.382V19.5058H165.569V32.0858Z" fill="#08363B"/>
<path d="M40.5539 6.07891L36.5486 5L33.1732 17.6636L30.1259 6.23082L26.1205 7.30973L29.4129 19.662L21.2122 11.418L18.2801 14.3656L27.2752 23.4084L16.0732 20.3909L15 24.4174L27.2396 27.7143C27.0995 27.1067 27.0253 26.4736 27.0253 25.8231C27.0253 21.2186 30.7384 17.486 35.3187 17.486C39.899 17.486 43.612 21.2186 43.612 25.8231C43.612 26.4694 43.5388 27.0986 43.4004 27.7027L54.5239 30.6989L55.5971 26.6724L43.3088 23.3624L54.5116 20.3447L53.4383 16.3183L41.1506 19.6281L49.3512 11.3841L46.4191 8.43652L37.5487 17.3538L40.5539 6.07891Z" fill="#00A8BC"/>
<path d="M43.3893 27.7505C43.0459 29.21 42.3209 30.5211 41.3262 31.5716L49.3847 39.6728L52.3168 36.7252L43.3893 27.7505Z" fill="#00A8BC"/>
<path d="M41.2458 31.6567C40.2391 32.6904 38.9668 33.4618 37.54 33.8594L40.4724 44.8608L44.4777 43.7819L41.2458 31.6567Z" fill="#00A8BC"/>
<path d="M37.3897 33.8987C36.7277 34.0698 36.0339 34.1607 35.3189 34.1607C34.5529 34.1607 33.8111 34.0563 33.1069 33.8608L30.1719 44.8723L34.1772 45.9511L37.3897 33.8987Z" fill="#00A8BC"/>
<path d="M32.9643 33.8231C31.5593 33.4058 30.3097 32.6246 29.3235 31.5879L21.2451 39.7089L24.1772 42.6566L32.9643 33.8231Z" fill="#00A8BC"/>
<path d="M29.2582 31.5136C28.2889 30.4703 27.5828 29.1767 27.2468 27.7397L16.0869 30.7458L17.1601 34.7723L29.2582 31.5136Z" fill="#00A8BC"/>
</svg>
