<svg width="200" height="50" viewBox="0 0 200 50" fill="none" xmlns="http://www.w3.org/2000/svg">
<rect x="0.5" y="0.5" width="199" height="49" stroke="white" stroke-opacity="0.1"/>
<path d="M64.9404 31.8259H77.1041V28.1428H69.2637V14.2698H64.9404V31.8259Z" fill="#08363B"/>
<path d="M84.3096 29.3704C82.5755 29.3704 81.6717 27.8481 81.6717 25.5645C81.6717 23.281 82.5755 21.7341 84.3096 21.7341C86.0438 21.7341 86.972 23.281 86.972 25.5645C86.972 27.8481 86.0438 29.3704 84.3096 29.3704ZM84.3341 32.2187C88.3642 32.2187 91.0021 29.3458 91.0021 25.5645C91.0021 21.7832 88.3642 18.9104 84.3341 18.9104C80.3284 18.9104 77.6416 21.7832 77.6416 25.5645C77.6416 29.3458 80.3284 32.2187 84.3341 32.2187Z" fill="#08363B"/>
<path d="M97.9794 36.1722C99.8357 36.1722 101.472 35.7548 102.571 34.7727C103.573 33.8642 104.232 32.4891 104.232 30.5985V19.2545H100.422V20.605H100.373C99.6403 19.5492 98.5168 18.8862 96.8559 18.8862C93.7539 18.8862 91.6045 21.489 91.6045 25.1721C91.6045 29.027 94.218 31.1387 97.0269 31.1387C98.5412 31.1387 99.4938 30.5248 100.227 29.69H100.324V30.9422C100.324 32.4646 99.6159 33.3485 97.9306 33.3485C96.6116 33.3485 95.9522 32.7838 95.7323 32.1208H91.8732C92.264 34.7481 94.5355 36.1722 97.9794 36.1722ZM97.955 28.1676C96.4651 28.1676 95.4881 26.9399 95.4881 25.0493C95.4881 23.1341 96.4651 21.9064 97.955 21.9064C99.6159 21.9064 100.495 23.3305 100.495 25.0247C100.495 26.7926 99.6892 28.1676 97.955 28.1676Z" fill="#08363B"/>
<path d="M112.066 29.3704C110.331 29.3704 109.428 27.8481 109.428 25.5645C109.428 23.281 110.331 21.7341 112.066 21.7341C113.8 21.7341 114.728 23.281 114.728 25.5645C114.728 27.8481 113.8 29.3704 112.066 29.3704ZM112.09 32.2187C116.12 32.2187 118.757 29.3458 118.757 25.5645C118.757 21.7832 116.12 18.9104 112.09 18.9104C108.084 18.9104 105.397 21.7832 105.397 25.5645C105.397 29.3458 108.084 32.2187 112.09 32.2187Z" fill="#08363B"/>
<path d="M119.922 31.8259H123.903V19.2542H119.922V31.8259ZM119.922 17.5109H123.903V14.2698H119.922V17.5109Z" fill="#08363B"/>
<path d="M125.63 35.9758H129.611V30.5248H129.66C130.442 31.5806 131.59 32.219 133.202 32.219C136.475 32.219 138.648 29.6163 138.648 25.5404C138.648 21.759 136.621 18.8862 133.299 18.8862C131.59 18.8862 130.368 19.6474 129.513 20.7769H129.44V19.2545H125.63V35.9758ZM132.176 29.1252C130.466 29.1252 129.489 27.7257 129.489 25.6877C129.489 23.6497 130.368 22.1028 132.103 22.1028C133.812 22.1028 134.618 23.5269 134.618 25.6877C134.618 27.8239 133.69 29.1252 132.176 29.1252Z" fill="#08363B"/>
<path d="M145.13 32.219C148.403 32.219 150.821 30.7949 150.821 28.0449C150.821 24.8283 148.232 24.2636 146.033 23.8952C144.446 23.6006 143.029 23.4778 143.029 22.5939C143.029 21.8082 143.786 21.4398 144.763 21.4398C145.862 21.4398 146.62 21.7836 146.766 22.9131H150.43C150.235 20.4331 148.329 18.8862 144.788 18.8862C141.832 18.8862 139.39 20.2613 139.39 22.9131C139.39 25.8596 141.71 26.4489 143.884 26.8172C145.545 27.1118 147.059 27.2346 147.059 28.3641C147.059 29.1744 146.302 29.6163 145.105 29.6163C143.786 29.6163 142.956 29.0025 142.809 27.7502H139.048C139.17 30.5248 141.466 32.219 145.13 32.219Z" fill="#08363B"/>
<path d="M156.23 32.1948C157.964 32.1948 159.063 31.5073 159.967 30.2796H160.04V31.8265H163.85V19.2549H159.869V26.2773C159.869 27.7751 159.038 28.8064 157.671 28.8064C156.4 28.8064 155.79 28.0452 155.79 26.6702V19.2549H151.833V27.505C151.833 30.3042 153.347 32.1948 156.23 32.1948Z" fill="#08363B"/>
<path d="M165.582 31.8262H169.563V24.7792C169.563 23.2814 170.296 22.2256 171.542 22.2256C172.739 22.2256 173.3 23.0113 173.3 24.3618V31.8262H177.282V24.7792C177.282 23.2814 177.99 22.2256 179.26 22.2256C180.457 22.2256 181.019 23.0113 181.019 24.3618V31.8262H185V23.6497C185 20.826 183.583 18.8862 180.75 18.8862C179.138 18.8862 177.795 19.5737 176.818 21.0961H176.769C176.134 19.7456 174.888 18.8862 173.251 18.8862C171.444 18.8862 170.247 19.7456 169.466 21.047H169.392V19.2545H165.582V31.8262Z" fill="#08363B"/>
<path fill-rule="evenodd" clip-rule="evenodd" d="M35.1149 45.442C46.224 45.442 55.2297 36.3888 55.2297 25.221C55.2297 14.0533 46.224 5 35.1149 5C24.0057 5 15 14.0533 15 25.221C15 36.3888 24.0057 45.442 35.1149 45.442ZM41.39 14.4198C41.6954 13.3291 40.6425 12.6841 39.6809 13.3728L26.2574 22.9862C25.2145 23.733 25.3786 25.221 26.5038 25.221H30.0386V25.1935H36.9277L31.3144 27.1846L28.8397 36.0223C28.5343 37.113 29.5871 37.7579 30.5488 37.0692L43.9723 27.4559C45.0152 26.7091 44.8511 25.221 43.7259 25.221H38.3655L41.39 14.4198Z" fill="#00A8BC"/>
</svg>
