<svg width="200" height="50" viewBox="0 0 200 50" fill="none" xmlns="http://www.w3.org/2000/svg">
<rect x="0.5" y="0.5" width="199" height="49" stroke="white" stroke-opacity="0.1"/>
<path d="M64.6211 31.8448H76.8172V28.1519H68.9558V14.2419H64.6211V31.8448Z" fill="#08363B"/>
<path d="M84.0442 29.3829C82.3054 29.3829 81.3993 27.8565 81.3993 25.5669C81.3993 23.2773 82.3054 21.7262 84.0442 21.7262C85.783 21.7262 86.7136 23.2773 86.7136 25.5669C86.7136 27.8565 85.783 29.3829 84.0442 29.3829ZM84.0687 32.2387C88.1096 32.2387 90.7545 29.3583 90.7545 25.5669C90.7545 21.7755 88.1096 18.895 84.0687 18.895C80.0523 18.895 77.3584 21.7755 77.3584 25.5669C77.3584 29.3583 80.0523 32.2387 84.0687 32.2387Z" fill="#08363B"/>
<path d="M97.7484 36.2029C99.6096 36.2029 101.25 35.7844 102.353 34.7996C103.357 33.8887 104.018 32.51 104.018 30.6143V19.2401H100.197V20.5942H100.148C99.4137 19.5356 98.2871 18.8708 96.6218 18.8708C93.5116 18.8708 91.3564 21.4805 91.3564 25.1734C91.3564 29.0387 93.9769 31.1559 96.7933 31.1559C98.3116 31.1559 99.2667 30.5404 100.001 29.7034H100.099V30.959C100.099 32.4854 99.3892 33.3717 97.6994 33.3717C96.3769 33.3717 95.7157 32.8054 95.4953 32.1407H91.6258C92.0177 34.775 94.2953 36.2029 97.7484 36.2029ZM97.7239 28.177C96.23 28.177 95.2504 26.946 95.2504 25.0503C95.2504 23.13 96.23 21.899 97.7239 21.899C99.3892 21.899 100.271 23.327 100.271 25.0257C100.271 26.7983 99.4627 28.177 97.7239 28.177Z" fill="#08363B"/>
<path d="M111.873 29.3829C110.135 29.3829 109.228 27.8565 109.228 25.5669C109.228 23.2773 110.135 21.7262 111.873 21.7262C113.612 21.7262 114.543 23.2773 114.543 25.5669C114.543 27.8565 113.612 29.3829 111.873 29.3829ZM111.898 32.2387C115.939 32.2387 118.583 29.3583 118.583 25.5669C118.583 21.7755 115.939 18.895 111.898 18.895C107.881 18.895 105.188 21.7755 105.188 25.5669C105.188 29.3583 107.881 32.2387 111.898 32.2387Z" fill="#08363B"/>
<path d="M119.749 31.8448H123.741V19.2397H119.749V31.8448ZM119.749 17.4917H123.741V14.2419H119.749V17.4917Z" fill="#08363B"/>
<path d="M125.474 36.0059H129.466V30.5404H129.514C130.298 31.5991 131.449 32.2392 133.066 32.2392C136.347 32.2392 138.527 29.6295 138.527 25.5427C138.527 21.7513 136.494 18.8708 133.164 18.8708C131.449 18.8708 130.225 19.6341 129.368 20.7665H129.294V19.2401H125.474V36.0059ZM132.037 29.1371C130.323 29.1371 129.343 27.7338 129.343 25.6904C129.343 23.647 130.225 22.096 131.964 22.096C133.678 22.096 134.486 23.5239 134.486 25.6904C134.486 27.8323 133.555 29.1371 132.037 29.1371Z" fill="#08363B"/>
<path d="M145.024 32.2392C148.305 32.2392 150.73 30.8112 150.73 28.0539C150.73 24.8287 148.134 24.2625 145.93 23.8932C144.338 23.5978 142.918 23.4747 142.918 22.5884C142.918 21.8006 143.677 21.4313 144.656 21.4313C145.759 21.4313 146.518 21.7759 146.665 22.9084H150.338C150.142 20.4219 148.232 18.8708 144.681 18.8708C141.718 18.8708 139.269 20.2495 139.269 22.9084C139.269 25.8628 141.595 26.4536 143.775 26.8229C145.44 27.1183 146.959 27.2414 146.959 28.3739C146.959 29.1864 146.199 29.6295 144.999 29.6295C143.677 29.6295 142.844 29.014 142.697 27.7584H138.926C139.048 30.5404 141.35 32.2392 145.024 32.2392Z" fill="#08363B"/>
<path d="M156.153 32.2149C157.892 32.2149 158.994 31.5255 159.9 30.2946H159.974V31.8456H163.794V19.2405H159.802V26.2816C159.802 27.7834 158.97 28.8174 157.598 28.8174C156.325 28.8174 155.713 28.0542 155.713 26.6755V19.2405H151.745V27.5126C151.745 30.3192 153.263 32.2149 156.153 32.2149Z" fill="#08363B"/>
<path d="M165.53 31.8453H169.522V24.7795C169.522 23.2777 170.257 22.2191 171.506 22.2191C172.706 22.2191 173.269 23.0069 173.269 24.361V31.8453H177.261V24.7795C177.261 23.2777 177.971 22.2191 179.245 22.2191C180.445 22.2191 181.008 23.0069 181.008 24.361V31.8453H185V23.647C185 20.8158 183.579 18.8708 180.739 18.8708C179.122 18.8708 177.775 19.5602 176.796 21.0866H176.747C176.11 19.7325 174.861 18.8708 173.22 18.8708C171.408 18.8708 170.208 19.7325 169.424 21.0374H169.351V19.2401H165.53V31.8453Z" fill="#08363B"/>
<path fill-rule="evenodd" clip-rule="evenodd" d="M23.6248 8.64732C22.182 9.66142 20.8775 10.8604 19.7449 12.2101C24.3729 11.7782 30.2525 12.4835 37.0787 15.9147C44.3682 19.5785 50.238 19.7024 54.3231 18.9103C53.9524 17.7821 53.4857 16.6978 52.933 15.667C48.2567 16.1628 42.2616 15.5065 35.2749 11.9948C30.8382 9.76478 26.9274 8.84615 23.6248 8.64732ZM50.2013 11.7583C46.5084 7.61039 41.1417 5 35.1684 5C33.4142 5 31.7122 5.22516 30.0897 5.64827C32.2872 6.25105 34.6217 7.1329 37.0787 8.36793C42.194 10.939 46.6103 11.7669 50.2013 11.7583ZM55.1965 22.8704C50.2613 23.85 43.4463 23.6488 35.2749 19.5415C27.6355 15.7017 21.5552 15.75 17.4544 16.6661C17.2427 16.7134 17.036 16.7631 16.8343 16.8148C16.2975 17.9886 15.8689 19.2229 15.5614 20.5047C15.8898 20.4165 16.2292 20.3327 16.5793 20.2544C21.5543 19.143 28.5835 19.1913 37.0787 23.4614C44.7182 27.3012 50.7985 27.2529 54.8993 26.3368C55.0398 26.3054 55.1783 26.273 55.3144 26.2395C55.3293 25.9199 55.3368 25.5982 55.3368 25.2749C55.3368 24.4613 55.2892 23.659 55.1965 22.8704ZM54.6559 30.5182C49.7686 31.3772 43.152 31.0475 35.2749 27.0882C27.6355 23.2484 21.5552 23.2967 17.4544 24.2129C16.5441 24.4161 15.7253 24.6638 15.003 24.9252C15.001 25.0415 15 25.1581 15 25.2749C15 36.4724 24.0297 45.5497 35.1684 45.5497C44.5034 45.5497 52.3572 39.1742 54.6559 30.5182Z" fill="#00A8BC"/>
</svg>
