<svg width="60" height="60" viewBox="0 0 60 60" fill="none" xmlns="http://www.w3.org/2000/svg">
<path d="M44.6641 50.5C37.5769 50.5 31.8311 44.7543 31.8311 37.667C31.8311 36.042 31.9138 34.6435 32.2266 32.7744C32.701 29.9395 33.5904 27.1687 35.0029 24.5693C38.7891 17.6022 45.7318 12.8783 56.5586 11.5088C57.4932 11.3907 57.8751 12.6708 57.0283 13.084C51.7706 15.6494 47.8625 18.7513 45.7715 21.6807C45.386 22.2207 45.1562 22.584 44.9756 22.9502C44.7977 23.3109 44.6731 23.6653 44.4932 24.1592L44.249 24.8301H44.9629C51.6504 24.8301 57.496 30.5745 57.4961 37.667C57.4961 44.7543 51.7511 50.4999 44.6641 50.5ZM15.332 50.5C8.24507 50.4998 2.5 44.7542 2.5 37.667C2.50001 36.042 2.58274 34.6435 2.89551 32.7744C3.36991 29.9395 4.25933 27.1687 5.67188 24.5693C9.45804 17.6022 16.4007 12.8783 27.2275 11.5088C28.1619 11.391 28.5437 12.6708 27.6973 13.084C22.4396 15.6494 18.5314 18.7514 16.4404 21.6807C16.0549 22.2208 15.8241 22.5839 15.6436 22.9502C15.4657 23.3109 15.342 23.6653 15.1621 24.1592L14.917 24.8301H15.6318C22.3192 24.8302 28.1649 30.5746 28.165 37.667C28.165 44.7543 22.4192 50.5 15.332 50.5Z" stroke="#00A8BC"/>
</svg>
