<svg width="160" height="160" viewBox="0 0 160 160" fill="none" xmlns="http://www.w3.org/2000/svg">
<rect width="160" height="160" rx="80" fill="#08363B"/>
<circle cx="80" cy="80" r="25" fill="#00A8BC"/>
<path d="M69.4314 78.048C69.828 78.4446 70.4709 78.4446 70.8675 78.048C71.2642 77.6514 71.2642 77.0084 70.8675 76.6118L70.2214 75.9657C69.4541 75.1983 69.0316 74.1783 69.0316 73.0934C69.0316 70.8534 70.8538 69.0311 73.0938 69.0311C74.1787 69.0311 75.1992 69.4536 75.9661 70.221L76.6127 70.8676C77.0093 71.2642 77.6522 71.2642 78.0488 70.8676C78.4454 70.471 78.4454 69.8281 78.0488 69.4314L77.4022 68.7848C76.2514 67.634 74.7214 67 73.0938 67C69.7336 67 67 69.7336 67 73.0939C67 74.7215 67.6339 76.2516 68.7848 77.403L69.4314 78.048Z" fill="white"/>
<path d="M80.7176 87.8998L91.2142 77.403C92.365 76.2521 92.999 74.7215 92.999 73.0939C92.999 69.7337 90.2654 67 86.9057 67C85.2781 67 83.7481 67.634 82.5967 68.7848L68.7848 82.597C67.634 83.7479 67 85.278 67 86.9061C67 90.2664 69.7336 93 73.0938 93C74.7214 93 76.2514 92.366 77.4027 91.2152L80.7176 87.8998ZM79.9997 74.2547L85.7449 80L79.9997 85.7453L74.2546 80L79.9997 74.2547ZM84.0329 70.2215C84.8003 69.4541 85.8203 69.0316 86.9057 69.0316C89.1457 69.0316 90.9679 70.8539 90.9679 73.0939C90.9679 74.1788 90.5454 75.1994 89.778 75.9662L87.181 78.5633L81.4359 72.818L84.0329 70.2215ZM75.9661 89.779C75.1987 90.5464 74.1787 90.9689 73.0938 90.9689C70.8538 90.9689 69.0316 89.1466 69.0316 86.9067C69.0316 85.8217 69.4541 84.8012 70.2215 84.0338L72.8184 81.4367L78.5636 87.182L75.9661 89.779Z" fill="white"/>
<path d="M90.5682 81.9518C90.1716 81.5551 89.5287 81.5551 89.1321 81.9518C88.7355 82.3484 88.7355 82.9913 89.1321 83.388L89.7782 84.0341C90.5455 84.8015 90.968 85.8215 90.968 86.9069C90.968 89.1469 89.1458 90.9692 86.9059 90.9692C85.821 90.9692 84.8004 90.5467 84.0335 89.7793L83.3869 89.1327C82.9903 88.736 82.3474 88.736 81.9508 89.1327C81.5542 89.5293 81.5542 90.1722 81.9508 90.5689L82.5974 91.2155C83.7482 92.3663 85.2788 93.0003 86.9064 93.0003C90.2666 93.0003 92.9996 90.2666 92.9996 86.9064C92.9996 85.2788 92.3657 83.7487 91.2148 82.5973L90.5682 81.9518Z" fill="white"/>
<path d="M80.0002 78.9848C80.5612 78.9848 81.016 78.53 81.016 77.969C81.016 77.4079 80.5612 76.9531 80.0002 76.9531C79.4392 76.9531 78.9844 77.4079 78.9844 77.969C78.9844 78.53 79.4392 78.9848 80.0002 78.9848Z" fill="white"/>
<path d="M80.0002 83.0473C80.5612 83.0473 81.016 82.5925 81.016 82.0314C81.016 81.4704 80.5612 81.0156 80.0002 81.0156C79.4392 81.0156 78.9844 81.4704 78.9844 82.0314C78.9844 82.5925 79.4392 83.0473 80.0002 83.0473Z" fill="white"/>
<path d="M77.9689 81.016C78.5299 81.016 78.9847 80.5612 78.9847 80.0002C78.9847 79.4392 78.5299 78.9844 77.9689 78.9844C77.4079 78.9844 76.9531 79.4392 76.9531 80.0002C76.9531 80.5612 77.4079 81.016 77.9689 81.016Z" fill="white"/>
<path d="M82.0314 81.016C82.5924 81.016 83.0472 80.5612 83.0472 80.0002C83.0472 79.4392 82.5924 78.9844 82.0314 78.9844C81.4704 78.9844 81.0156 79.4392 81.0156 80.0002C81.0156 80.5612 81.4704 81.016 82.0314 81.016Z" fill="white"/>
<path d="M90.8278 24.7615L90.5817 27.0679L81.8026 26.1312L81.9593 24.6618L86.1891 21.1627C87.7986 19.8295 88.4958 19.1138 88.6129 18.0164C88.722 16.9934 88.1073 16.2318 87.0099 16.1147C85.8009 15.9857 84.9755 16.6689 84.8445 17.8965L82.3336 17.6286C82.6015 15.1176 84.6892 13.5345 87.3862 13.8222C89.8971 14.0901 91.5698 15.8676 91.3436 17.988C91.1809 19.5131 90.5197 20.4208 88.0887 22.4L85.9732 24.2435L90.8278 24.7615Z" fill="white"/>
<path d="M97.241 29.1599C94.6848 28.3106 93.2807 26.0702 93.9528 23.8099L96.4202 24.6297C96.2143 25.7242 96.8362 26.5813 97.9546 26.9528C99.4102 27.4364 100.267 26.6962 100.592 25.7198C100.904 24.779 100.601 23.614 99.1456 23.1304C98.187 22.812 97.3472 22.9666 96.7032 23.6593L94.8977 22.3302L98.1802 15.9504L105.121 18.2563L104.39 20.4575L99.2418 18.7472L98.0552 21.073C98.7885 20.883 99.5398 20.9355 100.25 21.1714C103.108 22.1209 103.82 24.5454 103.148 26.5691C102.464 28.6282 100.259 30.1624 97.241 29.1599Z" fill="white"/>
<path d="M110.356 33.2276L108.283 31.9569L110.091 29.0065L107.141 27.1982L108.314 25.2844L111.264 27.0927L113.073 24.1423L115.146 25.413L113.337 28.3634L116.288 30.1717L115.115 32.0855L112.164 30.2772L110.356 33.2276Z" fill="white"/>
<path d="M126.013 42.9427L122.198 46.2521L120.335 44.1044L124.15 40.795L127.367 31.7148L129.377 34.0322L127.107 40.2358L133.606 38.907L135.481 41.0689L126.013 42.9427Z" fill="white"/>
<path d="M127.278 54.2763C125.852 51.645 126.724 48.896 129.47 47.4078C132.085 45.9908 134.982 46.7825 136.355 49.3152C137.861 52.0946 136.606 55.1575 133.521 56.2969L130.144 50.0639C128.793 50.9873 128.378 52.1058 129.011 53.2734C129.555 54.2766 130.413 54.6836 131.428 54.4744L132.657 56.7439C130.4 57.3289 128.436 56.4143 127.278 54.2763ZM134.651 50.1749C134.071 49.1059 133.015 48.8059 131.609 49.3126L133.659 53.0952C134.84 52.3699 135.239 51.2603 134.651 50.1749Z" fill="white"/>
<path d="M132.23 66.3763L133.415 66.0298C132.334 65.6639 131.589 64.8489 131.205 63.5383C130.623 61.5454 131.401 59.8756 133.197 59.3507C135.064 58.8047 136.51 60.0188 137.329 62.8196C137.487 63.3582 137.587 63.8355 137.689 64.449L138.263 64.281C139.34 63.966 139.79 63.1719 139.486 62.1306C139.171 61.0533 138.353 60.5907 137.25 60.8159L136.594 58.5717C138.844 58.0697 140.748 59.2476 141.425 61.5636C142.16 64.0771 141.208 65.9535 138.856 66.6412L132.823 68.4051L132.23 66.3763ZM133.956 61.6816C133.148 61.9178 132.814 62.6393 133.087 63.5729C133.459 64.8476 134.385 65.4149 135.498 65.0894L136.181 64.8899C136.097 64.2712 136.012 63.8478 135.886 63.4169C135.472 61.9986 134.818 61.4296 133.956 61.6816Z" fill="white"/>
<path d="M138.351 73.2878L133.531 73.7793L133.268 71.1927L143.205 70.1794L143.448 72.5613L141.531 72.7567C142.87 73.3534 143.791 74.8202 143.954 76.4205L141.274 76.6938C141.218 74.4809 140.547 73.0639 138.351 73.2878Z" fill="white"/>
<path d="M136.503 88.4874C134.415 88.3189 133.256 86.6303 133.485 83.7963C133.714 80.9623 135.203 79.4873 137.438 79.4613L137.238 81.941C136.211 81.8769 135.488 82.7006 135.384 83.9871C135.303 84.9939 135.558 85.7839 136.266 85.8411C136.9 85.8922 137.195 85.5031 137.458 84.5672L137.938 82.8044C138.399 81.0401 139.475 80.0384 141.022 80.1633C142.868 80.3122 144.027 82.0008 143.826 84.4806C143.625 86.979 142.163 88.5875 140.003 88.6009L140.204 86.1212C141.181 86.1062 141.836 85.4272 141.925 84.3272C142.001 83.3763 141.698 82.7138 141.064 82.6626C140.468 82.6145 140.192 83.0051 139.952 83.8865L139.443 85.7783C138.914 87.6873 137.939 88.6033 136.503 88.4874Z" fill="white"/>
<path d="M129.256 100.492C130.788 96.9358 134.721 95.3712 138.414 96.9623C142.108 98.5534 143.638 102.471 142.106 106.027C140.567 109.601 136.661 111.197 132.968 109.606C129.274 108.015 127.717 104.065 129.256 100.492ZM131.593 101.498C130.616 103.766 131.862 105.932 134.13 106.909C136.397 107.886 138.793 107.289 139.77 105.021C140.739 102.77 139.528 100.619 137.26 99.6422C134.992 98.6654 132.562 99.2478 131.593 101.498Z" fill="white"/>
<path d="M123.188 111.513L124.71 109.428L130.981 114.004L132.171 112.372L133.97 113.684L132.779 115.316L133.217 115.635C134.819 116.804 135.097 118.327 133.873 120.004C133.498 120.518 133.087 120.89 132.683 121.127L131.021 119.914C131.277 119.754 131.543 119.485 131.741 119.213C132.16 118.639 132.209 118.096 131.65 117.688L131.257 117.401L129.724 119.501L127.926 118.189L129.459 116.089L123.188 111.513Z" fill="white"/>
<path d="M112.39 122.282L120.408 127.544L115.263 120.254L117.372 118.766L125.116 129.738L122.335 131.701L113.418 125.815L115.962 136.199L113.181 138.162L105.436 127.19L107.545 125.701L112.733 133.052L110.449 123.652L112.39 122.282Z" fill="white"/>
<path d="M97.9425 129.72C100.77 128.739 103.341 130.045 104.365 132.996C105.34 135.806 104.09 138.536 101.369 139.48C98.3822 140.517 95.5629 138.782 94.9377 135.554L101.635 133.23C100.943 131.748 99.9063 131.157 98.6516 131.593C97.5736 131.967 97.033 132.748 97.0753 133.783L94.6365 134.629C94.4247 132.307 95.6451 130.517 97.9425 129.72ZM100.796 137.659C101.945 137.261 102.412 136.267 102.14 134.798L98.0751 136.208C98.5995 137.491 99.6299 138.064 100.796 137.659Z" fill="white"/>
<path d="M92.4739 136.826C92.7992 139.764 91.3151 142.167 88.6379 142.464C87.448 142.596 86.3864 142.186 85.5378 141.32L86.0586 146.024L83.4929 146.308L82.0149 132.959L84.376 132.698L84.5345 134.129C85.2001 133.002 86.2146 132.306 87.4975 132.164C90.1747 131.868 92.1528 133.926 92.4739 136.826ZM89.8153 137.12C89.6095 135.261 88.4406 134.393 87.1764 134.533C85.8935 134.675 84.945 135.797 85.1529 137.674C85.3608 139.552 86.5441 140.381 87.8084 140.241C89.0726 140.101 90.0253 139.017 89.8153 137.12Z" fill="white"/>
<path d="M75.2502 144.898C75.301 144.02 76.0484 143.407 77.0754 143.467C78.0839 143.525 78.7557 144.22 78.7049 145.097C78.652 146.012 77.9046 146.625 76.8962 146.567C75.8691 146.507 75.1973 145.813 75.2502 144.898ZM76.3714 132.634L78.9671 132.784L78.3906 142.756L75.7949 142.606L76.3714 132.634Z" fill="white"/>
<path d="M69.2671 131.386C72.0803 132.006 73.5579 134.515 72.9019 137.493C72.258 140.415 69.7777 142.11 67.0376 141.506C64.4984 140.947 62.9952 138.815 63.2642 136.116L65.9312 136.704C65.7733 138.029 66.3817 139.006 67.5326 139.26C68.8478 139.549 69.9256 138.657 70.3079 136.921C70.6943 135.168 70.1056 133.927 68.7721 133.633C67.603 133.376 66.685 133.978 66.2451 135.279L63.5781 134.692C64.4619 132.071 66.6549 130.811 69.2671 131.386Z" fill="white"/>
<path d="M56.7823 127.211L56.2688 128.333C57.2532 127.755 58.357 127.725 59.5988 128.293C61.487 129.157 62.2401 130.838 61.462 132.539C60.6529 134.308 58.7883 134.607 56.1347 133.394C55.6243 133.16 55.1976 132.924 54.6674 132.599L54.4184 133.143C53.9516 134.164 54.2577 135.024 55.2443 135.475C56.2649 135.942 57.1496 135.627 57.7015 134.645L59.8278 135.618C58.7348 137.648 56.5984 138.316 54.404 137.312C52.0225 136.223 51.2267 134.275 52.2459 132.047L54.8601 126.331L56.7823 127.211ZM59.2025 131.588C59.5526 130.823 59.2261 130.097 58.3416 129.693C57.1338 129.14 56.099 129.469 55.6166 130.524L55.3209 131.17C55.8434 131.512 56.2191 131.725 56.6273 131.912C57.9712 132.526 58.8291 132.404 59.2025 131.588Z" fill="white"/>
<path d="M50.3481 123.376L52.5325 124.82L45.125 136.023L42.9406 134.579L50.3481 123.376Z" fill="white"/>
<path d="M36.5152 113.922L38.3288 112.246L44.4597 118.882L34.5947 127.996L28.5527 121.456L30.3663 119.781L34.479 124.232L36.5536 122.316L32.8218 118.276L34.6217 116.613L38.3535 120.653L40.7167 118.469L36.5152 113.922Z" fill="white"/>
<path d="M35.7072 108.291L37.1531 110.804L31.064 110.423L28.3832 115.591L26.8907 112.996L28.8571 109.513L24.8478 109.446L23.4858 107.079L29.3633 107.279L32.0226 101.887L33.4964 104.448L31.5028 108.185L35.7072 108.291Z" fill="white"/>
<path d="M23.3427 91.4213C26.1722 90.5677 28.8057 91.5903 29.5837 94.1691C29.9241 95.2973 29.7323 96.4102 29.0172 97.4074L33.7091 95.992L34.4601 98.4812L21.4408 102.409L20.7493 100.117L22.1461 99.6952C20.9038 99.2689 20.0299 98.3798 19.6626 97.1621C18.8846 94.5833 20.5311 92.2695 23.3427 91.4213ZM24.1153 93.9822C22.3245 94.5225 21.6654 95.835 22.0327 97.0527C22.4001 98.2705 23.6572 99.0049 25.4659 98.4592C27.2747 97.9136 27.898 96.6119 27.5306 95.3941C27.1632 94.1764 25.9419 93.4311 24.1153 93.9822Z" fill="white"/>
<path d="M27.6564 83.2258C27.8593 86.2117 25.9236 88.3494 22.807 88.5613C19.8396 88.763 17.534 86.8386 17.3386 83.9647C17.1242 80.8107 19.5389 78.5468 22.8178 78.7926L23.2987 85.8656C24.9109 85.5872 25.7534 84.7425 25.6633 83.4175C25.5859 82.2791 24.974 81.552 23.9646 81.3207L23.7896 78.7453C26.0858 79.1516 27.4914 80.7997 27.6564 83.2258ZM19.246 83.8912C19.3284 85.1043 20.1643 85.8162 21.6538 85.9399L21.362 81.6476C19.9861 81.8161 19.1623 82.6595 19.246 83.8912Z" fill="white"/>
<path d="M22.9004 72.8477L27.7104 73.4268L27.3996 76.0082L17.4825 74.8142L17.7687 72.4371L19.6816 72.6674C18.5059 71.7911 17.9301 70.158 18.1224 68.5609L20.7967 68.8828C20.3657 71.0541 20.709 72.5839 22.9004 72.8477Z" fill="white"/>
<path d="M17.4945 61.7192C18.346 61.9381 18.8031 62.7895 18.5471 63.7859C18.2956 64.7642 17.4846 65.2896 16.6331 65.0708C15.7454 64.8426 15.2883 63.9913 15.5397 63.013C15.7958 62.0165 16.6068 61.4911 17.4945 61.7192ZM29.3128 65.1815L28.6657 67.6997L18.9913 65.2133L19.6385 62.6951L29.3128 65.1815Z" fill="white"/>
<path d="M31.9524 58.3117C30.7521 61.0533 28.0474 62.0541 25.1858 60.8013C22.4613 59.6085 21.3063 56.8363 22.4616 54.1975C23.7294 51.3016 26.9172 50.4103 29.7112 52.144L26.8679 58.6382C28.4262 59.1366 29.5638 58.777 30.0964 57.5604C30.554 56.5152 30.3476 55.5876 29.5594 54.9158L30.5947 52.5512C32.443 53.973 32.9276 56.0842 31.9524 58.3117ZM24.1869 55.0141C23.6993 56.1279 24.1114 57.1455 25.3751 57.9437L27.1005 54.0027C25.8025 53.5161 24.682 53.8832 24.1869 55.0141Z" fill="white"/>
<path d="M32.113 46.4338L36.504 49.6507L34.9674 51.7481L26.9097 45.8449L28.3247 43.9135L29.4715 44.7537C29.1029 43.5793 29.2129 42.3846 29.9868 41.3283C31.1696 39.7138 33.0439 39.371 34.9904 40.797L40.1962 44.6109L38.6707 46.6932L34.1741 43.3989C32.982 42.5256 31.9754 42.507 31.279 43.4576C30.6709 44.2875 30.8153 45.4831 32.113 46.4338Z" fill="white"/>
<path d="M45.4959 39.7729C43.332 41.6744 40.435 41.3815 38.4223 39.0913C36.4466 36.8432 36.5475 33.841 38.6552 31.9888C40.6082 30.2725 43.2161 30.3214 45.2331 32.1348L43.1817 33.9376C42.2066 33.0264 41.0591 32.9391 40.1739 33.717C39.1623 34.6061 39.2445 36.0031 40.4175 37.3379C41.6029 38.6867 42.9514 38.946 43.9771 38.0447C44.8763 37.2544 44.9338 36.158 44.1448 35.0335L46.1962 33.2307C47.7865 35.4938 47.5051 38.0072 45.4959 39.7729Z" fill="white"/>
<path d="M54.9148 33.0969C52.2963 34.5461 49.5397 33.6986 48.027 30.9655C46.5868 28.3633 47.3528 25.4594 49.8732 24.0645C52.639 22.5338 55.713 23.7615 56.8799 26.8356L50.6771 30.2685C51.6124 31.6108 52.7346 32.016 53.8966 31.3729C54.8949 30.8203 55.2942 29.958 55.076 28.9457L57.3345 27.6957C57.9395 29.9477 57.0424 31.9193 54.9148 33.0969ZM50.7479 25.7611C49.6842 26.3498 49.3936 27.4085 49.9127 28.8102L53.6769 26.7269C52.9412 25.552 51.8281 25.1632 50.7479 25.7611Z" fill="white"/>
<path d="M66.7472 19.7662L65.5712 22.3223L63.8424 21.5696L65.0436 19.1229L62.3433 18.9017L62.4805 17.0847L65.2705 17.3619L64.5678 14.8174L66.5362 14.3629L67.0202 16.958L69.4063 15.4855L70.3262 17.0585L67.9962 18.4412L70.1485 20.1135L68.9247 21.548L66.7472 19.7662Z" fill="white"/>
</svg>
