<svg width="160" height="160" viewBox="0 0 160 160" fill="none" xmlns="http://www.w3.org/2000/svg">
<rect width="160" height="160" rx="80" fill="white"/>
<circle cx="80" cy="80" r="25" fill="#00A8BC"/>
<path d="M69.4314 78.048C69.828 78.4446 70.4709 78.4446 70.8675 78.048C71.2642 77.6514 71.2642 77.0084 70.8675 76.6118L70.2214 75.9657C69.4541 75.1983 69.0316 74.1783 69.0316 73.0934C69.0316 70.8534 70.8538 69.0311 73.0938 69.0311C74.1787 69.0311 75.1992 69.4536 75.9661 70.221L76.6127 70.8676C77.0093 71.2642 77.6522 71.2642 78.0488 70.8676C78.4454 70.471 78.4454 69.8281 78.0488 69.4314L77.4022 68.7848C76.2514 67.634 74.7214 67 73.0938 67C69.7336 67 67 69.7336 67 73.0939C67 74.7215 67.6339 76.2516 68.7848 77.403L69.4314 78.048Z" fill="white"/>
<path d="M80.7176 87.8998L91.2142 77.403C92.365 76.2521 92.999 74.7215 92.999 73.0939C92.999 69.7337 90.2654 67 86.9057 67C85.2781 67 83.7481 67.634 82.5967 68.7848L68.7848 82.597C67.634 83.7479 67 85.278 67 86.9061C67 90.2664 69.7336 93 73.0938 93C74.7214 93 76.2514 92.366 77.4027 91.2152L80.7176 87.8998ZM79.9997 74.2547L85.7449 80L79.9997 85.7453L74.2546 80L79.9997 74.2547ZM84.0329 70.2215C84.8003 69.4541 85.8203 69.0316 86.9057 69.0316C89.1457 69.0316 90.9679 70.8539 90.9679 73.0939C90.9679 74.1788 90.5454 75.1994 89.778 75.9662L87.181 78.5633L81.4359 72.818L84.0329 70.2215ZM75.9661 89.779C75.1987 90.5464 74.1787 90.9689 73.0938 90.9689C70.8538 90.9689 69.0316 89.1466 69.0316 86.9067C69.0316 85.8217 69.4541 84.8012 70.2215 84.0338L72.8184 81.4367L78.5636 87.182L75.9661 89.779Z" fill="white"/>
<path d="M90.5673 81.9518C90.1706 81.5551 89.5277 81.5551 89.1311 81.9518C88.7345 82.3484 88.7345 82.9913 89.1311 83.388L89.7772 84.0341C90.5446 84.8015 90.967 85.8215 90.967 86.9069C90.967 89.1469 89.1448 90.9692 86.9049 90.9692C85.82 90.9692 84.7994 90.5467 84.0326 89.7793L83.386 89.1327C82.9893 88.736 82.3464 88.736 81.9498 89.1327C81.5532 89.5293 81.5532 90.1722 81.9498 90.5689L82.5964 91.2155C83.7472 92.3663 85.2778 93.0003 86.9054 93.0003C90.2656 93.0003 92.9986 90.2666 92.9986 86.9064C92.9986 85.2788 92.3647 83.7487 91.2139 82.5973L90.5673 81.9518Z" fill="white"/>
<path d="M80.0002 78.9848C80.5612 78.9848 81.016 78.53 81.016 77.969C81.016 77.4079 80.5612 76.9531 80.0002 76.9531C79.4392 76.9531 78.9844 77.4079 78.9844 77.969C78.9844 78.53 79.4392 78.9848 80.0002 78.9848Z" fill="white"/>
<path d="M80.0002 83.0473C80.5612 83.0473 81.016 82.5925 81.016 82.0314C81.016 81.4704 80.5612 81.0156 80.0002 81.0156C79.4392 81.0156 78.9844 81.4704 78.9844 82.0314C78.9844 82.5925 79.4392 83.0473 80.0002 83.0473Z" fill="white"/>
<path d="M77.9689 81.016C78.5299 81.016 78.9847 80.5612 78.9847 80.0002C78.9847 79.4392 78.5299 78.9844 77.9689 78.9844C77.4079 78.9844 76.9531 79.4392 76.9531 80.0002C76.9531 80.5612 77.4079 81.016 77.9689 81.016Z" fill="white"/>
<path d="M82.0314 81.016C82.5924 81.016 83.0472 80.5612 83.0472 80.0002C83.0472 79.4392 82.5924 78.9844 82.0314 78.9844C81.4704 78.9844 81.0156 79.4392 81.0156 80.0002C81.0156 80.5612 81.4704 81.016 82.0314 81.016Z" fill="white"/>
<path d="M90.8288 24.7625L90.5827 27.0689L81.8035 26.1321L81.9603 24.6628L86.1901 21.1636C87.7996 19.8305 88.4968 19.1148 88.6139 18.0174C88.723 16.9944 88.1082 16.2328 87.0108 16.1157C85.8019 15.9867 84.9765 16.6699 84.8455 17.8975L82.3345 17.6296C82.6024 15.1186 84.6902 13.5354 87.3871 13.8232C89.8981 14.0911 91.5708 15.8686 91.3446 17.9889C91.1818 19.5141 90.5206 20.4218 88.0897 22.401L85.9742 24.2445L90.8288 24.7625Z" fill="#08363B"/>
<path d="M97.241 29.1608C94.6848 28.3116 93.2807 26.0712 93.9528 23.8109L96.4202 24.6306C96.2143 25.7252 96.8362 26.5822 97.9546 26.9538C99.4102 27.4374 100.267 26.6971 100.591 25.7208C100.904 24.78 100.601 23.615 99.1456 23.1314C98.187 22.8129 97.3472 22.9676 96.7032 23.6603L94.8977 22.3312L98.1802 15.9514L105.121 18.2573L104.39 20.4585L99.2418 18.7482L98.0552 21.074C98.7885 20.884 99.5398 20.9365 100.25 21.1724C103.108 22.1219 103.82 24.5464 103.148 26.57C102.464 28.6292 100.259 30.1634 97.241 29.1608Z" fill="#08363B"/>
<path d="M110.355 33.2286L108.282 31.9579L110.09 29.0075L107.14 27.1992L108.313 25.2854L111.263 27.0937L113.072 24.1433L115.145 25.414L113.336 28.3644L116.287 30.1727L115.114 32.0865L112.164 30.2782L110.355 33.2286Z" fill="#08363B"/>
<path d="M126.013 42.9437L122.198 46.2531L120.335 44.1053L124.15 40.796L127.367 31.7158L129.377 34.0331L127.107 40.2368L133.606 38.908L135.481 41.0699L126.013 42.9437Z" fill="#08363B"/>
<path d="M127.277 54.2763C125.851 51.645 126.723 48.896 129.47 47.4078C132.084 45.9908 134.981 46.7825 136.354 49.3152C137.86 52.0946 136.605 55.1575 133.521 56.2969L130.143 50.0639C128.792 50.9873 128.377 52.1058 129.01 53.2734C129.554 54.2766 130.412 54.6836 131.427 54.4744L132.656 56.7439C130.399 57.3289 128.435 56.4143 127.277 54.2763ZM134.65 50.1749C134.07 49.1059 133.014 48.8059 131.608 49.3126L133.658 53.0952C134.839 52.3699 135.238 51.2603 134.65 50.1749Z" fill="#08363B"/>
<path d="M132.229 66.3763L133.414 66.0298C132.333 65.6639 131.588 64.8489 131.205 63.5383C130.622 61.5454 131.4 59.8756 133.196 59.3507C135.063 58.8047 136.509 60.0188 137.328 62.8196C137.486 63.3582 137.586 63.8355 137.688 64.449L138.262 64.281C139.339 63.966 139.789 63.1719 139.485 62.1306C139.17 61.0533 138.352 60.5907 137.249 60.8159L136.593 58.5717C138.843 58.0697 140.747 59.2476 141.424 61.5636C142.159 64.0771 141.207 65.9535 138.855 66.6412L132.822 68.4051L132.229 66.3763ZM133.955 61.6816C133.147 61.9178 132.813 62.6393 133.086 63.5729C133.458 64.8476 134.384 65.4149 135.497 65.0894L136.18 64.8899C136.096 64.2712 136.011 63.8478 135.885 63.4169C135.471 61.9986 134.817 61.4296 133.955 61.6816Z" fill="#08363B"/>
<path d="M138.351 73.2888L133.531 73.7803L133.268 71.1936L143.205 70.1803L143.448 72.5623L141.531 72.7577C142.87 73.3544 143.791 74.8212 143.954 76.4215L141.274 76.6948C141.218 74.4818 140.547 73.0649 138.351 73.2888Z" fill="#08363B"/>
<path d="M136.503 88.4874C134.415 88.3189 133.256 86.6303 133.485 83.7963C133.714 80.9623 135.203 79.4873 137.438 79.4613L137.238 81.941C136.211 81.8769 135.488 82.7006 135.384 83.9871C135.303 84.9939 135.558 85.7839 136.266 85.8411C136.9 85.8922 137.195 85.5031 137.458 84.5672L137.938 82.8044C138.399 81.0401 139.475 80.0384 141.022 80.1633C142.868 80.3122 144.027 82.0008 143.826 84.4806C143.625 86.979 142.163 88.5875 140.003 88.6009L140.204 86.1212C141.181 86.1062 141.836 85.4272 141.925 84.3272C142.001 83.3763 141.698 82.7138 141.064 82.6626C140.468 82.6145 140.192 83.0051 139.952 83.8865L139.443 85.7783C138.914 87.6873 137.939 88.6033 136.503 88.4874Z" fill="#08363B"/>
<path d="M129.256 100.493C130.788 96.9367 134.721 95.3722 138.414 96.9633C142.108 98.5544 143.638 102.472 142.106 106.028C140.567 109.602 136.661 111.198 132.968 109.607C129.274 108.016 127.717 104.066 129.256 100.493ZM131.593 101.499C130.616 103.767 131.862 105.933 134.13 106.91C136.397 107.887 138.793 107.29 139.77 105.022C140.739 102.771 139.528 100.62 137.26 99.6432C134.992 98.6663 132.562 99.2488 131.593 101.499Z" fill="#08363B"/>
<path d="M123.188 111.513L124.71 109.428L130.981 114.004L132.171 112.372L133.97 113.684L132.779 115.316L133.217 115.635C134.819 116.804 135.097 118.327 133.873 120.004C133.498 120.518 133.087 120.89 132.683 121.127L131.021 119.914C131.277 119.754 131.543 119.485 131.741 119.213C132.16 118.639 132.209 118.096 131.65 117.688L131.257 117.401L129.724 119.501L127.926 118.189L129.459 116.089L123.188 111.513Z" fill="#08363B"/>
<path d="M112.391 122.282L120.409 127.544L115.264 120.254L117.373 118.766L125.117 129.738L122.336 131.701L113.419 125.815L115.963 136.199L113.182 138.162L105.437 127.19L107.546 125.701L112.734 133.052L110.45 123.652L112.391 122.282Z" fill="#08363B"/>
<path d="M97.9415 129.72C100.769 128.739 103.34 130.045 104.365 132.996C105.339 135.806 104.089 138.536 101.368 139.48C98.3812 140.517 95.5619 138.782 94.9367 135.554L101.634 133.23C100.942 131.748 99.9053 131.157 98.6506 131.593C97.5726 131.967 97.032 132.748 97.0743 133.783L94.6356 134.629C94.4238 132.307 95.6441 130.517 97.9415 129.72ZM100.795 137.659C101.944 137.261 102.411 136.267 102.139 134.798L98.0741 136.208C98.5986 137.491 99.629 138.064 100.795 137.659Z" fill="#08363B"/>
<path d="M92.4739 136.828C92.7992 139.766 91.3151 142.169 88.6379 142.466C87.448 142.598 86.3864 142.188 85.5378 141.322L86.0586 146.026L83.4929 146.31L82.0149 132.961L84.376 132.7L84.5345 134.131C85.2001 133.004 86.2146 132.308 87.4975 132.166C90.1747 131.87 92.1528 133.928 92.4739 136.828ZM89.8153 137.122C89.6095 135.263 88.4406 134.395 87.1764 134.535C85.8935 134.677 84.945 135.798 85.1529 137.676C85.3608 139.554 86.5441 140.383 87.8084 140.243C89.0726 140.103 90.0253 139.019 89.8153 137.122Z" fill="#08363B"/>
<path d="M75.2492 144.899C75.3 144.021 76.0474 143.408 77.0745 143.468C78.0829 143.526 78.7547 144.221 78.704 145.098C78.6511 146.013 77.9037 146.626 76.8953 146.568C75.8682 146.508 75.1963 145.814 75.2492 144.899ZM76.3705 132.635L78.9662 132.785L78.3897 142.757L75.7939 142.607L76.3705 132.635Z" fill="#08363B"/>
<path d="M69.2671 131.387C72.0803 132.007 73.5579 134.516 72.9019 137.494C72.258 140.416 69.7777 142.111 67.0376 141.507C64.4984 140.948 62.9952 138.816 63.2642 136.117L65.9312 136.705C65.7733 138.03 66.3817 139.007 67.5326 139.26C68.8478 139.55 69.9256 138.658 70.3079 136.922C70.6943 135.169 70.1056 133.928 68.7721 133.634C67.603 133.377 66.685 133.979 66.2451 135.28L63.5781 134.693C64.4619 132.072 66.6549 130.812 69.2671 131.387Z" fill="#08363B"/>
<path d="M56.7823 127.211L56.2688 128.333C57.2532 127.755 58.357 127.725 59.5988 128.293C61.487 129.157 62.2401 130.838 61.462 132.539C60.6529 134.308 58.7883 134.607 56.1347 133.394C55.6243 133.16 55.1976 132.924 54.6674 132.599L54.4184 133.143C53.9516 134.164 54.2577 135.024 55.2443 135.475C56.2649 135.942 57.1496 135.627 57.7015 134.645L59.8278 135.618C58.7348 137.648 56.5984 138.316 54.404 137.312C52.0225 136.223 51.2267 134.275 52.2459 132.047L54.8601 126.331L56.7823 127.211ZM59.2025 131.588C59.5526 130.823 59.2261 130.097 58.3416 129.693C57.1338 129.14 56.099 129.469 55.6166 130.524L55.3209 131.17C55.8434 131.512 56.2191 131.725 56.6273 131.912C57.9712 132.526 58.8291 132.404 59.2025 131.588Z" fill="#08363B"/>
<path d="M50.3481 123.376L52.5325 124.82L45.125 136.023L42.9406 134.579L50.3481 123.376Z" fill="#08363B"/>
<path d="M36.5142 113.922L38.3278 112.246L44.4587 118.882L34.5938 127.996L28.5517 121.456L30.3653 119.781L34.478 124.232L36.5526 122.316L32.8208 118.276L34.6207 116.613L38.3525 120.653L40.7157 118.469L36.5142 113.922Z" fill="#08363B"/>
<path d="M35.7082 108.291L37.1541 110.804L31.0649 110.423L28.3842 115.591L26.8916 112.996L28.8581 109.513L24.8487 109.446L23.4868 107.079L29.3643 107.279L32.0235 101.887L33.4974 104.448L31.5038 108.185L35.7082 108.291Z" fill="#08363B"/>
<path d="M23.3427 91.4223C26.1722 90.5687 28.8057 91.5913 29.5837 94.17C29.9241 95.2982 29.7323 96.4112 29.0172 97.4084L33.7091 95.9929L34.4601 98.4822L21.4408 102.41L20.7493 100.118L22.1461 99.6962C20.9038 99.2699 20.0299 98.3808 19.6626 97.1631C18.8846 94.5843 20.5311 92.2705 23.3427 91.4223ZM24.1153 93.9832C22.3245 94.5234 21.6654 95.8359 22.0327 97.0537C22.4001 98.2714 23.6572 99.0059 25.4659 98.4602C27.2747 97.9146 27.898 96.6129 27.5306 95.3951C27.1632 94.1773 25.9419 93.4321 24.1153 93.9832Z" fill="#08363B"/>
<path d="M27.6573 83.2268C27.8603 86.2127 25.9245 88.3504 22.8079 88.5623C19.8406 88.764 17.535 86.8396 17.3396 83.9656C17.1252 80.8117 19.5398 78.5477 22.8188 78.7935L23.2996 85.8665C24.9118 85.5882 25.7543 84.7435 25.6643 83.4185C25.5869 82.2801 24.975 81.553 23.9656 81.3216L23.7905 78.7462C26.0867 79.1526 27.4924 80.8007 27.6573 83.2268ZM19.247 83.8922C19.3294 85.1053 20.1653 85.8171 21.6548 85.9409L21.363 81.6485C19.9871 81.8171 19.1632 82.6605 19.247 83.8922Z" fill="#08363B"/>
<path d="M22.9004 72.8477L27.7104 73.4268L27.3996 76.0082L17.4825 74.8142L17.7687 72.4371L19.6816 72.6674C18.5059 71.7911 17.9301 70.158 18.1224 68.5609L20.7967 68.8828C20.3657 71.0541 20.709 72.5839 22.9004 72.8477Z" fill="#08363B"/>
<path d="M17.4945 61.7212C18.346 61.94 18.8031 62.7914 18.5471 63.7878C18.2956 64.7661 17.4846 65.2916 16.6331 65.0727C15.7454 64.8446 15.2883 63.9932 15.5397 63.0149C15.7958 62.0185 16.6068 61.493 17.4945 61.7212ZM29.3128 65.1834L28.6657 67.7016L18.9913 65.2153L19.6385 62.6971L29.3128 65.1834Z" fill="#08363B"/>
<path d="M31.9514 58.3117C30.7511 61.0533 28.0464 62.0541 25.1848 60.8013C22.4603 59.6085 21.3054 56.8363 22.4607 54.1975C23.7285 51.3016 26.9162 50.4103 29.7102 52.144L26.867 58.6382C28.4252 59.1366 29.5628 58.777 30.0955 57.5604C30.5531 56.5152 30.3466 55.5876 29.5585 54.9158L30.5937 52.5512C32.442 53.973 32.9267 56.0842 31.9514 58.3117ZM24.1859 55.0141C23.6983 56.1279 24.1104 57.1455 25.3741 57.9437L27.0995 54.0027C25.8015 53.5161 24.6811 53.8832 24.1859 55.0141Z" fill="#08363B"/>
<path d="M32.112 46.4357L36.503 49.6526L34.9664 51.75L26.9087 45.8469L28.3237 43.9155L29.4705 44.7556C29.1019 43.5812 29.212 42.3865 29.9858 41.3303C31.1686 39.7157 33.0429 39.3729 34.9895 40.799L40.1953 44.6128L38.6697 46.6952L34.1731 43.4009C32.981 42.5276 31.9744 42.5089 31.278 43.4595C30.67 44.2895 30.8143 45.485 32.112 46.4357Z" fill="#08363B"/>
<path d="M45.4959 39.7729C43.332 41.6744 40.435 41.3815 38.4223 39.0913C36.4466 36.8432 36.5475 33.841 38.6552 31.9888C40.6082 30.2725 43.2161 30.3214 45.2331 32.1348L43.1817 33.9376C42.2066 33.0264 41.0591 32.9391 40.1739 33.717C39.1623 34.6061 39.2445 36.0031 40.4175 37.3379C41.6029 38.6867 42.9514 38.946 43.9771 38.0447C44.8763 37.2544 44.9338 36.158 44.1448 35.0335L46.1962 33.2307C47.7865 35.4938 47.5051 38.0072 45.4959 39.7729Z" fill="#08363B"/>
<path d="M54.9139 33.0988C52.2953 34.548 49.5387 33.7006 48.026 30.9675C46.5859 28.3653 47.3518 25.4614 49.8722 24.0665C52.6381 22.5357 55.712 23.7634 56.8789 26.8376L50.6761 30.2704C51.6114 31.6128 52.7336 32.0179 53.8956 31.3748C54.8939 30.8223 55.2932 29.9599 55.075 28.9476L57.3335 27.6976C57.9385 29.9497 57.0415 31.9213 54.9139 33.0988ZM50.747 25.763C49.6832 26.3518 49.3926 27.4105 49.9118 28.8121L53.676 26.7288C52.9402 25.554 51.8271 25.1652 50.747 25.763Z" fill="#08363B"/>
<path d="M66.7472 19.7662L65.5712 22.3223L63.8424 21.5696L65.0436 19.1229L62.3433 18.9017L62.4805 17.0847L65.2705 17.3619L64.5678 14.8174L66.5362 14.3629L67.0202 16.958L69.4063 15.4855L70.3262 17.0585L67.9962 18.4412L70.1485 20.1135L68.9247 21.548L66.7472 19.7662Z" fill="#08363B"/>
</svg>
