<svg width="130" height="130" viewBox="0 0 130 130" fill="none" xmlns="http://www.w3.org/2000/svg">
<rect width="130" height="130" rx="65" fill="#00A8BC"/>
<circle cx="65" cy="65" r="25" fill="#00A8BC"/>
<path d="M54.4314 63.048C54.828 63.4446 55.4709 63.4446 55.8675 63.048C56.2642 62.6514 56.2642 62.0084 55.8675 61.6118L55.2214 60.9657C54.4541 60.1983 54.0316 59.1783 54.0316 58.0934C54.0316 55.8534 55.8538 54.0311 58.0938 54.0311C59.1787 54.0311 60.1992 54.4536 60.9661 55.221L61.6127 55.8676C62.0093 56.2642 62.6522 56.2642 63.0488 55.8676C63.4454 55.471 63.4454 54.8281 63.0488 54.4314L62.4022 53.7848C61.2514 52.634 59.7214 52 58.0938 52C54.7336 52 52 54.7336 52 58.0939C52 59.7215 52.6339 61.2516 53.7848 62.403L54.4314 63.048Z" fill="white"/>
<path d="M65.7176 72.8998L76.2142 62.403C77.365 61.2521 77.999 59.7215 77.999 58.0939C77.999 54.7337 75.2654 52 71.9057 52C70.2781 52 68.7481 52.634 67.5967 53.7848L53.7848 67.597C52.634 68.7479 52 70.278 52 71.9061C52 75.2664 54.7336 78 58.0938 78C59.7214 78 61.2514 77.366 62.4027 76.2152L65.7176 72.8998ZM64.9997 59.2547L70.7449 65L64.9997 70.7453L59.2546 65L64.9997 59.2547ZM69.0329 55.2215C69.8003 54.4541 70.8203 54.0316 71.9057 54.0316C74.1457 54.0316 75.9679 55.8539 75.9679 58.0939C75.9679 59.1788 75.5454 60.1994 74.778 60.9662L72.181 63.5633L66.4359 57.818L69.0329 55.2215ZM60.9661 74.779C60.1987 75.5464 59.1787 75.9689 58.0938 75.9689C55.8538 75.9689 54.0316 74.1466 54.0316 71.9067C54.0316 70.8217 54.4541 69.8012 55.2215 69.0338L57.8184 66.4367L63.5636 72.182L60.9661 74.779Z" fill="white"/>
<path d="M75.5682 66.9518C75.1716 66.5551 74.5287 66.5551 74.1321 66.9518C73.7355 67.3484 73.7355 67.9913 74.1321 68.388L74.7782 69.0341C75.5455 69.8015 75.968 70.8215 75.968 71.9069C75.968 74.1469 74.1458 75.9692 71.9059 75.9692C70.821 75.9692 69.8004 75.5467 69.0335 74.7793L68.3869 74.1327C67.9903 73.736 67.3474 73.736 66.9508 74.1327C66.5542 74.5293 66.5542 75.1722 66.9508 75.5689L67.5974 76.2155C68.7482 77.3663 70.2788 78.0003 71.9064 78.0003C75.2666 78.0003 77.9996 75.2666 77.9996 71.9064C77.9996 70.2788 77.3657 68.7487 76.2148 67.5973L75.5682 66.9518Z" fill="white"/>
<path d="M65.0002 63.9848C65.5612 63.9848 66.016 63.53 66.016 62.969C66.016 62.4079 65.5612 61.9531 65.0002 61.9531C64.4392 61.9531 63.9844 62.4079 63.9844 62.969C63.9844 63.53 64.4392 63.9848 65.0002 63.9848Z" fill="white"/>
<path d="M65.0002 68.0473C65.5612 68.0473 66.016 67.5925 66.016 67.0314C66.016 66.4704 65.5612 66.0156 65.0002 66.0156C64.4392 66.0156 63.9844 66.4704 63.9844 67.0314C63.9844 67.5925 64.4392 68.0473 65.0002 68.0473Z" fill="white"/>
<path d="M62.9689 66.016C63.5299 66.016 63.9847 65.5612 63.9847 65.0002C63.9847 64.4392 63.5299 63.9844 62.9689 63.9844C62.4079 63.9844 61.9531 64.4392 61.9531 65.0002C61.9531 65.5612 62.4079 66.016 62.9689 66.016Z" fill="white"/>
<path d="M67.0314 66.016C67.5924 66.016 68.0472 65.5612 68.0472 65.0002C68.0472 64.4392 67.5924 63.9844 67.0314 63.9844C66.4704 63.9844 66.0156 64.4392 66.0156 65.0002C66.0156 65.5612 66.4704 66.016 67.0314 66.016Z" fill="white"/>
<path d="M73.7976 20.1185L73.5977 21.9924L66.4646 21.2313L66.592 20.0375L70.0287 17.1944C71.3365 16.1112 71.9029 15.5297 71.998 14.6381C72.0867 13.8069 71.5872 13.1881 70.6956 13.093C69.7133 12.9881 69.0427 13.5432 68.9362 14.5407L66.8961 14.323C67.1138 12.2828 68.81 10.9965 71.0013 11.2303C73.0415 11.448 74.4006 12.8922 74.2167 14.615C74.0845 15.8542 73.5473 16.5917 71.5721 18.1998L69.8533 19.6976L73.7976 20.1185Z" fill="white"/>
<path d="M79.0084 23.692C76.9315 23.002 75.7907 21.1817 76.3367 19.3452L78.3415 20.0112C78.1742 20.9005 78.6795 21.5969 79.5882 21.8988C80.7709 22.2917 81.4672 21.6903 81.7307 20.897C81.9847 20.1326 81.7386 19.186 80.5559 18.7931C79.7771 18.5344 79.0948 18.66 78.5715 19.2228L77.1045 18.1429L79.7716 12.9593L85.411 14.8329L84.8168 16.6213L80.6341 15.2317L79.67 17.1215C80.2658 16.9671 80.8762 17.0097 81.4531 17.2014C83.7752 17.9729 84.3539 19.9428 83.8076 21.587C83.2518 23.2601 81.4604 24.5066 79.0084 23.692Z" fill="white"/>
<path d="M89.6648 26.9976L87.9803 25.9651L89.4495 23.5679L87.0523 22.0987L88.0053 20.5437L90.4026 22.013L91.8718 19.6157L93.5564 20.6482L92.0871 23.0454L94.4843 24.5147L93.5313 26.0696L91.1341 24.6004L89.6648 26.9976Z" fill="white"/>
<path d="M102.386 34.8902L99.2865 37.5791L97.7727 35.8341L100.873 33.1452L103.486 25.7676L105.12 27.6504L103.275 32.6909L108.555 31.6112L110.079 33.3677L102.386 34.8902Z" fill="white"/>
<path d="M103.413 44.0993C102.254 41.9613 102.963 39.7278 105.194 38.5186C107.319 37.3673 109.673 38.0106 110.788 40.0684C112.012 42.3266 110.992 44.8152 108.486 45.741L105.742 40.6767C104.644 41.4269 104.307 42.3357 104.821 43.2844C105.263 44.0995 105.961 44.4301 106.785 44.2602L107.784 46.1042C105.95 46.5795 104.354 45.8364 103.413 44.0993ZM109.403 40.7668C108.933 39.8983 108.075 39.6545 106.932 40.0662L108.597 43.1396C109.557 42.5503 109.881 41.6488 109.403 40.7668Z" fill="white"/>
<path d="M107.437 53.93L108.4 53.6485C107.521 53.3512 106.916 52.689 106.604 51.6241C106.131 50.0049 106.763 48.6482 108.222 48.2217C109.739 47.7781 110.914 48.7646 111.58 51.0402C111.708 51.4778 111.789 51.8656 111.872 52.3641L112.339 52.2276C113.214 51.9717 113.579 51.3264 113.332 50.4803C113.076 49.6051 112.412 49.2292 111.515 49.4122L110.982 47.5888C112.811 47.1809 114.357 48.1379 114.907 50.0197C115.504 52.0619 114.731 53.5865 112.82 54.1452L107.919 55.5784L107.437 53.93ZM108.839 50.1156C108.183 50.3075 107.911 50.8937 108.132 51.6523C108.435 52.688 109.188 53.1489 110.092 52.8844L110.646 52.7223C110.579 52.2196 110.51 51.8756 110.407 51.5255C110.07 50.3731 109.539 49.9108 108.839 50.1156Z" fill="white"/>
<path d="M112.41 59.5466L108.494 59.9459L108.28 57.8443L116.354 57.021L116.551 58.9563L114.994 59.1151C116.082 59.5999 116.83 60.7916 116.962 62.0919L114.785 62.3139C114.739 60.5159 114.194 59.3647 112.41 59.5466Z" fill="white"/>
<path d="M110.909 71.8952C109.212 71.7583 108.271 70.3863 108.457 68.0837C108.642 65.781 109.852 64.5826 111.668 64.5614L111.506 66.5762C110.671 66.5241 110.084 67.1934 109.999 68.2386C109.933 69.0567 110.141 69.6986 110.717 69.745C111.232 69.7866 111.471 69.4704 111.684 68.71L112.074 67.2777C112.449 65.8442 113.323 65.0304 114.58 65.1318C116.08 65.2528 117.022 66.6248 116.859 68.6396C116.695 70.6696 115.507 71.9765 113.753 71.9874L113.915 69.9726C114.709 69.9604 115.242 69.4087 115.314 68.515C115.376 67.7424 115.13 67.2041 114.615 67.1625C114.13 67.1234 113.906 67.4408 113.711 68.1569L113.297 69.694C112.867 71.2451 112.075 71.9893 110.909 71.8952Z" fill="white"/>
<path d="M105.021 81.6504C106.265 78.761 109.461 77.4898 112.462 78.7826C115.463 80.0754 116.706 83.2587 115.461 86.148C114.211 89.0513 111.037 90.3485 108.036 89.0557C105.035 87.7629 103.77 84.5536 105.021 81.6504ZM106.919 82.4681C106.125 84.3106 107.138 86.0706 108.98 86.8643C110.823 87.658 112.769 87.1727 113.563 85.3302C114.351 83.5017 113.366 81.7537 111.524 80.96C109.681 80.1663 107.707 80.6396 106.919 82.4681Z" fill="white"/>
<path d="M100.09 90.6042L101.327 88.91L106.422 92.628L107.389 91.3021L108.85 92.3682L107.883 93.6941L108.239 93.9539C109.54 94.9036 109.766 96.1409 108.771 97.5036C108.467 97.921 108.133 98.2233 107.805 98.4161L106.454 97.4306C106.662 97.3002 106.878 97.0815 107.039 96.8606C107.38 96.394 107.42 95.9527 106.965 95.6213L106.646 95.3883L105.401 97.0948L103.94 96.0287L105.185 94.3222L100.09 90.6042Z" fill="white"/>
<path d="M91.3169 99.3539L97.8316 103.629L93.6512 97.7063L95.3648 96.4968L101.657 105.412L99.3974 107.007L92.1523 102.224L94.2195 110.662L91.9597 112.257L85.6672 103.341L87.3807 102.132L91.5961 108.104L89.7399 100.467L91.3169 99.3539Z" fill="white"/>
<path d="M79.5782 105.398C81.8755 104.601 83.9649 105.661 84.7969 108.059C85.5891 110.342 84.5732 112.561 82.362 113.328C79.9355 114.17 77.6448 112.761 77.1368 110.138L82.5787 108.25C82.016 107.046 81.1738 106.566 80.1543 106.919C79.2785 107.223 78.8393 107.858 78.8736 108.699L76.8921 109.386C76.72 107.5 77.7116 106.046 79.5782 105.398ZM81.8969 111.849C82.8302 111.525 83.2097 110.717 82.9884 109.523L79.6859 110.669C80.1121 111.712 80.9493 112.177 81.8969 111.849Z" fill="white"/>
<path d="M75.1353 111.172C75.3996 113.558 74.1938 115.512 72.0185 115.752C71.0518 115.859 70.1892 115.527 69.4997 114.823L69.9228 118.645L67.8382 118.876L66.6373 108.03L68.5558 107.817L68.6846 108.981C69.2253 108.064 70.0496 107.499 71.0919 107.384C73.2672 107.143 74.8744 108.815 75.1353 111.172ZM72.9752 111.411C72.8079 109.9 71.8583 109.195 70.8311 109.309C69.7888 109.424 69.018 110.335 69.187 111.861C69.3559 113.387 70.3173 114.06 71.3445 113.946C72.3717 113.832 73.1458 112.952 72.9752 111.411Z" fill="white"/>
<path d="M61.1407 117.729C61.182 117.016 61.7892 116.518 62.6237 116.567C63.4431 116.614 63.9889 117.178 63.9477 117.892C63.9047 118.635 63.2975 119.133 62.4781 119.085C61.6436 119.037 61.0978 118.473 61.1407 117.729ZM62.0517 107.765L64.1607 107.887L63.6923 115.989L61.5833 115.867L62.0517 107.765Z" fill="white"/>
<path d="M56.2797 106.751C58.5654 107.255 59.7659 109.294 59.2329 111.713C58.7097 114.088 56.6945 115.465 54.4682 114.974C52.4051 114.52 51.1837 112.788 51.4022 110.595L53.5692 111.072C53.4409 112.149 53.9353 112.942 54.8704 113.148C55.939 113.384 56.8147 112.659 57.1253 111.249C57.4392 109.824 56.961 108.816 55.8775 108.577C54.9276 108.368 54.1817 108.857 53.8243 109.914L51.6573 109.437C52.3754 107.308 54.1572 106.284 56.2797 106.751Z" fill="white"/>
<path d="M46.1352 103.359L45.718 104.271C46.5178 103.801 47.4147 103.777 48.4237 104.238C49.9578 104.94 50.5697 106.306 49.9375 107.688C49.2801 109.125 47.7651 109.368 45.609 108.382C45.1944 108.193 44.8477 108.001 44.4169 107.737L44.2146 108.179C43.8353 109.008 44.084 109.707 44.8856 110.074C45.7149 110.453 46.4337 110.197 46.8821 109.399L48.6097 110.189C47.7216 111.839 45.9858 112.382 44.2029 111.566C42.2679 110.681 41.6214 109.099 42.4495 107.288L44.5735 102.644L46.1352 103.359ZM48.1017 106.915C48.3862 106.293 48.1209 105.704 47.4022 105.375C46.4209 104.926 45.58 105.194 45.1881 106.051L44.9479 106.576C45.3724 106.854 45.6776 107.027 46.0093 107.178C47.1012 107.678 47.7983 107.579 48.1017 106.915Z" fill="white"/>
<path d="M40.9078 100.244L42.6827 101.417L36.6641 110.52L34.8892 109.346L40.9078 100.244Z" fill="white"/>
<path d="M29.6688 92.5607L31.1423 91.1993L36.1237 96.5912L28.1084 103.996L23.1993 98.6824L24.6728 97.321L28.0143 100.938L29.7 99.3806L26.6679 96.0986L28.1303 94.7476L31.1624 98.0296L33.0825 96.2557L29.6688 92.5607Z" fill="white"/>
<path d="M29.0122 87.987L30.187 90.0289L25.2395 89.7192L23.0614 93.9181L21.8487 91.8104L23.4465 88.9799L20.1889 88.9254L19.0823 87.0021L23.8578 87.1652L26.0184 82.7835L27.2159 84.8649L25.5961 87.9009L29.0122 87.987Z" fill="white"/>
<path d="M18.9662 74.2807C21.2652 73.5871 23.4049 74.418 24.037 76.5132C24.3136 77.4299 24.1577 78.3341 23.5767 79.1444L27.3889 77.9943L27.9991 80.0168L17.4209 83.2081L16.859 81.3456L17.994 81.0032C16.9846 80.6569 16.2746 79.9345 15.9761 78.945C15.344 76.8498 16.6818 74.9698 18.9662 74.2807ZM19.5939 76.3614C18.1389 76.8003 17.6034 77.8668 17.9018 78.8562C18.2003 79.8456 19.2217 80.4423 20.6913 79.999C22.1609 79.5556 22.6673 78.498 22.3688 77.5086C22.0703 76.5192 21.0781 75.9137 19.5939 76.3614Z" fill="white"/>
<path d="M22.4704 67.6217C22.6353 70.0478 21.0625 71.7846 18.5302 71.9568C16.1193 72.1207 14.2459 70.5571 14.0872 68.222C13.913 65.6594 15.8749 63.82 18.5391 64.0197L18.9297 69.7665C20.2396 69.5404 20.9242 68.854 20.851 67.7775C20.7881 66.8525 20.291 66.2617 19.4708 66.0738L19.3286 63.9813C21.1943 64.3114 22.3364 65.6505 22.4704 67.6217ZM15.6369 68.1624C15.7039 69.148 16.383 69.7264 17.5933 69.8269L17.3562 66.3394C16.2383 66.4763 15.5689 67.1616 15.6369 68.1624Z" fill="white"/>
<path d="M18.6069 59.1885L22.515 59.6591L22.2624 61.7565L14.2048 60.7863L14.4373 58.8549L15.9915 59.042C15.0363 58.33 14.5685 57.0031 14.7247 55.7054L16.8975 55.9671C16.5474 57.7312 16.8263 58.9741 18.6069 59.1885Z" fill="white"/>
<path d="M14.2146 50.1474C14.9065 50.3252 15.2779 51.0169 15.0698 51.8265C14.8656 52.6214 14.2066 53.0483 13.5148 52.8705C12.7935 52.6851 12.4221 51.9934 12.6264 51.1985C12.8344 50.3889 13.4934 49.962 14.2146 50.1474ZM23.8171 52.9604L23.2912 55.0065L15.4308 52.9863L15.9567 50.9403L23.8171 52.9604Z" fill="white"/>
<path d="M25.9613 47.378C24.986 49.6056 22.7884 50.4187 20.4634 49.4008C18.2498 48.4317 17.3113 46.1792 18.25 44.0352C19.2801 41.6823 21.8702 40.9581 24.1403 42.3667L21.8301 47.6433C23.0962 48.0483 24.0205 47.7561 24.4533 46.7676C24.8251 45.9183 24.6573 45.1647 24.017 44.6189L24.8581 42.6976C26.3599 43.8528 26.7537 45.5681 25.9613 47.378ZM19.6518 44.6987C19.2556 45.6036 19.5904 46.4304 20.6172 47.079L22.0191 43.8769C20.9644 43.4816 20.0541 43.7798 19.6518 44.6987Z" fill="white"/>
<path d="M26.0915 37.7284L29.6592 40.3422L28.4107 42.0463L21.8638 37.25L23.0135 35.6807L23.9453 36.3633C23.6458 35.4091 23.7352 34.4384 24.3639 33.5802C25.325 32.2684 26.8479 31.9899 28.4294 33.1486L32.6591 36.2473L31.4196 37.9392L27.7661 35.2626C26.7976 34.553 25.9797 34.5379 25.4138 35.3103C24.9198 35.9846 25.0371 36.956 26.0915 37.7284Z" fill="white"/>
<path d="M36.9657 32.3157C35.2076 33.8607 32.8538 33.6227 31.2185 31.7619C29.6133 29.9353 29.6952 27.496 31.4077 25.9911C32.9945 24.5966 35.1135 24.6364 36.7523 26.1098L35.0855 27.5745C34.2932 26.8342 33.3609 26.7633 32.6417 27.3953C31.8197 28.1177 31.8865 29.2527 32.8396 30.3373C33.8027 31.4332 34.8984 31.6439 35.7317 30.9115C36.4624 30.2694 36.5091 29.3786 35.868 28.465L37.5348 27.0002C38.8269 28.8389 38.5983 30.8811 36.9657 32.3157Z" fill="white"/>
<path d="M44.6182 26.8905C42.4906 28.068 40.2509 27.3794 39.0219 25.1587C37.8517 23.0445 38.4741 20.6851 40.5219 19.5517C42.7692 18.308 45.2667 19.3055 46.2148 21.8032L41.1751 24.5924C41.935 25.6831 42.8468 26.0122 43.7909 25.4897C44.602 25.0408 44.9265 24.3401 44.7492 23.5176L46.5842 22.502C47.0758 24.3318 46.3469 25.9337 44.6182 26.8905ZM41.2326 20.9301C40.3683 21.4085 40.1322 22.2687 40.554 23.4075L43.6125 21.7149C43.0147 20.7603 42.1103 20.4444 41.2326 20.9301Z" fill="white"/>
<path d="M54.2317 16.0603L53.2762 18.1371L51.8716 17.5255L52.8476 15.5376L50.6536 15.3579L50.765 13.8815L53.032 14.1068L52.461 12.0393L54.0603 11.6701L54.4536 13.7786L56.3923 12.5822L57.1397 13.8603L55.2466 14.9837L56.9953 16.3425L56.001 17.508L54.2317 16.0603Z" fill="white"/>
</svg>
