<svg width="24" height="24" viewBox="0 0 24 24" fill="none" xmlns="http://www.w3.org/2000/svg">
<path d="M2.25 6C1.83585 6 1.5 5.66415 1.5 5.25V2.25C1.5 1.83585 1.83585 1.5 2.25 1.5H4.5C4.91415 1.5 5.25 1.83585 5.25 2.25C5.25 2.66415 4.91415 3 4.5 3H3V5.25C3 5.66415 2.66415 6 2.25 6Z" fill="white"/>
<path d="M4.5 22.5H2.25C1.83585 22.5 1.5 22.1642 1.5 21.75V18.75C1.5 18.3359 1.83585 18 2.25 18C2.66415 18 3 18.3359 3 18.75V21H4.5C4.91415 21 5.25 21.3359 5.25 21.75C5.25 22.1642 4.91415 22.5 4.5 22.5Z" fill="white"/>
<path d="M21.75 6C21.3359 6 21 5.66415 21 5.25V3H19.5C19.0859 3 18.75 2.66415 18.75 2.25C18.75 1.83585 19.0859 1.5 19.5 1.5H21.75C22.1641 1.5 22.5 1.83585 22.5 2.25V5.25C22.5 5.66415 22.1641 6 21.75 6Z" fill="white"/>
<path d="M21.75 22.5H19.5C19.0859 22.5 18.75 22.1642 18.75 21.75C18.75 21.3359 19.0859 21 19.5 21H21V18.75C21 18.3359 21.3359 18 21.75 18C22.1641 18 22.5 18.3359 22.5 18.75V21.75C22.5 22.1642 22.1641 22.5 21.75 22.5Z" fill="white"/>
<path d="M6.74927 8.25C8.04129 8.25 9.37644 7.7172 10.2341 6.85987C10.3806 6.7134 10.6179 6.7134 10.7644 6.85987C11.6221 7.7172 12.9572 8.25 14.2493 8.25H18.4575C17.6753 5.42685 15.3492 3.75 11.9993 3.75C8.64932 3.75 6.32327 5.42685 5.54102 8.25H6.74927Z" fill="white"/>
<path d="M2.25 11.25H21.75V12.75H2.25V11.25Z" fill="white"/>
<path d="M18.6275 9.00003H14.25C12.8708 9.00003 11.4961 8.49536 10.5 7.63623C9.50392 8.49536 8.12917 9.00003 6.75 9.00003H5.37248C5.29193 9.47366 5.25 9.97406 5.25 10.5H18.75C18.75 9.97406 18.7081 9.47366 18.6275 9.00003Z" fill="white"/>
<path d="M5.48828 13.5C5.78701 14.8904 6.37066 16.1749 7.26233 17.3811C8.62981 19.2312 10.3125 20.25 12.0008 20.25C13.6886 20.25 15.3713 19.2316 16.7388 17.3819C17.6308 16.1753 18.2146 14.8907 18.5133 13.5H5.48828ZM13.7897 16.3647C13.3166 16.936 12.6812 17.2506 12.0008 17.2506C11.3203 17.2506 10.685 16.936 10.2118 16.3647C10.0799 16.2054 10.1019 15.9688 10.2616 15.8366C10.4209 15.704 10.6571 15.726 10.7897 15.8864C11.4459 16.6789 12.5555 16.6789 13.2118 15.8864C13.3444 15.7268 13.5806 15.7048 13.7399 15.8366C13.8995 15.9688 13.9215 16.2054 13.7897 16.3647Z" fill="white"/>
</svg>
