<svg width="39" height="36" viewBox="0 0 39 36" fill="none" xmlns="http://www.w3.org/2000/svg">
<path fill-rule="evenodd" clip-rule="evenodd" d="M16.2004 28.6107C18.8184 29.8443 21.7389 30.2961 24.6119 29.9056C24.6881 29.8953 24.7336 29.9892 24.6798 30.0433C13.374 41.5136 -2.83401 16.6991 9.49257 5.87512C9.54984 5.82517 9.51429 5.7348 9.44106 5.73498C8.90607 5.7364 8.34386 5.82001 7.75673 6.0028C7.55396 6.06593 7.61142 6.03165 7.46237 6.19841C5.71705 8.15135 4.59254 10.5143 4.12494 13.1216C3.50723 16.5788 4.06917 20.1806 5.37951 23.4188C6.74022 26.7792 9.04801 30.0331 12.0437 32.1007C13.8008 33.3149 15.7292 34.0895 17.7153 34.1918C22.2358 34.4247 26.3515 32.7591 29.2313 29.5436C29.263 29.5082 29.2575 29.4537 29.2195 29.4254C26.4817 27.3829 25.7341 24.0719 27.3651 20.945C27.3869 20.9032 27.4391 20.8891 27.4788 20.9144C29.939 22.4796 31.0481 24.974 30.5861 27.5714C30.5709 27.6566 30.6832 27.7022 30.7312 27.6304C32.5191 24.9606 33.4511 21.8464 33.4765 18.7056C33.4769 18.6646 33.4469 18.6304 33.4065 18.6253C30.0604 18.2027 27.7981 15.7213 27.6547 12.221C27.6528 12.1738 27.691 12.1354 27.738 12.1373C29.9228 12.2275 31.7087 13.154 32.8411 14.6602C32.8935 14.7299 33.0038 14.6766 32.9825 14.592C32.4937 12.6593 31.645 10.8108 30.4526 9.14375C30.4369 9.12176 30.4136 9.11001 30.3867 9.11036C25.5901 9.16138 22.5536 8.0128 21.2771 5.66464C21.2763 5.66313 21.2756 5.66179 21.2748 5.66028C20.113 3.17553 17.9798 1.94335 14.8755 1.96383C14.7974 1.96436 14.7656 1.8641 14.8273 1.81852C20.732 -2.54313 32.9549 1.45961 31.3781 8.32675C31.3727 8.35008 31.3769 8.3726 31.3909 8.39201C32.7201 10.2341 33.6875 12.3352 34.2152 14.5908C34.2333 14.668 34.3403 14.6749 34.368 14.6006C35.048 12.7791 36.5589 11.3609 38.7052 10.6873C38.7501 10.6732 38.7969 10.7004 38.8072 10.7464C39.585 14.2282 37.9669 17.2603 34.7266 18.4968C34.6949 18.5089 34.6749 18.5379 34.675 18.5719C34.6797 21.6455 33.8843 24.5451 32.4905 27.0552C32.4524 27.1238 32.5262 27.2013 32.5962 27.166C34.4041 26.2564 36.5567 26.2889 38.6282 27.3785C38.6698 27.4004 38.6837 27.4528 38.6587 27.4927C36.7749 30.4787 33.5395 31.4827 30.4051 30.1146C30.3729 30.1005 30.3368 30.1084 30.3135 30.1349C27.1373 33.7321 22.5014 36 17.3376 36C7.7625 36 0 28.2048 0 18.5892C0 14.041 1.75188 9.76514 4.80507 6.55937C5.75278 5.54943 6.04182 5.27849 7.40527 4.85405C9.30407 4.26293 11.1404 4.50164 12.7837 5.45478C13.9029 6.10386 14.9422 6.94125 15.8059 7.93232C16.6328 8.88127 18.309 11.3602 19.0628 11.8717C19.3698 12.08 19.6891 12.2279 20.0917 12.3626L20.092 12.3619C20.5006 12.495 20.9631 12.5904 21.4795 12.6479C22.0469 12.7109 22.2248 13.4617 21.6972 13.7755C21.6963 13.7761 21.6955 13.7766 21.6946 13.7771L18.9833 15.5375C18.9136 15.5827 18.9637 15.666 18.9971 15.7744L20.3383 20.1277C21.0376 22.3922 18.3382 22.749 16.7594 22.9727C16.5888 22.9968 15.9812 23.0724 15.9346 23.1131C15.5887 23.4154 15.4379 24.0828 15.4497 24.9584C15.4635 25.9867 15.7162 27.2515 16.1588 28.5633C16.1659 28.5851 16.1799 28.601 16.2004 28.6107ZM14.565 27.3279C14.1615 25.5587 13.9182 22.9626 15.3815 22.0295L15.3824 22.0309C15.9343 21.6793 19.6014 21.7992 19.1944 20.4811L17.8532 16.1278C17.744 15.7733 17.5908 15.5845 17.6491 15.2601C17.7486 14.706 19.545 13.7456 19.8511 13.5468C19.8075 13.5335 19.7642 13.52 19.7215 13.506L19.7217 13.5053C19.2174 13.3409 18.7743 13.1289 18.3923 12.8698C17.4149 12.2067 15.8514 9.8085 14.9058 8.72332C14.1401 7.8447 13.1792 7.06599 12.1775 6.4917C12.142 6.47131 12.0972 6.48075 12.0731 6.51396C7.31927 13.0407 8.36717 22.1369 14.4345 27.4068C14.4927 27.4574 14.5821 27.4035 14.565 27.3279Z" fill="#03AFE5"/>
</svg>
