<svg width="20" height="20" viewBox="0 0 20 20" fill="none" xmlns="http://www.w3.org/2000/svg">
<g clip-path="url(#clip0_2465_283)">
<path d="M4.39922 2.00951C4.39922 1.12062 3.6828 0.399902 2.77534 0.399902C1.93952 0.399902 1.2231 1.12062 1.19922 1.98549C1.19922 2.53804 1.46191 3.04255 1.89176 3.33083C2.0828 3.47498 2.2022 3.69119 2.2022 3.90741V8.3999H3.39623V3.90741C3.39623 3.66717 3.49176 3.45095 3.6828 3.33083C4.11265 3.04255 4.39922 2.56206 4.39922 2.00951Z" fill="#03AFE5"/>
<path d="M18.7996 2.00951C18.7996 1.12062 18.0778 0.399902 17.1876 0.399902C16.3455 0.399902 15.6237 1.12062 15.5996 1.98549C15.5996 2.53804 15.8643 3.04255 16.2974 3.33083C16.4898 3.47498 16.6101 3.69119 16.6101 3.90741V8.3999H17.8131V3.90741C17.8131 3.66717 17.9094 3.45095 18.1019 3.33083C18.5109 3.04255 18.7996 2.56206 18.7996 2.00951Z" fill="#03AFE5"/>
<path d="M14.248 9.42898C11.584 10.2122 8.584 10.2834 5.752 9.42898C5.416 9.33404 5.056 9.47645 4.912 9.785C4.336 10.948 4 12.3958 4 14.0097C4 14.8879 6.688 15.5999 10 15.5999C13.312 15.5999 16 14.8879 16 14.0097C16 12.4195 15.664 10.948 15.088 9.785C14.944 9.47645 14.584 9.33404 14.248 9.42898ZM7.168 13.986C6.496 14.0809 5.92 13.5113 6.016 12.8467C6.088 12.4195 6.424 12.0872 6.856 12.016C7.528 11.9211 8.104 12.4907 8.008 13.1553C7.912 13.5825 7.576 13.9385 7.168 13.986ZM13.144 13.986C12.472 14.0809 11.896 13.5113 11.992 12.8467C12.064 12.4195 12.4 12.0872 12.832 12.016C13.504 11.9211 14.08 12.4907 13.984 13.1553C13.912 13.5825 13.576 13.9385 13.144 13.986Z" fill="#03AFE5"/>
<path d="M10.0004 3.6001C4.69639 3.6001 0.400391 8.25377 0.400391 13.9869C0.400391 17.1053 4.69639 19.6001 10.0004 19.6001C15.3044 19.6001 19.6004 17.1053 19.6004 14.0109C19.6004 8.25377 15.3044 3.6001 10.0004 3.6001ZM10.0004 17.9929C5.29639 17.9929 2.00839 15.882 2.00839 13.9869C2.00839 9.14133 5.58439 5.20729 10.0004 5.20729C14.4164 5.20729 17.9924 9.14133 17.9924 14.0109C17.9924 15.9059 14.7044 17.9929 10.0004 17.9929Z" fill="#03AFE5"/>
</g>
<defs>
<clipPath id="clip0_2465_283">
<rect width="20" height="20" fill="white"/>
</clipPath>
</defs>
</svg>
