<svg width="28" height="28" viewBox="0 0 28 28" fill="none" xmlns="http://www.w3.org/2000/svg">
<g clip-path="url(#clip0_2468_565)">
<path d="M23.4745 12.7556C23.1542 12.4353 22.6348 12.4353 22.3145 12.7556C21.9941 13.076 21.9941 13.5953 22.3145 13.9157L23.558 15.1592C23.7182 15.3194 23.9281 15.3995 24.138 15.3995C24.3479 15.3995 24.5579 15.3194 24.718 15.1592C25.0384 14.8389 25.0384 14.3195 24.718 13.9992L23.4745 12.7556Z" fill="#03AFE5"/>
<path d="M22.8926 9.49251C23.1025 9.49251 23.3124 9.41245 23.4726 9.25222L24.7161 8.00869C25.0364 7.68834 25.0364 7.169 24.7161 6.84866C24.3957 6.52831 23.8764 6.52831 23.5561 6.84866L22.3125 8.09219C21.9922 8.41254 21.9922 8.93188 22.3125 9.25222C22.4727 9.41245 22.6826 9.49251 22.8926 9.49251Z" fill="#03AFE5"/>
<path d="M26.3797 10.1836H24.6211C24.168 10.1836 23.8008 10.5509 23.8008 11.0039C23.8008 11.4569 24.168 11.8241 24.6211 11.8241H26.3797C26.8327 11.8241 27.2 11.4569 27.2 11.0039C27.2 10.5508 26.8328 10.1836 26.3797 10.1836Z" fill="#03AFE5"/>
<path d="M3.86327 15.3995C4.07321 15.3995 4.28314 15.3194 4.44326 15.1592L5.68679 13.9157C6.00714 13.5953 6.00714 13.076 5.68679 12.7556C5.3665 12.4353 4.84711 12.4353 4.52676 12.7556L3.28323 13.9992C2.96288 14.3195 2.96288 14.8389 3.28323 15.1592C3.4434 15.3194 3.65333 15.3995 3.86327 15.3995Z" fill="#03AFE5"/>
<path d="M4.52682 9.25222C4.68699 9.4124 4.89693 9.49251 5.10681 9.49251C5.31674 9.49251 5.52668 9.41245 5.68679 9.25222C6.00714 8.93188 6.00714 8.41254 5.68679 8.09219L4.44326 6.84866C4.12297 6.52831 3.60357 6.52831 3.28323 6.84866C2.96288 7.169 2.96288 7.68834 3.28323 8.00869L4.52682 9.25222Z" fill="#03AFE5"/>
<path d="M4.2 11.0039C4.2 10.5509 3.83273 10.1836 3.37972 10.1836H1.62106C1.16805 10.1836 0.800781 10.5509 0.800781 11.0039C0.800781 11.4569 1.16805 11.8241 1.62106 11.8241H3.37972C3.83273 11.8241 4.2 11.4569 4.2 11.0039Z" fill="#03AFE5"/>
<path d="M22.4949 16.3687C21.4145 15.6016 20.6638 14.382 20.4353 13.0225L18.9503 4.18805C18.5424 1.76129 16.4603 0 13.9996 0C11.5389 0 9.4568 1.76129 9.0489 4.18805L7.56388 13.0225C7.33541 14.382 6.58475 15.6016 5.50428 16.3687C4.03643 17.4108 3.16016 19.1063 3.16016 20.904C3.16016 23.9704 5.65483 26.4651 8.72123 26.4651H10.873C11.5989 27.4121 12.7364 27.9999 13.9996 27.9999C15.2628 27.9999 16.4003 27.4121 17.1261 26.4651H19.2779C22.3443 26.4651 24.839 23.9704 24.839 20.904C24.8391 19.1063 23.9628 17.4108 22.4949 16.3687ZM19.278 24.8246H17.8682L18.0339 24.1025C18.17 23.5088 18.6906 23.0942 19.2996 23.0942H19.3177C19.7707 23.0942 20.138 22.7269 20.138 22.2739C20.138 21.8209 19.7707 21.4536 19.3177 21.4536H19.2996C17.921 21.4536 16.743 22.3921 16.4348 23.7357L16.2429 24.5724C16.0015 25.6245 15.079 26.3594 13.9996 26.3594C12.9202 26.3594 11.9977 25.6245 11.7562 24.5724L11.5643 23.7356C11.2561 22.392 10.0781 21.4536 8.69952 21.4536C8.24651 21.4536 7.87925 21.8208 7.87925 22.2738C7.87925 22.7268 8.24651 23.0941 8.69952 23.0941C9.3086 23.0941 9.82909 23.5087 9.96526 24.1024L10.1309 24.8246H8.72112C6.55932 24.8246 4.80059 23.0658 4.80059 20.904C4.80059 19.6368 5.4187 18.4413 6.45388 17.7063C7.88723 16.6887 8.88146 15.0806 9.18162 13.2944L10.6666 4.45994C10.9413 2.82628 12.343 1.64055 13.9996 1.64055C15.6562 1.64055 17.0578 2.82628 17.3325 4.45999L18.8174 13.2945C19.1176 15.0807 20.1118 16.6888 21.5452 17.7064C22.5804 18.4413 23.1985 19.6368 23.1985 20.9041C23.1985 23.0658 21.4398 24.8246 19.278 24.8246Z" fill="#03AFE5"/>
</g>
<defs>
<clipPath id="clip0_2468_565">
<rect width="28" height="28" fill="white"/>
</clipPath>
</defs>
</svg>
