<svg width="40" height="40" viewBox="0 0 40 40" fill="none" xmlns="http://www.w3.org/2000/svg">
<path d="M30.9868 27.8625L29.3743 29.4875L29.0118 29.1125C28.7764 28.8771 28.4571 28.7449 28.1243 28.7449C27.7914 28.7449 27.4721 28.8771 27.2368 29.1125C27.0014 29.3479 26.8691 29.6671 26.8691 30C26.8691 30.3329 27.0014 30.6521 27.2368 30.8875L28.4868 32.1375C28.603 32.2546 28.7412 32.3476 28.8935 32.4111C29.0459 32.4746 29.2092 32.5072 29.3743 32.5072C29.5393 32.5072 29.7027 32.4746 29.855 32.4111C30.0073 32.3476 30.1455 32.2546 30.2618 32.1375L32.7618 29.6375C32.9971 29.4021 33.1294 29.0829 33.1294 28.75C33.1294 28.4171 32.9971 28.0979 32.7618 27.8625C32.5264 27.6271 32.2071 27.4949 31.8743 27.4949C31.5414 27.4949 31.2221 27.6271 30.9868 27.8625Z" fill="#03AFE5"/>
<path d="M30 22.5C28.5166 22.5 27.0666 22.9399 25.8332 23.764C24.5999 24.5881 23.6386 25.7594 23.0709 27.1299C22.5032 28.5003 22.3547 30.0083 22.6441 31.4632C22.9335 32.918 23.6478 34.2544 24.6967 35.3033C25.7456 36.3522 27.082 37.0665 28.5368 37.3559C29.9917 37.6453 31.4997 37.4968 32.8701 36.9291C34.2406 36.3614 35.4119 35.4001 36.236 34.1668C37.0601 32.9334 37.5 31.4834 37.5 30C37.5 28.0109 36.7098 26.1032 35.3033 24.6967C33.8968 23.2902 31.9891 22.5 30 22.5ZM30 35C29.0111 35 28.0444 34.7068 27.2222 34.1573C26.3999 33.6079 25.759 32.827 25.3806 31.9134C25.0022 30.9998 24.9032 29.9945 25.0961 29.0245C25.289 28.0546 25.7652 27.1637 26.4645 26.4645C27.1637 25.7652 28.0546 25.289 29.0246 25.0961C29.9945 24.9031 30.9998 25.0022 31.9134 25.3806C32.8271 25.759 33.6079 26.3999 34.1574 27.2221C34.7068 28.0444 35 29.0111 35 30C35 31.3261 34.4732 32.5979 33.5355 33.5355C32.5979 34.4732 31.3261 35 30 35Z" fill="#03AFE5"/>
<path d="M23.65 22.2875C23.7766 22.1826 23.8812 22.0537 23.9579 21.9083C24.0346 21.7628 24.0818 21.6037 24.0969 21.44C24.112 21.2762 24.0947 21.1111 24.0459 20.9541C23.9971 20.7971 23.9178 20.6513 23.8125 20.525C23.2858 19.9069 22.6165 19.4264 21.8625 19.125C22.669 18.1367 23.1104 16.9006 23.1125 15.625C23.1182 14.7236 22.9071 13.8341 22.4972 13.0313C22.0873 12.2286 21.4904 11.5361 20.7569 11.0122C20.0234 10.4883 19.1747 10.1484 18.2824 10.021C17.39 9.89367 16.4802 9.98263 15.6294 10.2804C14.7786 10.5782 14.0119 11.076 13.3937 11.7321C12.7756 12.3881 12.3241 13.1831 12.0774 14.05C11.8307 14.917 11.7959 15.8305 11.9761 16.7137C12.1562 17.5969 12.546 18.4239 13.1125 19.125C12.1931 19.4998 11.4062 20.1398 10.8519 20.9635C10.2976 21.7871 10.001 22.7572 10 23.75V25C10 25.3315 10.1317 25.6495 10.3661 25.8839C10.6005 26.1183 10.9185 26.25 11.25 26.25C11.5815 26.25 11.8995 26.1183 12.1339 25.8839C12.3683 25.6495 12.5 25.3315 12.5 25V23.75C12.5 23.087 12.7634 22.4511 13.2322 21.9822C13.7011 21.5134 14.337 21.25 15 21.25H20C20.3598 21.2467 20.7159 21.3235 21.0424 21.4748C21.3688 21.6261 21.6575 21.8482 21.8875 22.125C21.9924 22.2516 22.1213 22.3562 22.2667 22.4329C22.4122 22.5096 22.5713 22.5568 22.735 22.5719C22.8988 22.587 23.0638 22.5697 23.2209 22.5209C23.3779 22.472 23.5237 22.3927 23.65 22.2875ZM17.5 12.5C18.1181 12.5 18.7223 12.6833 19.2362 13.0267C19.7501 13.37 20.1506 13.8581 20.3871 14.4291C20.6236 15.0001 20.6855 15.6285 20.565 16.2347C20.4444 16.8408 20.1467 17.3977 19.7097 17.8347C19.2727 18.2717 18.7158 18.5694 18.1097 18.69C17.5035 18.8105 16.8751 18.7486 16.3041 18.5121C15.7331 18.2756 15.245 17.8751 14.9017 17.3612C14.5583 16.8472 14.375 16.2431 14.375 15.625C14.375 14.7962 14.7042 14.0013 15.2903 13.4153C15.8763 12.8292 16.6712 12.5 17.5 12.5Z" fill="#03AFE5"/>
<path d="M19.5875 34.175C18.9111 34.4968 18.2137 34.7725 17.5 35C13.8918 33.9242 10.7268 31.7134 8.47491 28.6959C6.22304 25.6784 5.00441 22.0151 5 18.25V9.62496L17.5 5.07496L30 9.62496V18.25C30.0062 18.3373 30.0062 18.4251 30 18.5125V18.75C30 19.0815 30.1317 19.3994 30.3661 19.6338C30.6005 19.8683 30.9185 20 31.25 20C31.5815 20 31.8995 19.8683 32.1339 19.6338C32.3683 19.3994 32.5 19.0815 32.5 18.75V18.55C32.5 18.4125 32.5 18.275 32.5 18.1375V8.74996C32.4999 8.49306 32.4206 8.24244 32.273 8.0322C32.1254 7.82196 31.9166 7.6623 31.675 7.57496L17.925 2.57496C17.6504 2.47567 17.3496 2.47567 17.075 2.57496L3.325 7.57496C3.08341 7.6623 2.8746 7.82196 2.72698 8.0322C2.57937 8.24244 2.50011 8.49306 2.5 8.74996V18.25C2.50614 22.6215 3.94439 26.8706 6.59467 30.3471C9.24494 33.8236 12.9613 36.336 17.175 37.5C17.3865 37.567 17.6135 37.567 17.825 37.5C18.7719 37.2487 19.6959 36.9184 20.5875 36.5125C20.7464 36.4528 20.8914 36.3614 21.0138 36.2438C21.1362 36.1262 21.2333 35.985 21.2993 35.8287C21.3654 35.6724 21.3989 35.5042 21.3978 35.3345C21.3967 35.1648 21.3611 34.9971 21.2932 34.8416C21.2252 34.6861 21.1263 34.5461 21.0024 34.4301C20.8786 34.3141 20.7324 34.2245 20.5728 34.1668C20.4133 34.1091 20.2436 34.0845 20.0742 34.0945C19.9048 34.1045 19.7392 34.1489 19.5875 34.225V34.175Z" fill="#03AFE5"/>
</svg>
