<svg width="26" height="28" viewBox="0 0 26 28" fill="none" xmlns="http://www.w3.org/2000/svg">
<path d="M7.16211 14.0796C8.09606 14.8726 8.45224 14.0181 8.62899 15.5869C10.058 15.3816 10.0183 17.5956 12.3757 18.066" stroke="#03AFE5" stroke-width="1.5" stroke-miterlimit="10" stroke-linecap="round" stroke-linejoin="round"/>
<path d="M6.60352 16.5251L8.63483 18.2499" stroke="#03AFE5" stroke-width="1.5" stroke-miterlimit="10" stroke-linecap="round" stroke-linejoin="round"/>
<path d="M10.1355 12.7215L9.47124 11.5914C9.28421 11.1813 9.45587 10.6129 9.89961 10.5338C12.8831 10.0023 14.3867 7.3176 14.3867 7.3176C14.3867 7.3176 14.8221 3.98588 9.82523 3.88208" stroke="#03AFE5" stroke-width="1.5" stroke-miterlimit="10" stroke-linecap="round" stroke-linejoin="round"/>
<path d="M10.2793 7.15845L12.8837 8.66684" stroke="#03AFE5" stroke-width="1.5" stroke-miterlimit="10" stroke-linecap="round" stroke-linejoin="round"/>
<path d="M20.4757 14.5861C18.1641 13.4608 15.7773 11.1672 15.7773 11.1672" stroke="#03AFE5" stroke-width="1.5" stroke-miterlimit="10" stroke-linecap="round" stroke-linejoin="round"/>
<path d="M20.0578 14.5242C20.0578 14.5242 19.6859 15.1836 19.8108 16.0222" stroke="#03AFE5" stroke-width="1.5" stroke-miterlimit="10" stroke-linecap="round" stroke-linejoin="round"/>
<path d="M9.21289 7.65528C9.21289 7.65528 9.90928 7.78829 10.7289 7.57178" stroke="#03AFE5" stroke-width="1.5" stroke-miterlimit="10" stroke-linecap="round" stroke-linejoin="round"/>
<path d="M18.6933 13.5806C18.6933 13.5806 18.3446 14.2447 18.293 14.5933" stroke="#03AFE5" stroke-width="1.5" stroke-miterlimit="10" stroke-linecap="round" stroke-linejoin="round"/>
<path d="M8.98339 5.32812C7.63906 6.81874 6.36145 8.55709 5.7787 10.2557C2.22467 20.615 3.15283 21.3639 10.7174 23.9083" stroke="#03AFE5" stroke-width="1.5" stroke-miterlimit="10" stroke-linecap="round" stroke-linejoin="round"/>
<path d="M13.7545 0.75C13.7545 0.75 12.7077 1.76752 11.8972 2.47659C11.4185 2.89539 11.086 3.18414 10.5 3.76126" stroke="#03AFE5" stroke-width="1.5" stroke-miterlimit="10" stroke-linecap="round" stroke-linejoin="round"/>
<path d="M7.61914 22.7917C8.73602 25.7762 8.6348 26.4277 8.6348 26.4277" stroke="#03AFE5" stroke-width="1.5" stroke-miterlimit="10" stroke-linecap="round" stroke-linejoin="round"/>
<path d="M17.377 8.42788C17.377 8.42788 18.5913 7.79432 19.9245 8.28492C21.8248 8.98421 22.7338 12.9876 22.7338 12.9876" stroke="#03AFE5" stroke-width="1.5" stroke-miterlimit="10" stroke-linecap="round" stroke-linejoin="round"/>
<path d="M23.3613 19.5269V19.7058" stroke="#03AFE5" stroke-width="1.5" stroke-miterlimit="10" stroke-linecap="round" stroke-linejoin="round"/>
<path d="M23.3613 21.7668V21.9458" stroke="#03AFE5" stroke-width="1.5" stroke-miterlimit="10" stroke-linecap="round" stroke-linejoin="round"/>
<path d="M22.1523 20.7363H22.3313" stroke="#03AFE5" stroke-width="1.5" stroke-miterlimit="10" stroke-linecap="round" stroke-linejoin="round"/>
<path d="M24.3926 20.7363H24.5715" stroke="#03AFE5" stroke-width="1.5" stroke-miterlimit="10" stroke-linecap="round" stroke-linejoin="round"/>
<path d="M1.95898 4.11865V4.29754" stroke="#03AFE5" stroke-width="1.5" stroke-miterlimit="10" stroke-linecap="round" stroke-linejoin="round"/>
<path d="M1.95898 6.3584V6.53734" stroke="#03AFE5" stroke-width="1.5" stroke-miterlimit="10" stroke-linecap="round" stroke-linejoin="round"/>
<path d="M0.75 5.32812H0.928883" stroke="#03AFE5" stroke-width="1.5" stroke-miterlimit="10" stroke-linecap="round" stroke-linejoin="round"/>
<path d="M2.99023 5.32812H3.16912" stroke="#03AFE5" stroke-width="1.5" stroke-miterlimit="10" stroke-linecap="round" stroke-linejoin="round"/>
<path d="M17.6465 22.699V22.8779" stroke="#03AFE5" stroke-width="1.5" stroke-miterlimit="10" stroke-linecap="round" stroke-linejoin="round"/>
<path d="M17.6465 24.939V25.1179" stroke="#03AFE5" stroke-width="1.5" stroke-miterlimit="10" stroke-linecap="round" stroke-linejoin="round"/>
<path d="M16.4375 23.9084H16.6164" stroke="#03AFE5" stroke-width="1.5" stroke-miterlimit="10" stroke-linecap="round" stroke-linejoin="round"/>
<path d="M18.6777 23.9084H18.8567" stroke="#03AFE5" stroke-width="1.5" stroke-miterlimit="10" stroke-linecap="round" stroke-linejoin="round"/>
</svg>
