<svg width="20" height="20" viewBox="0 0 20 20" fill="none" xmlns="http://www.w3.org/2000/svg">
<path fill-rule="evenodd" clip-rule="evenodd" d="M8.91017 9.38747H14.261C14.5353 9.38747 14.7585 9.16424 14.7585 8.88991V8.71423C14.7585 6.96489 13.3355 5.54136 11.5858 5.54136C9.8361 5.54136 8.41302 6.96489 8.41302 8.71423V8.88991C8.41302 9.16424 8.63585 9.38747 8.91017 9.38747ZM14.7703 3.17537L15.2753 3.39507C15.3449 3.42534 15.3999 3.48075 15.4306 3.55032L15.6503 4.05574L15.8696 3.55032C15.8998 3.48114 15.9552 3.42573 16.0248 3.39507L16.5298 3.17537L16.0248 2.95568C15.9556 2.92581 15.9002 2.87039 15.8696 2.80043L15.6503 2.2954L15.4306 2.80043C15.3999 2.87 15.3449 2.92541 15.2753 2.95568L14.7703 3.17537ZM10.1568 2.42903C10.1568 3.21703 10.7978 3.85805 11.5858 3.85805C12.3738 3.85805 13.0148 3.21703 13.0148 2.42903C13.0148 1.64102 12.3738 1 11.5858 1C10.7978 0.999607 10.1568 1.64063 10.1568 2.42903ZM6.76041 6.20714L7.02019 6.80493L7.28037 6.20714C7.31613 6.125 7.38176 6.05937 7.46429 6.02321L8.06206 5.76342L7.46429 5.50324C7.38215 5.46787 7.31652 5.40223 7.28037 5.3197L7.02019 4.72231L6.76041 5.3197C6.72504 5.40223 6.65902 5.46787 6.57649 5.50324L5.97872 5.76342L6.57649 6.02321C6.65902 6.05937 6.72465 6.125 6.76041 6.20714ZM5.62816 18.1133L2.57959 12.2628C2.56308 12.2318 2.53557 12.209 2.50138 12.198C2.48802 12.1936 2.47426 12.1917 2.4609 12.1917C2.43968 12.1917 2.41924 12.1968 2.40038 12.2066L1.07083 12.8995C1.00716 12.9325 0.981221 13.0147 1.01463 13.0783L4.0632 18.9289C4.07931 18.9599 4.10721 18.9831 4.14101 18.9937C4.1752 19.0043 4.21097 19.0016 4.24201 18.9851L5.57156 18.2922C5.603 18.276 5.6258 18.2485 5.63641 18.2143C5.64741 18.1805 5.64466 18.1444 5.62816 18.1133ZM10.7876 11.6843C11.1118 11.6984 11.4121 11.8387 11.6329 12.0801C11.8542 12.321 11.9682 12.6323 11.9544 12.9565C11.9403 13.2804 11.7996 13.5806 11.5587 13.8019C11.3174 14.0232 11.0057 14.1367 10.6822 14.123L7.97796 14.0063C7.84826 14.0008 7.73783 14.1014 7.73233 14.2315C7.72643 14.3616 7.82743 14.4716 7.95752 14.4775L10.6618 14.5942C10.6866 14.5954 10.7113 14.5958 10.7361 14.5958C11.159 14.5958 11.5618 14.439 11.8774 14.1493C11.9729 14.0621 12.0566 13.965 12.1285 13.8612L12.1305 13.8648L17.216 11.2142C17.5033 11.0645 17.8338 11.0358 18.1455 11.1341C18.4583 11.2323 18.7122 11.4449 18.8627 11.7326C19.0121 12.0203 19.0408 12.3505 18.9429 12.6625C18.8435 12.9746 18.6316 13.2293 18.3443 13.379L10.852 17.2837C10.4602 17.488 10.0515 17.4582 9.51934 17.3438L6.54583 16.7059C6.31199 16.6556 6.06125 16.6273 5.80894 16.759L5.5303 16.904L3.51416 13.0367L6.19802 11.6379C6.38352 11.5412 6.55998 11.5019 6.76906 11.511L10.7876 11.6843Z" fill="#03AFE5"/>
</svg>
