<svg width="40" height="40" viewBox="0 0 40 40" fill="none" xmlns="http://www.w3.org/2000/svg">
<path d="M36.9723 5.98139C31.1517 5.98139 23.4933 4.01728 20.7635 0.378376C20.4003 -0.0638227 19.7476 -0.127604 19.3054 0.235554C19.2532 0.278278 19.2053 0.326191 19.1626 0.378376C16.4325 4.01698 8.77409 5.98139 2.95379 5.98139C2.40112 5.98139 1.95312 6.42939 1.95312 6.98206V19.9889C1.95312 30.9911 11.5072 37.6238 19.6884 39.9608C19.8678 40.013 20.0582 40.013 20.2377 39.9608C28.4188 37.6238 37.9729 30.9911 37.9729 19.9889V6.98206C37.9729 6.42939 37.5249 5.98139 36.9723 5.98139ZM35.9716 19.9889C35.9716 29.756 27.4123 35.7436 19.963 37.9579C12.5137 35.7436 3.95416 29.756 3.95416 19.9889V7.96503C9.73753 7.76941 16.5765 5.90509 19.963 2.49904C23.3499 5.90509 30.1885 7.76941 35.9719 7.96472V19.9889H35.9716Z" fill="#03AFE5"/>
<path d="M15.9603 15.9869V17.988H14.9597C14.407 17.988 13.959 18.436 13.959 18.9886V26.9928C13.959 27.5454 14.407 27.9934 14.9597 27.9934H24.9651C25.5178 27.9934 25.9658 27.5454 25.9658 26.9928V18.9886C25.9658 18.436 25.5178 17.988 24.9651 17.988H23.9645V15.9869C23.9645 13.7765 22.1728 11.9849 19.9624 11.9849C17.752 11.9849 15.9603 13.7765 15.9603 15.9869ZM23.9645 25.9924H15.9603V19.989H23.9645V25.9924ZM21.9634 15.9869V17.988H17.9614V15.9869C17.9614 14.8819 18.857 13.9859 19.9624 13.9859C21.0674 13.9859 21.9634 14.8819 21.9634 15.9869Z" fill="#03AFE5"/>
</svg>
