<svg width="40" height="40" viewBox="0 0 40 40" fill="none" xmlns="http://www.w3.org/2000/svg">
<path d="M21.25 11.25H12.5C11.8088 11.25 11.25 10.69 11.25 10C11.25 9.31 11.8088 8.75 12.5 8.75H21.25C21.9412 8.75 22.5 9.31 22.5 10C22.5 10.69 21.9412 11.25 21.25 11.25Z" fill="#03AFE5"/>
<path d="M25 17.5H12.5C11.8088 17.5 11.25 16.94 11.25 16.25C11.25 15.56 11.8088 15 12.5 15H25C25.6912 15 26.25 15.56 26.25 16.25C26.25 16.94 25.6912 17.5 25 17.5Z" fill="#03AFE5"/>
<path d="M19.825 22.5H12.5C11.8088 22.5 11.25 21.94 11.25 21.25C11.25 20.56 11.8088 20 12.5 20H19.825C20.5162 20 21.075 20.56 21.075 21.25C21.075 21.94 20.5162 22.5 19.825 22.5Z" fill="#03AFE5"/>
<path d="M16.825 27.5H12.5C11.8088 27.5 11.25 26.94 11.25 26.25C11.25 25.56 11.8088 25 12.5 25H16.825C17.5163 25 18.075 25.56 18.075 26.25C18.075 26.94 17.5163 27.5 16.825 27.5Z" fill="#03AFE5"/>
<path d="M16.825 35H11.25C7.80375 35 5 32.1963 5 28.75V7.5C5 4.05375 7.80375 1.25 11.25 1.25H26.25C29.6963 1.25 32.5 4.05375 32.5 7.5V17.75C32.5 18.44 31.9412 19 31.25 19C30.5588 19 30 18.44 30 17.75V7.5C30 5.4325 28.3175 3.75 26.25 3.75H11.25C9.1825 3.75 7.5 5.4325 7.5 7.5V28.75C7.5 30.8175 9.1825 32.5 11.25 32.5H16.825C17.5162 32.5 18.075 33.06 18.075 33.75C18.075 34.44 17.5162 35 16.825 35Z" fill="#03AFE5"/>
<path d="M28.75 38.75C23.9262 38.75 20 34.825 20 30C20 25.175 23.9262 21.25 28.75 21.25C33.5737 21.25 37.5 25.175 37.5 30C37.5 34.825 33.5737 38.75 28.75 38.75ZM28.75 23.75C25.3038 23.75 22.5 26.5538 22.5 30C22.5 33.4462 25.3038 36.25 28.75 36.25C32.1962 36.25 35 33.4462 35 30C35 26.5538 32.1962 23.75 28.75 23.75Z" fill="#03AFE5"/>
<path d="M27.9166 33.1663C27.5966 33.1663 27.2766 33.0438 27.0328 32.8001L25.3666 31.1338C24.8778 30.6451 24.8778 29.8551 25.3666 29.3663C25.8553 28.8776 26.6453 28.8776 27.1341 29.3663L27.9166 30.1488L30.3666 27.7001C30.8553 27.2113 31.6453 27.2113 32.1341 27.7001C32.6228 28.1888 32.6228 28.9801 32.1341 29.4676L28.8003 32.8013C28.5566 33.0451 28.2366 33.1663 27.9166 33.1663Z" fill="#03AFE5"/>
</svg>
