<svg width="23" height="31" viewBox="0 0 23 31" fill="none" xmlns="http://www.w3.org/2000/svg">
<path d="M5.21875 18.8126C6.625 23.0313 8.96875 24.4376 11.3125 24.4376C13.6562 24.4376 16 23.0313 17.4062 18.8126C17.4062 18.8126 19.2812 18.3438 19.2812 16.0001V15.9945C19.28 15.5238 19.1132 15.0686 18.81 14.7086C18.5067 14.3486 18.0864 14.1069 17.6228 14.0257C16.2453 13.7802 14.9309 13.2615 13.7569 12.5001C12.583 11.7386 11.5734 10.75 10.7875 9.59229" stroke="#03AFE5" stroke-width="2" stroke-linecap="round" stroke-linejoin="round"/>
<path d="M9.90625 8.03125C10.1526 8.57693 10.4475 9.09935 10.7875 9.59219C10.3238 10.787 9.54547 11.8341 8.53508 12.6226C7.52468 13.4111 6.31981 13.9116 5.04812 14.0711C4.57822 14.1295 4.14579 14.3575 3.83199 14.7121C3.51819 15.0667 3.34458 15.5237 3.34375 15.9972V16C3.34375 18.3438 5.21875 18.8125 5.21875 18.8125" stroke="#03AFE5" stroke-width="2" stroke-linecap="round" stroke-linejoin="round"/>
<path d="M14.5977 23.3032C14.668 27.7563 16.4867 28.6657 17.4055 29.1251" stroke="#03AFE5" stroke-width="2" stroke-linecap="round" stroke-linejoin="round"/>
<path d="M5.21875 29.1251C6.1375 28.6657 7.95625 27.7563 8.02656 23.3032" stroke="#03AFE5" stroke-width="2" stroke-linecap="round" stroke-linejoin="round"/>
<path d="M4.14531 14.4297C4.13594 14.3687 4.12656 14.3031 4.1125 14.2375C3.91805 13.1166 3.8177 11.9814 3.8125 10.8438C3.8125 7.09375 7.09375 4.75 11.3125 4.75C15.5312 4.75 18.8125 7.09375 18.8125 10.8438C18.8075 12.0355 18.6977 13.2244 18.4844 14.3969" stroke="#03AFE5" stroke-width="2" stroke-linecap="round" stroke-linejoin="round"/>
<path d="M6.76617 5.86094C5.61773 2.62188 8.26148 1 11.313 1C14.3646 1 17.0084 2.62188 15.8599 5.86094" stroke="#03AFE5" stroke-width="2" stroke-linecap="round" stroke-linejoin="round"/>
<path d="M19.2812 20.6875L20.6875 19.75L21.625 21.1562" stroke="#03AFE5" stroke-width="2" stroke-linecap="round" stroke-linejoin="round"/>
<path d="M3.34375 20.6875L1.9375 19.75L1 21.1562" stroke="#03AFE5" stroke-width="2" stroke-linecap="round" stroke-linejoin="round"/>
<path d="M20.6875 19.75C20.2621 21.9424 19.1053 23.9256 17.4062 25.375" stroke="#03AFE5" stroke-width="2" stroke-linecap="round" stroke-linejoin="round"/>
<path d="M1.9375 19.75C2.36286 21.9424 3.5197 23.9256 5.21875 25.375" stroke="#03AFE5" stroke-width="2" stroke-linecap="round" stroke-linejoin="round"/>
<path d="M15.9993 16.4686H15.5305C14.1243 17.4061 13.1868 16.4686 13.1868 16.4686L13.1816 16.4658" stroke="#03AFE5" stroke-width="2" stroke-linecap="round" stroke-linejoin="round"/>
<path d="M6.625 16.4686H7.09375C8.5 17.4061 9.4375 16.4686 9.4375 16.4686L9.44266 16.4658" stroke="#03AFE5" stroke-width="2" stroke-linecap="round" stroke-linejoin="round"/>
<path d="M9.67188 21.1562L9.69109 21.1713C9.69109 21.1713 10.0961 21.625 11.3125 21.625C12.5289 21.625 12.9339 21.1713 12.9339 21.1713L12.9531 21.1562" stroke="#03AFE5" stroke-width="1.956" stroke-linecap="round" stroke-linejoin="round"/>
</svg>
