<svg width="40" height="40" viewBox="0 0 40 40" fill="none" xmlns="http://www.w3.org/2000/svg">
<path d="M12.3696 10.6776L7.84076 24.6269C7.81389 24.7045 7.80603 24.7872 7.81783 24.8683C7.82963 24.9494 7.86076 25.0266 7.90865 25.0935C7.95654 25.1604 8.01983 25.2151 8.09332 25.2532C8.1668 25.2913 8.2484 25.3116 8.33139 25.3125H9.59946C9.71264 25.3122 9.82268 25.2757 9.91314 25.2085C10.0036 25.1414 10.0696 25.0472 10.1014 24.9399L10.8109 22.7044H17.0117L16.9248 22.5666L17.7023 24.9399C17.7341 25.0472 17.8001 25.1414 17.8906 25.2085C17.981 25.2757 18.0911 25.3122 18.2042 25.3125H19.4723C19.5554 25.313 19.6374 25.294 19.7115 25.2571C19.7857 25.2202 19.8499 25.1664 19.899 25.1002C19.948 25.034 19.9804 24.9572 19.9934 24.8762C20.0065 24.7953 20 24.7124 19.9743 24.6344L15.4454 10.6851C15.4131 10.5781 15.347 10.4842 15.2566 10.4172C15.1663 10.3501 15.0565 10.3134 14.9435 10.3125H12.8602C12.7499 10.3147 12.6432 10.3512 12.5551 10.4167C12.467 10.4823 12.4021 10.5736 12.3696 10.6776ZM11.5657 20.469L13.9019 13.2894L16.2568 20.469H11.5657Z" fill="#03AFE5"/>
<path d="M25.1146 10.3125H23.9479C23.666 10.3125 23.4375 10.5461 23.4375 10.8344V24.7906C23.4375 25.0788 23.666 25.3125 23.9479 25.3125H25.1146C25.3965 25.3125 25.625 25.0788 25.625 24.7906V10.8344C25.625 10.5461 25.3965 10.3125 25.1146 10.3125Z" fill="#03AFE5"/>
<path d="M18.8657 30.6818H8.01897C7.2123 30.6818 6.43867 30.3643 5.86826 29.7991C5.29786 29.234 4.97741 28.4674 4.97741 27.6682V8.58183C4.97741 7.78256 5.29786 7.01603 5.86826 6.45086C6.43867 5.8857 7.2123 5.56819 8.01897 5.56819H27.2822C28.0889 5.56819 28.8625 5.8857 29.4329 6.45086C30.0033 7.01603 30.3238 7.78256 30.3238 8.58183V18.125C30.3306 18.3265 30.4175 18.5171 30.5655 18.6555C30.7134 18.7938 30.9106 18.8686 31.114 18.8636C31.7487 18.8617 32.3752 19.0059 32.9442 19.2847C33.0623 19.3447 33.194 19.3734 33.3267 19.3679C33.4593 19.3624 33.5882 19.323 33.7008 19.2534C33.8135 19.1838 33.906 19.0865 33.9694 18.971C34.0327 18.8554 34.0648 18.7255 34.0624 18.594V8.58183C34.0624 7.70014 33.8869 6.82711 33.5461 6.01268C33.2052 5.19825 32.7056 4.4584 32.0758 3.83547C31.4461 3.21254 30.6986 2.71875 29.876 2.38235C29.0535 2.04595 28.1721 1.87355 27.2822 1.87501H8.01897C6.22373 1.87501 4.50202 2.58162 3.23259 3.83939C1.96316 5.09716 1.25 6.80307 1.25 8.58183V27.6682C1.25 29.4469 1.96316 31.1528 3.23259 32.4106C4.50202 33.6684 6.22373 34.375 8.01897 34.375H20.4312C20.5838 34.3752 20.7329 34.3306 20.8599 34.2468C20.9868 34.1631 21.0859 34.0439 21.1445 33.9044C21.2031 33.7649 21.2187 33.6113 21.1893 33.463C21.1599 33.3147 21.0867 33.1784 20.9792 33.0713C20.3992 32.5441 19.9294 31.9092 19.5963 31.2026C19.5429 31.0521 19.4443 30.9215 19.3136 30.8284C19.183 30.7353 19.0267 30.6841 18.8657 30.6818Z" fill="#03AFE5"/>
<path d="M35.4283 32.1564L38.8254 30.816C38.8953 30.7884 38.9553 30.7403 38.9976 30.678C39.0399 30.6157 39.0625 30.5422 39.0625 30.4669C39.0625 30.3916 39.0399 30.318 38.9976 30.2557C38.9553 30.1935 38.8953 30.1454 38.8254 30.1177L35.4283 28.7774C34.8269 28.5393 34.2807 28.1802 33.8234 27.7224C33.3662 27.2645 33.0076 26.7176 32.7698 26.1155L31.4312 22.7365C31.4034 22.6667 31.3553 22.6068 31.2932 22.5646C31.231 22.5224 31.1576 22.4999 31.0825 22.5C31.0074 22.4999 30.934 22.5224 30.8718 22.5646C30.8097 22.6068 30.7616 22.6667 30.7338 22.7365L29.3952 26.1155C29.158 26.718 28.7996 27.2652 28.3423 27.7231C27.8849 28.181 27.3385 28.5399 26.7368 28.7774L23.3621 30.1177C23.2922 30.1454 23.2322 30.1935 23.1899 30.2557C23.1476 30.318 23.125 30.3916 23.125 30.4669C23.125 30.5422 23.1476 30.6157 23.1899 30.678C23.2322 30.7403 23.2922 30.7884 23.3621 30.816L26.7368 32.1564C27.3385 32.3939 27.8849 32.7527 28.3423 33.2106C28.7996 33.6686 29.158 34.2158 29.3952 34.8182L30.7338 38.1972C30.761 38.2678 30.8088 38.3285 30.871 38.3713C30.9333 38.4142 31.007 38.4373 31.0825 38.4375C31.158 38.4373 31.2317 38.4142 31.294 38.3713C31.3562 38.3285 31.404 38.2678 31.4312 38.1972L32.7698 34.8182C33.0076 34.2161 33.3662 33.6692 33.8234 33.2114C34.2807 32.7535 34.8269 32.3944 35.4283 32.1564Z" fill="#03AFE5"/>
</svg>
