<svg width="20" height="20" viewBox="0 0 20 20" fill="none" xmlns="http://www.w3.org/2000/svg">
<g clip-path="url(#clip0_2465_297)">
<path d="M19.423 7.50764C19.3628 7.52211 19.3108 7.55981 19.2783 7.61251C19.2458 7.6652 19.2355 7.72861 19.2495 7.78889C19.4204 8.51401 19.5069 9.25643 19.5074 10.0014C19.5043 12.5221 18.5017 14.9387 16.7193 16.7211C14.9368 18.5035 12.5203 19.5062 9.99955 19.5092C7.92923 19.5165 5.91447 18.8398 4.2683 17.5842C4.48933 17.2546 4.57764 16.8537 4.51554 16.4618C4.45344 16.0699 4.24551 15.7159 3.93343 15.4708C3.62135 15.2257 3.22817 15.1076 2.83269 15.1402C2.4372 15.1727 2.06864 15.3536 1.80086 15.6464C1.53308 15.9392 1.38586 16.3225 1.38871 16.7193C1.39156 17.1161 1.54427 17.4972 1.81624 17.7861C2.0882 18.0751 2.45933 18.2506 2.85524 18.2775C3.25114 18.3044 3.64258 18.1806 3.95111 17.9311C5.68438 19.2654 7.81216 19.9855 9.99955 19.978C11.5065 19.9763 12.9935 19.6337 14.3492 18.9758C15.7049 18.3179 16.8941 17.3618 17.8279 16.179C18.7616 14.9962 19.4155 13.6175 19.7408 12.1461C20.066 10.6747 20.054 9.14877 19.7058 7.68264C19.6988 7.65253 19.6859 7.6241 19.6679 7.59898C19.6499 7.57386 19.6271 7.55256 19.6008 7.53629C19.5745 7.52003 19.5453 7.50912 19.5148 7.5042C19.4842 7.49929 19.4531 7.50046 19.423 7.50764Z" fill="#03AFE5"/>
<path d="M0.492197 10.0015C0.492299 8.31028 0.943478 6.64968 1.79922 5.19093C2.65495 3.73218 3.88428 2.52806 5.36045 1.70274C6.83662 0.877405 8.5062 0.46073 10.1971 0.495669C11.8879 0.530608 13.5389 1.0159 14.9797 1.9015C14.831 2.21967 14.8072 2.58208 14.913 2.91697C15.0188 3.25185 15.2466 3.53477 15.5511 3.70971C15.8557 3.88464 16.2148 3.93882 16.5574 3.86151C16.9 3.78421 17.201 3.58106 17.4009 3.2923C17.6009 3.00354 17.685 2.65023 17.6368 2.30235C17.5886 1.95447 17.4114 1.6374 17.1405 1.41392C16.8696 1.19045 16.5246 1.07688 16.1739 1.0957C15.8232 1.11452 15.4923 1.26437 15.2469 1.51556C13.7356 0.581297 12.0022 0.0675599 10.2259 0.027446C8.44958 -0.0126678 6.69477 0.422297 5.14283 1.28739C3.59089 2.15248 2.29812 3.41631 1.39813 4.94827C0.498126 6.48023 0.0235518 8.22474 0.0234469 10.0015C0.0226067 10.6105 0.0780508 11.2183 0.189072 11.8171C0.198601 11.8711 0.226864 11.9199 0.268881 11.9551C0.310898 11.9902 0.363974 12.0094 0.418759 12.0093C0.432951 12.0093 0.447098 12.0077 0.460947 12.0046C0.522044 11.9936 0.576266 11.9588 0.611712 11.9078C0.647158 11.8568 0.660932 11.7939 0.650009 11.7328C0.544684 11.1617 0.491859 10.5822 0.492197 10.0015Z" fill="#03AFE5"/>
<path d="M8.59375 8.45308V8.5937H11.4062V8.45308C11.3844 6.55308 8.61562 6.55308 8.59375 8.45308Z" fill="#03AFE5"/>
<path d="M16.5555 5.13128C13.918 5.15784 11.3805 3.52816 10.4102 2.82503C10.291 2.73896 10.1478 2.69263 10.0008 2.69263C9.8538 2.69263 9.71055 2.73896 9.59141 2.82503C8.62109 3.52816 6.07734 5.15159 3.44609 5.13128C3.35265 5.13035 3.25994 5.14792 3.17331 5.18297C3.08668 5.21802 3.00784 5.26985 2.94132 5.3355C2.87481 5.40114 2.82193 5.47929 2.78575 5.56545C2.74956 5.65161 2.73077 5.74408 2.73047 5.83753C2.73203 9.44534 3.45391 14.6063 9.68359 17.7594C9.78183 17.8095 9.89052 17.8356 10.0008 17.8356C10.111 17.8356 10.2197 17.8095 10.318 17.7594C16.5477 14.6063 17.2695 9.44534 17.2711 5.83753C17.2697 5.64903 17.1935 5.46879 17.0594 5.33638C16.9252 5.20396 16.744 5.1302 16.5555 5.13128ZM12.5789 12.2657C12.5789 12.5765 12.4554 12.8745 12.2357 13.0943C12.0159 13.3141 11.7178 13.4375 11.407 13.4375H8.59453C8.28373 13.4375 7.98566 13.3141 7.76589 13.0943C7.54612 12.8745 7.42266 12.5765 7.42266 12.2657V9.76566C7.42277 9.53774 7.48935 9.3148 7.61424 9.12415C7.73912 8.93349 7.91689 8.78339 8.12578 8.69222V8.45003C8.15391 5.94222 11.8477 5.94222 11.8758 8.45003V8.69222C12.0847 8.78339 12.2624 8.93349 12.3873 9.12415C12.5122 9.3148 12.5788 9.53774 12.5789 9.76566V12.2657Z" fill="#03AFE5"/>
<path d="M10.3835 10.7466C10.38 10.7256 10.381 10.7041 10.3864 10.6835C10.3917 10.663 10.4014 10.6438 10.4147 10.6272C10.467 10.5515 10.4977 10.4629 10.5033 10.3711C10.5089 10.2792 10.4893 10.1876 10.4466 10.1061C10.4038 10.0246 10.3396 9.95636 10.2609 9.90873C10.1821 9.86111 10.0919 9.83594 9.99986 9.83594C9.90784 9.83594 9.81757 9.86111 9.73883 9.90873C9.6601 9.95636 9.59589 10.0246 9.55316 10.1061C9.51043 10.1876 9.49081 10.2792 9.49643 10.3711C9.50204 10.4629 9.53268 10.5515 9.58502 10.6272C9.59826 10.6436 9.60789 10.6626 9.61328 10.683C9.61866 10.7034 9.61968 10.7247 9.61627 10.7455C9.57955 10.9284 9.47564 11.4516 9.40236 11.8147C9.39345 11.86 9.39469 11.9067 9.40598 11.9514C9.41727 11.9962 9.43833 12.0379 9.46766 12.0735C9.49699 12.1092 9.53385 12.1379 9.57559 12.1576C9.61733 12.1773 9.66292 12.1875 9.70908 12.1875H10.2903C10.3366 12.1875 10.3822 12.1773 10.424 12.1575C10.4658 12.1377 10.5027 12.1089 10.5321 12.0732C10.5614 12.0374 10.5824 11.9956 10.5936 11.9508C10.6048 11.9059 10.606 11.8591 10.5969 11.8138L10.3835 10.7466Z" fill="#03AFE5"/>
</g>
<defs>
<clipPath id="clip0_2465_297">
<rect width="20" height="20" fill="white"/>
</clipPath>
</defs>
</svg>
